<svg width="110" height="18" viewBox="0 0 110 18" fill="none" xmlns="http://www.w3.org/2000/svg">
<path fill-rule="evenodd" clip-rule="evenodd" d="M109.608 5.9151C109.608 4.18245 108.677 2.91508 108.086 2.40763C107.495 1.9008 107.073 0.928711 100.396 0.928711C93.7201 0.928711 93.2127 1.90018 92.6215 2.40763C92.029 2.91508 91.0998 4.14027 91.0998 5.87291V12.1261C91.0998 13.8587 92.029 15.0851 92.6215 15.5913C93.2127 16.0988 93.7201 17.0709 100.396 17.0709C107.074 17.0709 107.495 16.0994 108.086 15.5913C108.677 15.0851 109.608 13.8587 109.608 12.1261V7.85866H100.396V10.6478H104.283V11.2464C104.283 11.8273 104.052 12.3845 103.641 12.7953C103.23 13.2061 102.673 13.4369 102.092 13.4369H98.6141C98.3265 13.4368 98.0418 13.3801 97.7761 13.2699C97.5105 13.1598 97.2691 12.9984 97.0658 12.795C96.8625 12.5916 96.7013 12.3502 96.5913 12.0845C96.4813 11.8187 96.4248 11.534 96.4249 11.2464V6.75257C96.4248 6.465 96.4813 6.18022 96.5913 5.91451C96.7013 5.64879 96.8625 5.40734 97.0658 5.20394C97.2691 5.00054 97.5105 4.83916 97.7761 4.72904C98.0418 4.61891 98.3265 4.56219 98.6141 4.56211H102.092C103 4.56211 103.778 5.11298 104.11 5.89835L109.608 5.9151ZM17.4852 4.05528L24.0777 11.154L34.3892 5.2383V4.01806C34.3892 2.40515 33.0815 1.09745 31.4685 1.09745H3.50313C2.72854 1.09745 1.98567 1.40516 1.43795 1.95288C0.890226 2.5006 0.58252 3.24347 0.58252 4.01806V5.2383L10.894 11.154L17.4852 4.05528Z" fill="white"/>
<path fill-rule="evenodd" clip-rule="evenodd" d="M27.7123 14.4523L34.3892 5.91628V13.9821C34.3892 15.595 33.0815 16.9021 31.4685 16.9021H3.50313C3.11962 16.9021 2.73985 16.8267 2.38551 16.68C2.03117 16.5333 1.7092 16.3182 1.43798 16.047C1.16677 15.7759 0.951632 15.454 0.80485 15.0996C0.658068 14.7453 0.58252 14.3656 0.58252 13.9821V5.91628L7.25936 14.4523H27.7123ZM68.0264 1.09863V16.9033H73.1815V4.22582L79.0978 16.9033H88.395V1.09863H83.2393V13.8599L77.238 1.09863H68.0264ZM57.6728 1.09863H51.419L45.1646 7.85984H44.0238V1.09863H38.8681V16.9033H44.0238V10.6489H45.6299L51.5034 16.9033H57.9259L50.4469 8.87411L57.6728 1.09863ZM64.5612 16.9033V1.09863H59.4054V16.9033H64.5612Z" fill="white"/>
</svg>
