<svg width="165" height="33" viewBox="0 0 165 33" fill="none" xmlns="http://www.w3.org/2000/svg">
<path d="M164.93 15.4502V12.6332H161.33V8.25018L161.21 8.28618L157.826 9.29218L157.759 9.31218V12.6312H152.419V10.7842C152.369 10.0809 152.578 9.3835 153.007 8.82418C153.218 8.60144 153.475 8.42743 153.76 8.3143C154.045 8.20117 154.352 8.15164 154.658 8.16917C155.198 8.1762 155.731 8.29397 156.223 8.51518L156.356 8.57217V5.60018L156.294 5.57818C155.646 5.38426 154.97 5.29646 154.294 5.31818C153.308 5.30296 152.334 5.5303 151.456 5.98018C150.641 6.40397 149.966 7.0531 149.51 7.85018C149.042 8.68802 148.804 9.63468 148.82 10.5942V12.6272H146.312V15.4502H148.82V27.3232H152.42V15.4502H157.76V23.0002C157.76 26.1072 159.269 27.6822 162.243 27.6822C162.758 27.679 163.271 27.6237 163.774 27.5172C164.159 27.4536 164.533 27.3382 164.887 27.1742L164.934 27.1462V24.3002L164.788 24.3952C164.564 24.534 164.32 24.6375 164.064 24.7022C163.833 24.7715 163.594 24.8108 163.353 24.8192C163.074 24.8439 162.792 24.8082 162.528 24.7145C162.263 24.6208 162.022 24.4713 161.82 24.2762C161.441 23.7239 161.268 23.0559 161.332 22.3892V15.4502H164.93ZM138.267 24.8172C137.696 24.8478 137.125 24.7515 136.596 24.5352C136.066 24.3189 135.591 23.9879 135.205 23.5662C134.418 22.5637 134.027 21.3072 134.105 20.0352C134.022 18.7334 134.413 17.4456 135.205 16.4092C135.584 15.9843 136.053 15.6497 136.578 15.4299C137.103 15.2101 137.671 15.1108 138.239 15.1392C138.79 15.1119 139.341 15.2065 139.852 15.4164C140.362 15.6262 140.82 15.9461 141.193 16.3532C141.979 17.3817 142.362 18.6619 142.271 19.9532C142.361 21.2474 142.002 22.533 141.256 23.5942C140.885 24.013 140.422 24.3411 139.904 24.5531C139.386 24.7651 138.826 24.8554 138.267 24.8172ZM138.428 12.2782C137.356 12.2185 136.283 12.3744 135.272 12.7369C134.261 13.0993 133.333 13.6608 132.543 14.3882C131.816 15.1536 131.253 16.0589 130.888 17.049C130.522 18.0391 130.361 19.0932 130.416 20.1472C130.366 21.1573 130.524 22.1668 130.881 23.113C131.238 24.0593 131.786 24.9219 132.491 25.6472C133.238 26.3394 134.116 26.8756 135.072 27.2244C136.029 27.5731 137.046 27.7274 138.063 27.6782C139.12 27.7312 140.176 27.5689 141.168 27.2012C142.16 26.8335 143.066 26.268 143.833 25.5392C144.553 24.7812 145.113 23.8857 145.478 22.9062C145.844 21.9267 146.008 20.8835 145.96 19.8392C146.014 18.8289 145.865 17.8182 145.521 16.8666C145.178 15.9151 144.647 15.0421 143.96 14.2992C143.223 13.6051 142.353 13.068 141.403 12.7205C140.452 12.3731 139.441 12.2226 138.43 12.2782H138.428ZM124.61 12.2782C123.118 12.2151 121.649 12.6565 120.439 13.5312C119.927 13.9046 119.512 14.3956 119.229 14.963C118.946 15.5303 118.804 16.1573 118.814 16.7912C118.802 17.416 118.921 18.0364 119.164 18.6122C119.409 19.1472 119.778 19.6156 120.241 19.9782C120.915 20.4695 121.65 20.8693 122.429 21.1672C123.052 21.405 123.66 21.6802 124.249 21.9912C124.557 22.1474 124.829 22.3648 125.049 22.6302C125.209 22.878 125.287 23.1697 125.272 23.4642C125.272 24.4512 124.511 24.9312 122.945 24.9312C122.275 24.916 121.611 24.798 120.977 24.5812C120.259 24.3542 119.579 24.0197 118.961 23.5892L118.812 23.4892V26.8572L118.867 26.8812C119.48 27.1419 120.121 27.334 120.776 27.4542C121.446 27.5964 122.129 27.673 122.814 27.6832C124.38 27.7643 125.928 27.3213 127.214 26.4242C127.735 26.0405 128.156 25.537 128.442 24.9561C128.727 24.3753 128.869 23.7342 128.854 23.0872C128.879 22.1665 128.565 21.2687 127.972 20.5642C127.132 19.7184 126.104 19.0828 124.972 18.7092C124.209 18.4622 123.488 18.0986 122.836 17.6312C122.689 17.4833 122.574 17.3061 122.5 17.111C122.426 16.916 122.393 16.7075 122.405 16.4992C122.403 16.2932 122.452 16.09 122.547 15.9075C122.643 15.725 122.782 15.5689 122.952 15.4532C123.404 15.1503 123.941 15.0029 124.484 15.0332C125.102 15.0364 125.717 15.1283 126.309 15.3062C126.872 15.4658 127.409 15.7074 127.902 16.0232L128.049 16.1232V12.9192L127.993 12.8962C127.471 12.6936 126.928 12.5464 126.375 12.4572C125.793 12.3459 125.203 12.286 124.61 12.2782ZM109.43 24.8172C108.859 24.8479 108.288 24.7516 107.758 24.5353C107.228 24.319 106.753 23.988 106.366 23.5662C105.58 22.5634 105.188 21.3071 105.266 20.0352C105.183 18.7334 105.574 17.4456 106.366 16.4092C106.745 15.9843 107.214 15.6497 107.738 15.4299C108.263 15.2102 108.831 15.1108 109.399 15.1392C109.95 15.1119 110.501 15.2065 111.012 15.4164C111.522 15.6262 111.98 15.9461 112.353 16.3532C113.14 17.3813 113.524 18.6617 113.432 19.9532C113.521 21.2475 113.163 22.5331 112.416 23.5942C112.045 24.0128 111.583 24.3408 111.065 24.5528C110.548 24.7648 109.988 24.8553 109.43 24.8172ZM109.591 12.2782C108.519 12.2182 107.445 12.3741 106.434 12.7365C105.423 13.099 104.494 13.6606 103.704 14.3882C102.978 15.1538 102.414 16.0591 102.049 17.0491C101.683 18.0391 101.523 19.0932 101.577 20.1472C101.527 21.1574 101.686 22.1671 102.043 23.1133C102.401 24.0595 102.949 24.922 103.654 25.6472C104.4 26.3395 105.277 26.8759 106.234 27.2248C107.19 27.5737 108.206 27.7282 109.223 27.6792C110.28 27.7322 111.336 27.5699 112.328 27.2022C113.32 26.8345 114.226 26.269 114.993 25.5402C115.713 24.7822 116.273 23.8867 116.638 22.9072C117.004 21.9277 117.168 20.8845 117.12 19.8402C117.174 18.8299 117.025 17.8192 116.681 16.8676C116.338 15.9161 115.807 15.0431 115.12 14.3002C114.382 13.606 113.511 13.0692 112.559 12.7223C111.608 12.3754 110.595 12.2256 109.584 12.2822L109.591 12.2782ZM96.1121 15.1782V12.6332H92.5541V27.3232H96.1101V19.8072C96.0604 18.6989 96.3716 17.6044 96.9971 16.6882C97.2536 16.3171 97.5977 16.0151 97.9989 15.8089C98.4001 15.6027 98.846 15.4987 99.2971 15.5062C99.6584 15.5121 100.018 15.5635 100.366 15.6592C100.659 15.7223 100.939 15.8324 101.196 15.9852L101.345 16.0902V12.6072L101.288 12.5842C100.841 12.4282 100.368 12.358 99.8951 12.3772C99.0297 12.3676 98.1881 12.6608 97.5161 13.2062C96.8966 13.7324 96.4251 14.411 96.1481 15.1752H96.1101L96.1121 15.1782ZM86.1861 12.2782C84.6828 12.2478 83.196 12.5954 81.8621 13.2892C80.6483 13.9335 79.6545 14.9255 79.0081 16.1382C78.3374 17.4428 78.0007 18.8935 78.0281 20.3602C78.0114 21.6828 78.3395 22.9869 78.9801 24.1442C79.5972 25.2536 80.5216 26.1613 81.6421 26.7582C82.841 27.3843 84.1777 27.7003 85.5301 27.6772C87.02 27.724 88.4971 27.388 89.8201 26.7012L89.8671 26.6752V23.5102L89.7171 23.6162C89.1829 23.9916 88.5971 24.2876 87.9781 24.4952C87.4304 24.6933 86.8543 24.8017 86.2721 24.8162C85.6604 24.8465 85.0491 24.7502 84.4764 24.5332C83.9037 24.3162 83.382 23.9832 82.9441 23.5552C82.519 23.0828 82.1916 22.531 81.9808 21.9315C81.7701 21.3319 81.6801 20.6966 81.7161 20.0622C81.6528 18.7449 82.1125 17.4561 82.9951 16.4762C83.4267 16.0327 83.9464 15.6846 84.5209 15.4545C85.0953 15.2244 85.7117 15.1173 86.3301 15.1402C87.5505 15.1569 88.7347 15.5571 89.7151 16.2842L89.8651 16.3842V13.0532L89.8171 13.0262C89.2978 12.7672 88.7437 12.585 88.1721 12.4852C87.5179 12.3504 86.852 12.281 86.1841 12.2782H86.1861ZM75.5801 12.6322H72.0211V27.3222H75.5781L75.5801 12.6322ZM73.8361 6.37418C73.2756 6.36429 72.733 6.57097 72.3211 6.95118C72.1174 7.13121 71.9552 7.35326 71.8455 7.60203C71.7359 7.85079 71.6815 8.12037 71.6861 8.39218C71.6811 8.65939 71.7348 8.92444 71.8435 9.1686C71.9522 9.41277 72.1132 9.63008 72.3151 9.80518C72.7321 10.1799 73.2765 10.3813 73.8371 10.3682C74.399 10.3798 74.9446 10.1791 75.3651 9.80618C75.5687 9.6319 75.7313 9.41477 75.8413 9.17033C75.9512 8.92589 76.0058 8.66017 76.0011 8.39218C76.0034 8.12456 75.9495 7.85944 75.8428 7.61397C75.7362 7.3685 75.5792 7.14815 75.3821 6.96718C75.1763 6.77114 74.9338 6.61781 74.6684 6.51603C74.403 6.41425 74.1202 6.36604 73.8361 6.37418ZM64.9611 11.5482V27.3232H68.5911V6.82418H63.5671L57.1821 22.0482L50.9821 6.82318H45.7571V27.3232H49.1681V11.5462H49.2851L55.8301 27.3222H58.4041L64.8461 11.5482H64.9611Z" fill="#32323A"/>
<path d="M17.329 14.9H0.928955V0H17.329V14.9ZM35.916 14.9H19.516V0H35.916V14.9ZM17.329 33H0.928955V18.1H17.329V33ZM35.916 33H19.516V18.1H35.916V33Z" fill="#32323A"/>
</svg>
