<svg width="135" height="25" viewBox="0 0 135 25" fill="none" xmlns="http://www.w3.org/2000/svg">
<path d="M31.8416 21.1972V4.33691H34.708L43.5952 15.6566V4.33691H46.7017V21.1972H43.8353L34.9481 9.90072V21.1972H31.8416Z" fill="#0A1B2B"/>
<path d="M48.9189 14.9346C48.9189 13.032 49.5448 11.4656 50.7983 10.2137C52.075 8.93698 53.6398 8.31104 55.5425 8.31104C57.4451 8.31104 59.0115 8.93698 60.2867 10.2137C61.5634 11.4656 62.1893 13.032 62.1893 14.9346C62.1893 16.8372 61.5634 18.4037 60.2867 19.6788C59.01 20.9307 57.4451 21.5582 55.5425 21.5582C53.6398 21.5582 52.0734 20.9322 50.7983 19.6788C49.5448 18.4037 48.9189 16.8372 48.9189 14.9346ZM52.0254 14.9346C52.0254 15.9711 52.3632 16.814 53.0371 17.5112C53.7111 18.21 54.554 18.5462 55.5425 18.5462C56.5294 18.5462 57.3723 18.2084 58.0478 17.5112C58.7218 16.8125 59.0596 15.9696 59.0596 14.9346C59.0596 13.8996 58.7218 13.0568 58.0478 12.358C57.3738 11.6592 56.531 11.323 55.5425 11.323C54.5555 11.323 53.7127 11.6608 53.0371 12.358C52.3632 13.0552 52.0254 13.8996 52.0254 14.9346Z" fill="#0A1B2B"/>
<path d="M73.7042 9.66033V3.13281H76.6914V21.197H73.7042V20.21C72.5964 21.1009 71.3197 21.5595 69.899 21.5595C68.1652 21.5595 66.7196 20.9336 65.539 19.6801C64.3832 18.4035 63.8053 16.8386 63.8053 14.936C63.8053 13.0333 64.3832 11.4669 65.539 10.215C66.7196 8.93832 68.1637 8.31238 69.899 8.31238C71.3182 8.31083 72.5949 8.76789 73.7042 9.66033ZM70.2832 11.3213C69.3443 11.3213 68.5247 11.659 67.8739 12.3562C67.2232 13.055 66.9102 13.8979 66.9102 14.9329C66.9102 15.9694 67.2232 16.8123 67.8739 17.5095C68.5247 18.2082 69.3427 18.5445 70.2832 18.5445C71.2221 18.5445 72.017 18.2067 72.6677 17.5095C73.3184 16.8107 73.6546 15.9678 73.6546 14.9329C73.6546 13.8979 73.3169 13.055 72.6677 12.3562C72.017 11.659 71.2221 11.3213 70.2832 11.3213Z" fill="#0A1B2B"/>
<path d="M79.2432 3.13281H82.2536V9.66033C83.3614 8.76944 84.6133 8.31083 86.0356 8.31083C87.7694 8.31083 89.215 8.93677 90.3956 10.2135C91.5762 11.4654 92.1541 13.0318 92.1541 14.9344C92.1541 16.837 91.5762 18.4035 90.3956 19.6786C89.215 20.9305 87.7709 21.558 86.0356 21.558C84.6149 21.558 83.3614 21.1009 82.2536 20.2085V21.1954H79.2432V3.13281ZM85.6499 11.3213C84.7109 11.3213 83.9161 11.659 83.2654 12.3562C82.6146 13.055 82.3016 13.8979 82.3016 14.9329C82.3016 15.9694 82.6146 16.8123 83.2654 17.5095C83.9161 18.2082 84.7109 18.5445 85.6499 18.5445C86.5888 18.5445 87.3836 18.2067 88.0343 17.5095C88.6851 16.8107 89.0213 15.9678 89.0213 14.9329C89.0213 13.8979 88.6835 13.055 88.0343 12.3562C87.3851 11.659 86.5903 11.3213 85.6499 11.3213Z" fill="#0A1B2B"/>
<path d="M103.668 9.6599V8.67295H106.655V21.1981H103.668V20.2111C102.56 21.102 101.283 21.5607 99.8623 21.5607C98.1285 21.5607 96.683 20.9347 95.5023 19.6813C94.3465 18.4046 93.7686 16.8397 93.7686 14.9371C93.7686 13.0344 94.3465 11.468 95.5023 10.2161C96.683 8.93944 98.1285 8.31349 99.8623 8.31349C101.283 8.31039 102.56 8.76746 103.668 9.6599ZM100.247 11.3208C99.3076 11.3208 98.488 11.6586 97.8372 12.3558C97.1865 13.0546 96.8735 13.8974 96.8735 14.9324C96.8735 15.969 97.1865 16.8118 97.8372 17.509C98.488 18.2078 99.3061 18.544 100.247 18.544C101.187 18.544 101.98 18.2063 102.631 17.509C103.282 16.8103 103.618 15.9674 103.618 14.9324C103.618 13.8974 103.28 13.0546 102.631 12.3558C101.982 11.6586 101.187 11.3208 100.247 11.3208Z" fill="#0A1B2B"/>
<path d="M109.207 8.67164H112.217V10.1885C113.133 8.93658 114.385 8.30908 115.974 8.30908C117.395 8.30908 118.551 8.76615 119.491 9.70662C120.43 10.6455 120.912 11.8014 120.912 13.1989V21.1952H117.902V14.0418C117.902 12.4041 116.698 11.1754 115.083 11.1754C113.446 11.1754 112.217 12.4041 112.217 14.0418V21.1952H109.207V8.67164Z" fill="#0A1B2B"/>
<path d="M123.467 3.13281H126.477V14.0435L130.668 8.67183H134.305L129.609 14.7175L134.812 21.197H131.126L126.477 15.393V21.197H123.467V3.13281Z" fill="#0A1B2B"/>
<path d="M7.5036 17.598C7.5036 21.3173 4.48798 24.3307 0.768646 24.3307V10.8652C4.48798 10.863 7.5036 13.8787 7.5036 17.598Z" fill="#663AF5"/>
<path d="M24.7105 0.391113V13.8566C20.9912 13.8566 17.9778 10.841 17.9778 7.12386C17.9778 3.40673 20.9912 0.391113 24.7105 0.391113Z" fill="#663AF5"/>
<path d="M24.7105 17.32V24.2734C24.2803 24.3109 23.8435 24.3307 23.4023 24.3307C17.9513 24.3307 12.7252 21.0813 10.4751 16.0868C9.72947 14.4323 9.31032 12.6366 8.46101 11.0329C7.19476 8.63714 4.77256 7.28926 2.0746 7.28926C1.62899 7.28926 1.19441 7.32897 0.768646 7.40177C0.768646 7.40177 0.768646 0.450631 0.768646 0.448425C0.768646 0.17488 4.6424 0.638139 4.96007 0.706525C6.48001 1.03081 7.9426 1.61319 9.27944 2.40074C11.9531 3.97583 14.1525 6.39583 15.3063 9.29232C15.9637 10.9402 16.3166 12.7315 17.2851 14.2206C18.6042 16.2479 21 17.4347 23.4001 17.4347C23.8479 17.4325 24.2869 17.3928 24.7105 17.32Z" fill="#663AF5"/>
</svg>
