<svg width="40" height="40" viewBox="0 0 40 40" fill="none" xmlns="http://www.w3.org/2000/svg">
<path d="M40 20C40 31.1111 31.1111 40 20 40C8.88889 40 0 31.1111 0 20C0 8.88889 8.88889 0 20 0C31.1111 0 40 8.88889 40 20Z" fill="#0668E3"/>
<path d="M14.8148 28.5926L25.1852 38.5185C33.7778 36.2963 40 28.7407 40 19.7037V19.2593L31.8519 11.8519L14.8148 28.5926Z" fill="#E6E7E8" fill-opacity="0.2379"/>
<path d="M26.8148 9.62971C27.7037 8.74082 29.3333 8.74082 30.0741 9.62971L31.8519 11.4075C32.7407 12.2964 32.7407 13.926 31.8519 14.8149L20 26.8149C20 26.8149 19.8519 26.963 19.7037 27.1112L17.9259 28.889C17.037 29.7779 15.5556 29.7779 14.6667 28.889L6.66667 20.7408C5.77778 19.8519 5.77778 18.2223 6.66667 17.4816L8.44444 15.5556C9.33333 14.8149 10.963 14.8149 11.7037 15.5556L16.2963 20.2964L26.8148 9.62971Z" fill="white"/>
</svg>
