<svg width="80" height="34" viewBox="0 0 80 34" fill="none" xmlns="http://www.w3.org/2000/svg">
<path d="M6.37827 13.4051C6.37827 12.5397 7.08214 12.2068 8.24814 12.2068C9.91972 12.2068 12.0313 12.7173 13.7031 13.6271V8.41224C11.8774 7.68001 10.0738 7.39151 8.24814 7.39151C3.78274 7.39151 0.813232 9.74376 0.813232 13.6716C0.813232 19.7959 9.17178 18.8196 9.17178 21.4604C9.17178 22.4809 8.29206 22.8139 7.06018 22.8139C5.23455 22.8139 2.90287 22.0594 1.05512 21.0386V26.32C3.10084 27.2076 5.16851 27.5847 7.06018 27.5847C11.6354 27.5847 14.7809 25.2992 14.7809 21.3271C14.7589 14.7144 6.37827 15.8904 6.37827 13.4051ZM21.2478 2.95351L15.8807 4.10732L15.8587 21.8818C15.8587 25.1661 18.3004 27.5847 21.5559 27.5847C23.3595 27.5847 24.6793 27.2519 25.4051 26.8525V22.3479C24.7014 22.6363 21.2258 23.6571 21.2258 20.3729V12.4953H25.4051V7.76878H21.2258L21.2478 2.95351ZM32.2461 9.4108L31.8941 7.76878H27.1429V27.1853H32.642V14.0265C33.9396 12.3179 36.1394 12.6285 36.8213 12.8725V7.76878C36.1174 7.50245 33.5439 7.01424 32.2461 9.4108ZM38.163 7.76878H43.6841V27.1853H38.163V7.76878ZM38.163 6.0823L43.6841 4.88402V0.379395L38.163 1.55552V6.08214V6.0823ZM55.1662 7.39151C53.0105 7.39151 51.6248 8.41224 50.855 9.12247L50.5689 7.74663H45.7298V33.6204L51.2288 32.4444L51.2509 26.1646C52.0428 26.7415 53.2085 27.5625 55.1442 27.5625C59.0816 27.5625 62.667 24.3671 62.667 17.3329C62.645 10.8976 59.0156 7.39151 55.1662 7.39151ZM53.8465 22.6807C52.5487 22.6807 51.7786 22.2148 51.2509 21.6378L51.2288 13.4051C51.8008 12.7616 52.5926 12.3179 53.8465 12.3179C55.8481 12.3179 57.2339 14.5812 57.2339 17.4881C57.2339 20.4617 55.8701 22.6807 53.8465 22.6807ZM80.0001 17.5547C80.0001 11.874 77.2725 7.39151 72.0594 7.39151C66.8241 7.39151 63.6567 11.8741 63.6567 17.5104C63.6567 24.1896 67.3962 27.5625 72.7632 27.5625C75.3808 27.5625 77.3605 26.9634 78.8562 26.1202V21.6821C77.3606 22.4366 75.6448 22.9027 73.4672 22.9027C71.3335 22.9027 69.4418 22.1481 69.1999 19.5297H79.9562C79.9562 19.2411 80.0001 18.0872 80.0001 17.5547ZM69.1339 15.4467C69.1339 12.9392 70.6517 11.8961 72.0375 11.8961C73.3792 11.8961 74.809 12.9392 74.809 15.4467H69.1339Z" fill="#101010"/>
</svg>
