<svg width="349" height="350" viewBox="0 0 349 350" fill="none" xmlns="http://www.w3.org/2000/svg">
<rect y="0.449951" width="349" height="349" fill="#0668E3"/>
<path d="M298.024 297.556L348.998 348.531V174.265C348.998 222.418 329.42 265.984 298.024 297.556Z" fill="#333D47"/>
<path d="M174.733 0.00012207C271.037 0.00012207 348.998 77.961 348.998 174.266V0.00012207H174.733Z" fill="#333D47"/>
<path d="M174.733 0.00012207C78.428 0.00012207 0.467133 77.961 0.467133 174.266C0.467133 270.57 78.428 348.531 174.733 348.531V174.266V0.00012207Z" fill="#333D47"/>
<path d="M174.733 0.00012207L348.998 174.266C348.998 77.961 271.037 0.00012207 174.733 0.00012207Z" fill="#333D47"/>
<path d="M174.733 174.265V348.531C222.885 348.531 266.451 328.952 298.024 297.556L174.733 174.265Z" fill="white"/>
<path d="M348.998 174.265H174.733L298.024 297.556C329.42 265.984 348.998 222.418 348.998 174.265Z" fill="#333D47"/>
</svg>
