<svg width="113" height="29" viewBox="0 0 113 29" fill="none" xmlns="http://www.w3.org/2000/svg">
<path d="M68.8829 8.6816C67.0816 8.6816 65.6667 9.06101 64.2511 9.81835C64.2511 5.77552 64.2511 2.1121 64.3804 0.849121L55.7579 2.36454V3.12262L56.6586 3.24884C57.8156 3.50129 58.2036 4.13242 58.4584 5.6493C58.7178 8.6816 58.5877 24.8537 58.4584 27.5073C60.7747 28.0129 63.2203 28.3923 65.666 28.3923C72.4863 28.3923 76.6039 24.2225 76.6039 17.6523C76.6039 12.4727 73.2584 8.6816 68.8829 8.6816ZM65.9231 27.0017C65.4081 27.0017 64.7638 27.0017 64.3789 26.8762C64.2496 25.1076 64.1217 17.6523 64.2496 11.0828C65.0217 10.8296 65.5359 10.7034 66.1802 10.7034C69.013 10.7034 70.5572 13.9881 70.5572 18.0302C70.5564 23.0858 68.6258 27.0017 65.9231 27.0017ZM23.3282 1.35402H0.679443V2.49077L1.96653 2.61699C3.63854 2.86944 4.28283 3.87997 4.5392 6.28042C4.92637 10.8289 4.79707 19.0422 4.5392 22.9574C4.28208 25.3586 3.63929 26.496 1.96653 26.6208L0.679443 26.8747V27.8852H15.2208V26.8747L13.6766 26.6208C12.0038 26.4953 11.3603 25.3586 11.1032 22.9574C10.9739 21.3143 10.8453 18.6606 10.8453 15.3766L13.9337 15.5028C15.8643 15.5028 16.7643 17.019 17.1507 19.1663H18.3092V10.1985H17.1507C16.7635 12.3465 15.8643 13.8619 13.9337 13.8619L10.8461 13.9889C10.8461 9.69286 10.9746 5.65003 11.1039 3.24957H15.6072C19.0828 3.24957 20.8841 5.39685 22.1704 9.18796L23.4575 8.80856L23.3282 1.35402Z" fill="#B6B7BE"/>
<path d="M30.6635 8.42864C37.0982 8.42864 40.3151 12.7247 40.3151 18.4099C40.3151 23.8426 36.7118 28.3925 30.2771 28.3925C23.8432 28.3925 20.6262 24.0958 20.6262 18.4099C20.6262 12.9771 24.2289 8.42864 30.6635 8.42864ZM30.2771 9.69235C27.4458 9.69235 26.6737 13.4827 26.6737 18.4099C26.6737 23.2108 27.9608 27.1274 30.535 27.1274C33.4926 27.1274 34.2662 23.337 34.2662 18.4099C34.2662 13.609 32.9806 9.69235 30.2771 9.69235ZM78.2759 18.5368C78.2759 13.3565 81.6214 8.42864 88.1846 8.42864C93.5878 8.42864 96.1628 12.346 96.1628 17.5256H84.1948C84.0655 22.2002 86.3818 25.6119 91.0152 25.6119C93.0743 25.6119 94.1036 25.1078 95.3914 24.2227L95.9049 24.8539C94.6178 26.6225 91.7873 28.3925 88.1846 28.3925C82.3935 28.3918 78.2759 24.349 78.2759 18.5368ZM84.1948 16.1364L90.2431 16.0094C90.2431 13.4827 89.8566 9.69235 87.6696 9.69235C85.4826 9.69235 84.3226 13.2295 84.1948 16.1364ZM111.478 9.4399C109.934 8.80732 107.876 8.42864 105.559 8.42864C100.799 8.42864 97.8377 11.2078 97.8377 14.4933C97.8377 17.7787 100.023 19.1679 103.115 20.1792C106.332 21.3152 107.233 22.2002 107.233 23.7164C107.233 25.2325 106.074 26.6217 104.015 26.6217C101.571 26.6217 99.7684 25.2325 98.3535 21.4414L97.4521 21.6953L97.5814 27.2543C99.1256 27.8854 101.956 28.3918 104.402 28.3918C109.421 28.3918 112.638 25.8637 112.638 21.9478C112.638 19.2942 111.222 17.7787 107.877 16.5143C104.272 15.1251 102.987 14.2408 102.987 12.5977C102.987 10.9553 104.147 9.81784 105.691 9.81784C108.006 9.81784 109.55 11.2078 110.71 14.6195L111.61 14.367L111.478 9.4399ZM57.0435 8.93427C54.8565 7.67203 50.9953 8.30242 48.9368 12.8516L49.0646 8.42937L40.4437 10.0718V10.8298L41.3444 10.9561C42.5036 11.083 43.0171 11.7141 43.1464 13.3572C43.4036 16.3895 43.275 21.6968 43.1464 24.3497C43.0171 25.8644 42.5036 26.6225 41.3444 26.7494L40.4437 26.8764V27.8869H52.4109V26.8764L50.8667 26.7494C49.5804 26.6225 49.1939 25.8644 49.0646 24.3497C48.8075 21.9485 48.8075 17.1476 48.9368 14.1153C49.5796 13.2303 52.4109 12.4729 54.9843 14.1153L57.0435 8.93427Z" fill="#B6B7BE"/>
</svg>
