<svg width="161" height="49" viewBox="0 0 161 49" fill="none" xmlns="http://www.w3.org/2000/svg">
<path d="M85.2558 12.313C85.2525 12.7348 85.1662 13.1519 85.0017 13.5403C84.8373 13.9287 84.5979 14.281 84.2973 14.5769C83.9968 14.8729 83.6408 15.1067 83.2499 15.2651C82.8589 15.4235 82.4406 15.5033 82.0188 15.5H82.0058C81.154 15.5099 80.3333 15.181 79.724 14.5858C79.1147 13.9906 78.7668 13.1777 78.7568 12.326V12.311C78.7558 11.8933 78.8372 11.4795 78.9962 11.0933C79.1553 10.7071 79.3888 10.356 79.6836 10.06C79.9783 9.76405 80.3285 9.52906 80.7141 9.36846C81.0996 9.20786 81.5131 9.12479 81.9308 9.12401H82.0068C82.8586 9.12205 83.6771 9.45534 84.2852 10.0519C84.8933 10.6484 85.2423 11.4603 85.2568 12.312L85.2558 12.313ZM71.8558 18.738V19.522C71.2361 18.8661 70.4825 18.3513 69.6461 18.0126C68.8097 17.6738 67.9102 17.5191 67.0088 17.559C65.7256 17.5284 64.4495 17.7588 63.258 18.2362C62.0665 18.7136 60.9845 19.428 60.0774 20.3362C59.1703 21.2444 58.4572 22.3274 57.9813 23.5194C57.5054 24.7115 57.2766 25.9878 57.3088 27.271C57.2766 28.5542 57.5054 29.8305 57.9813 31.0226C58.4572 32.2147 59.1703 33.2976 60.0774 34.2058C60.9845 35.114 62.0665 35.8284 63.258 36.3058C64.4495 36.7832 65.7256 37.0136 67.0088 36.983C67.9154 37.0289 68.8209 36.8721 69.6594 36.5241C70.4978 36.1761 71.2482 35.6455 71.8558 34.971V35.804C71.8545 35.8956 71.8718 35.9866 71.9068 36.0713C71.9417 36.156 71.9934 36.2328 72.0589 36.2969C72.1243 36.3611 72.2021 36.4112 72.2875 36.4444C72.3729 36.4776 72.4642 36.4931 72.5558 36.49H76.6048V18.048H72.5598C72.3766 18.0505 72.2015 18.1237 72.0711 18.2523C71.9406 18.3809 71.8649 18.5549 71.8598 18.738H71.8558ZM71.8558 30.557C71.3871 31.1872 70.7763 31.6978 70.0731 32.0475C69.3699 32.3971 68.5941 32.5758 67.8088 32.569C64.6088 32.569 62.1598 30.608 62.1598 27.269C62.1598 23.93 64.6098 21.969 67.8088 21.969C68.592 21.9728 69.364 22.1559 70.0656 22.5043C70.7671 22.8527 71.3795 23.3572 71.8558 23.979V30.557ZM79.6038 18.051H84.4038V36.492H79.6038V18.051ZM151.282 17.56C150.38 17.5199 149.48 17.6745 148.643 18.0132C147.807 18.3519 147.053 18.8669 146.433 19.523V9.17301H141.633V36.492H145.682C145.864 36.49 146.039 36.4175 146.17 36.2897C146.3 36.1619 146.376 35.9886 146.382 35.806V34.972C146.995 35.6395 147.746 36.1651 148.583 36.5123C149.42 36.8594 150.323 37.0197 151.229 36.982C152.511 37.0093 153.785 36.7768 154.975 36.2983C156.165 35.8199 157.246 35.1055 158.152 34.1982C159.058 33.2909 159.772 32.2095 160.249 31.0191C160.726 29.8288 160.957 28.5541 160.929 27.272C160.957 25.9945 160.728 24.7244 160.254 23.5376C159.781 22.3508 159.073 21.2717 158.172 20.365C157.272 19.4583 156.198 18.7425 155.014 18.2606C153.831 17.7786 152.562 17.5403 151.285 17.56H151.282ZM150.482 32.52C149.695 32.5328 148.917 32.3569 148.213 32.0072C147.508 31.6575 146.898 31.1441 146.433 30.51V23.935C146.925 23.3303 147.541 22.838 148.239 22.4913C148.938 22.1446 149.702 21.9515 150.482 21.925C153.682 21.925 156.129 23.886 156.129 27.225C156.129 30.564 153.68 32.525 150.482 32.525V32.52ZM139.136 25.556V36.541H134.336V26.1C134.336 23.059 133.336 21.833 130.636 21.833C129.896 21.8528 129.168 22.0241 128.497 22.3365C127.827 22.6489 127.227 23.0956 126.736 23.649V36.495H121.936V18.051H125.736C125.919 18.0533 126.094 18.1262 126.224 18.2547C126.355 18.3831 126.431 18.557 126.436 18.74V19.524C127.109 18.8696 127.909 18.3584 128.785 18.021C129.662 17.6837 130.597 17.5272 131.536 17.561C133.441 17.4956 135.306 18.1234 136.784 19.328C138.484 20.701 139.134 22.467 139.134 25.557L139.136 25.556ZM110.294 17.556C109.392 17.5163 108.493 17.6711 107.657 18.0098C106.82 18.3485 106.067 18.8632 105.447 19.519V9.17301H100.647V36.492H104.696C104.878 36.4898 105.053 36.4172 105.183 36.2894C105.314 36.1616 105.39 35.9885 105.396 35.806V34.972C106.009 35.6395 106.76 36.1651 107.597 36.5123C108.434 36.8594 109.337 37.0197 110.243 36.982C111.525 37.0093 112.799 36.7768 113.989 36.2983C115.179 35.8199 116.26 35.1055 117.166 34.1982C118.072 33.2909 118.786 32.2095 119.263 31.0191C119.74 29.8288 119.971 28.5541 119.943 27.272C119.981 25.992 119.757 24.7176 119.287 23.5266C118.816 22.3355 118.108 21.2527 117.206 20.3441C116.303 19.4355 115.225 18.7201 114.038 18.2414C112.85 17.7628 111.577 17.5309 110.297 17.56L110.294 17.556ZM109.494 32.516C108.708 32.5285 107.93 32.3526 107.226 32.0029C106.522 31.6532 105.912 31.1399 105.447 30.506V23.935C105.939 23.3305 106.554 22.8383 107.253 22.4916C107.951 22.1449 108.715 21.9517 109.494 21.925C112.694 21.925 115.143 23.886 115.143 27.225C115.143 30.564 112.694 32.525 109.494 32.525V32.516ZM96.5018 17.56C97.2431 17.5364 97.984 17.6193 98.7018 17.806V22.171C98.7018 22.171 94.7018 20.845 92.2018 23.642V36.542H87.4018V18.051H91.4518C91.6345 18.0527 91.8094 18.1251 91.9399 18.253C92.0704 18.3809 92.1464 18.5544 92.1518 18.737V19.522C93.3077 18.3504 94.8584 17.651 96.5018 17.56ZM46.6688 34.825C46.4188 34.237 46.1688 33.599 45.9188 33.058C45.5188 32.176 45.1188 31.342 44.7698 30.558L44.7198 30.508C41.2204 23.0327 37.5381 15.6433 33.6728 8.34001L33.5228 8.04001C33.1134 7.27601 32.7134 6.50734 32.3228 5.73401C31.8296 4.76717 31.2256 3.86106 30.5228 3.03401C29.7597 2.08541 28.7932 1.32031 27.6949 0.795179C26.5965 0.270052 25.3942 -0.00169201 24.1768 7.92672e-06C22.9612 0.00176651 21.7602 0.26557 20.6558 0.77344C19.5513 1.28131 18.5694 2.02131 17.7768 2.94301C17.0909 3.78271 16.4881 4.68694 15.9768 5.64301C15.5861 6.41568 15.1861 7.18434 14.7768 7.94901L14.6258 8.24301C10.7818 15.6 7.03077 23.054 3.58377 30.41L3.53277 30.51C3.18477 31.295 2.78377 32.13 2.38377 33.01C2.13443 33.55 1.88477 34.139 1.63477 34.777C0.995129 36.4658 0.788848 38.288 1.03477 40.077C1.31231 41.8838 2.05849 43.5863 3.19896 45.0148C4.33942 46.4434 5.83435 47.5482 7.53477 48.219C8.81836 48.746 10.1942 49.0115 11.5818 49C12.0166 48.991 12.4506 48.9577 12.8818 48.9C14.6425 48.6815 16.3422 48.1148 17.8818 47.233C20.2074 45.8748 22.3006 44.153 24.0818 42.133C25.8736 44.142 27.9649 45.8622 30.2818 47.233C31.8216 48.1142 33.5212 48.6808 35.2818 48.9C35.7128 48.9583 36.1469 48.9917 36.5818 49C37.97 49.0153 39.3469 48.7483 40.6288 48.215C42.3302 47.5458 43.8262 46.4415 44.9669 45.0127C46.1076 43.5838 46.8531 41.8804 47.1288 40.073C47.494 38.3165 47.334 36.4912 46.6688 34.825ZM24.1308 37.376C21.4308 34.04 19.6818 30.902 19.0828 28.254C18.838 27.2757 18.7864 26.2591 18.9308 25.261C19.0298 24.5202 19.304 23.8136 19.7308 23.2C20.2385 22.5149 20.9029 21.9614 21.6684 21.5858C22.4339 21.2102 23.2782 21.0234 24.1308 21.041C24.9858 21.0071 25.8358 21.1867 26.604 21.5637C27.3722 21.9406 28.0344 22.503 28.5308 23.2C28.9572 23.8138 29.2315 24.5202 29.3308 25.261C29.4762 26.2586 29.4252 27.275 29.1808 28.253C28.5808 30.853 26.8298 33.992 24.1308 37.375V37.376ZM44.0728 39.682C43.886 40.9539 43.3673 42.1542 42.5688 43.1617C41.7704 44.1693 40.7204 44.9486 39.5248 45.421C38.3195 45.9015 37.0125 46.0701 35.7248 45.911C34.3849 45.7475 33.0921 45.3137 31.9248 44.636C29.7823 43.3654 27.8578 41.7589 26.2248 39.878C29.5248 35.905 31.5248 32.278 32.2728 29.039C32.598 27.6738 32.6826 26.2623 32.5228 24.868C32.3363 23.6672 31.8746 22.5258 31.1738 21.533C30.3674 20.4265 29.3049 19.5318 28.0774 18.9254C26.8498 18.319 25.4936 18.019 24.1248 18.051C22.7581 18.0297 21.4061 18.3345 20.1807 18.94C18.9554 19.5456 17.892 20.4345 17.0788 21.533C16.3774 22.526 15.9154 23.6678 15.7288 24.869C15.5176 26.2611 15.6028 27.6821 15.9788 29.039C16.7288 32.276 18.7788 35.954 22.0268 39.927C20.4053 41.8196 18.4787 43.4278 16.3268 44.685C15.1598 45.3636 13.8669 45.7974 12.5268 45.96C11.2392 46.1008 9.93653 45.9329 8.72677 45.47C7.53176 44.9969 6.48253 44.2173 5.68479 43.2095C4.88706 42.2018 4.36898 41.0017 4.18277 39.73C4.01639 38.4359 4.17023 37.1208 4.63077 35.9C4.78077 35.41 5.03077 34.92 5.28077 34.329C5.63077 33.55 6.03077 32.716 6.43077 31.883L6.48177 31.783C9.9751 24.3603 13.6418 17.0197 17.4818 9.76101L17.6318 9.46101C18.0318 8.72601 18.4318 7.94101 18.8318 7.20601C19.2105 6.43266 19.6805 5.70749 20.2318 5.04601C20.7305 4.47572 21.3455 4.01867 22.0354 3.70553C22.7253 3.39238 23.4741 3.23038 24.2318 3.23038C24.9894 3.23038 25.7383 3.39238 26.4282 3.70553C27.118 4.01867 27.733 4.47572 28.2318 5.04601C28.7823 5.70807 29.2522 6.43315 29.6318 7.20601C30.0318 7.94101 30.4318 8.72601 30.8318 9.46101L30.9828 9.76101C34.7728 17.0497 38.4218 24.4067 41.9298 31.832V31.881C42.3298 32.668 42.6798 33.55 43.0788 34.335C43.3288 34.923 43.5788 35.413 43.7288 35.903C44.1375 37.1181 44.2543 38.4124 44.0698 39.681L44.0728 39.682Z" fill="#32323A"/>
</svg>
