<svg width="163" height="43" viewBox="0 0 163 43" fill="none" xmlns="http://www.w3.org/2000/svg">
<path d="M14.75 23.326H8.775L11.95 13.049L14.75 23.326ZM5.975 33.715L7.842 27.452H15.5L17.367 33.715H23.715L16.991 9.946C16.618 8.385 15.871 7.883 14.191 7.883H4.854V10.02H5.6C6.72 10.02 7.28 10.373 7.28 11.228C7.28445 11.9889 7.09151 12.7379 6.72 13.402L0 33.715" fill="#32323A"/>
<path d="M31.7394 33.7149V9.77793C31.7394 8.53293 30.9924 7.87793 29.6854 7.87793H23.8984V10.0199H24.2714C25.3914 10.0199 25.9514 10.4849 25.9514 11.4879V33.7149" fill="#32323A"/>
<path d="M42.2 33.715V9.77799C42.2 8.53299 41.453 7.87799 40.146 7.87799H34.355V10.02H34.728C35.848 10.02 36.408 10.485 36.408 11.488V33.715" fill="#32323A"/>
<path d="M52.839 10.171C52.839 8.46101 51.532 7.45801 49.478 7.45801C47.237 7.45801 46.117 8.45801 46.117 10.171C46.117 11.918 47.237 12.94 49.478 12.94C51.532 12.94 52.839 11.918 52.839 10.171ZM52.652 33.717V16.283C52.6751 16.03 52.6431 15.775 52.5581 15.5355C52.4731 15.2961 52.3372 15.078 52.1597 14.8962C51.9822 14.7144 51.7673 14.5733 51.53 14.4827C51.2927 14.392 51.0385 14.3539 50.785 14.371H45V16.471H45.373C46.493 16.471 46.867 16.936 46.867 17.995V33.715" fill="#32323A"/>
<path d="M66.4701 24.3301V28.1961C65.5536 29.2098 64.2844 29.8347 62.9221 29.9431C61.8021 29.9431 61.2421 29.4041 61.2421 27.9541C61.2421 26.3541 61.6161 25.7431 62.9221 25.2411C64.0631 24.7935 65.2547 24.4876 66.4701 24.3301ZM58.2551 19.7031L58.8151 19.4801C59.9562 19.0088 61.1462 18.666 62.3631 18.4581C62.9202 18.3797 63.4809 18.3299 64.0431 18.3091C65.9101 18.3091 66.4701 18.9221 66.4701 20.6321V21.1151C63.8561 21.5431 63.1091 21.6911 61.6161 22.0071C60.8508 22.1961 60.1015 22.4448 59.3751 22.7511C56.9481 23.7171 55.8281 25.5761 55.8281 28.4931C55.8281 32.1541 57.3211 33.9011 60.6821 33.9011C61.9241 33.9339 63.1513 33.6254 64.2301 33.0091C65.1417 32.6178 65.9667 32.0495 66.6571 31.3371V31.9311C66.6571 33.1391 67.2171 33.7151 68.3371 33.7151H73.9371V31.7261H73.7501C72.6295 31.7261 72.0695 31.2245 72.0701 30.2211V20.7211C72.0701 15.7781 70.3901 14.1051 65.5351 14.1051C63.9633 14.0991 62.3963 14.28 60.8671 14.6441C59.4927 14.9396 58.1708 15.4409 56.9461 16.1311" fill="#32323A"/>
<path d="M82.7116 33.7149V20.5939C83.1541 20.0837 83.6982 19.6713 84.3092 19.3832C84.9201 19.0952 85.5844 18.9377 86.2596 18.9209C87.5666 18.9209 87.9396 19.4779 87.9396 21.4479V33.7149H93.7276V20.5199C93.7276 17.8059 93.3546 16.6359 92.6076 15.6139C92.134 15.1064 91.5529 14.7112 90.9068 14.4572C90.2607 14.2032 89.5661 14.0968 88.8736 14.1459C86.6326 14.1459 84.9526 14.9639 82.3386 17.2129V16.1709C82.3386 14.9629 81.7786 14.3709 80.6586 14.3709H75.0586V16.4709H75.2456C76.3656 16.4709 76.9256 16.9359 76.9256 17.9949V33.7149" fill="#32323A"/>
<path d="M111.654 30.015H103.065L111.28 18.344V14.371H98.958C97.465 14.371 96.904 14.966 96.904 16.397V19.909H98.958V19.519C98.958 18.46 99.518 18.032 100.638 18.032H105.119L96.719 29.703V33.717H111.656" fill="#32323A"/>
<path d="M144.7 32.654V10.762C144.7 8.99602 143.953 8.42002 142.273 8.42002H137.232V10.836H137.792C138.725 10.836 139.099 11.189 139.099 12.267V32.654H144.7ZM147.687 32.654H153.1V16.133C153.1 14.46 152.353 13.791 150.673 13.791H147.685L147.687 32.654ZM136.111 32.654V13.791H133.124C131.444 13.791 130.697 14.46 130.697 16.133V32.654H136.111ZM159.45 21.654C159.45 31.894 151.982 39.365 141.899 39.365C131.816 39.365 124.348 31.894 124.348 21.654C124.348 11.414 131.819 3.94202 141.9 3.94202C151.981 3.94202 159.451 11.413 159.451 21.653L159.45 21.654ZM162.999 21.653C163 9.66602 154.038 0.671021 141.9 0.671021C129.95 0.671021 120.8 9.66602 120.8 21.652C120.745 24.4342 121.254 27.1987 122.296 29.779C123.338 32.3593 124.891 34.702 126.863 36.6659C128.834 38.6298 131.183 40.1743 133.767 41.2063C136.352 42.2384 139.118 42.7366 141.9 42.671C154.036 42.671 163 33.676 163 21.652" fill="#32323A"/>
</svg>
