<svg width="164" height="28" viewBox="0 0 164 28" fill="none" xmlns="http://www.w3.org/2000/svg">
<path d="M130.974 0.85198C131.105 0.72998 131.105 0.72998 131.237 0.72998C131.369 0.72998 131.368 0.85198 131.368 0.97298C131.368 1.09398 131.368 1.09498 131.237 1.21598C128.102 4.58994 126.365 9.02779 126.377 13.633C126.351 18.2771 128.088 22.7581 131.237 26.172C131.368 26.294 131.368 26.294 131.368 26.415C131.353 26.5085 131.307 26.5942 131.237 26.658C131.137 26.6496 131.044 26.6064 130.974 26.536L119.153 15.583C118.839 15.3617 118.58 15.0707 118.398 14.7326C118.216 14.3946 118.114 14.0189 118.102 13.635C118.105 13.2806 118.189 12.9317 118.349 12.6151C118.508 12.2985 118.738 12.0227 119.021 11.809L130.974 0.85198Z" fill="#32323A"/>
<path d="M140.954 0C136.226 0 134.254 6.452 134.254 14C134.254 21.67 136.093 28 140.954 28C143.844 28 146.208 26.417 146.208 25.078C146.19 24.7541 146.049 24.4491 145.814 24.226C145.277 23.7993 144.836 23.2646 144.519 22.6564C144.202 22.0483 144.017 21.3804 143.975 20.696C144.023 19.7386 144.427 18.8336 145.107 18.1581C145.787 17.4827 146.695 17.0854 147.653 17.044C150.017 17.044 151.462 18.87 151.462 21.183C151.339 23.2179 150.607 25.1688 149.362 26.783V27.026C149.377 27.1195 149.423 27.2052 149.493 27.269C149.624 27.269 149.624 27.269 149.756 27.147L161.971 15.947C162.294 15.7358 162.56 15.447 162.743 15.1069C162.926 14.7668 163.021 14.3863 163.02 14C163.007 13.6161 162.906 13.2404 162.724 12.9024C162.541 12.5643 162.283 12.2732 161.969 12.052L149.754 0.852H149.491C149.36 0.852 149.36 0.974 149.36 1.095V1.338C150.644 2.93021 151.38 4.89405 151.46 6.938C151.46 9.251 150.015 11.077 147.651 11.077C146.693 11.0356 145.785 10.6383 145.105 9.96288C144.425 9.28743 144.021 8.38243 143.973 7.425C144.015 6.7406 144.2 6.07268 144.517 5.46456C144.834 4.85643 145.275 4.32169 145.812 3.895C145.938 3.79232 146.039 3.66221 146.107 3.51456C146.176 3.36691 146.209 3.20563 146.206 3.043C146.207 1.583 143.844 0 140.954 0Z" fill="#32323A"/>
<path d="M2.50712 19.843C1.67325 19.0453 1.01897 18.079 0.587891 17.0085C0.156809 15.9381 -0.0411805 14.788 0.00711554 13.635C-0.0220549 12.5144 0.171925 11.3991 0.577769 10.3541C0.983613 9.3091 1.59322 8.35524 2.37112 7.54802C3.10191 6.78512 3.97829 6.17655 4.94841 5.7583C5.91854 5.34005 6.9627 5.12063 8.01912 5.11302C11.8281 5.11302 14.4551 7.67002 14.4551 9.73902C14.4823 10.2565 14.3045 10.7639 13.9603 11.1513C13.6161 11.5387 13.1332 11.775 12.6161 11.809C12.3746 11.8339 12.1305 11.8029 11.9029 11.7185C11.6752 11.6341 11.47 11.4984 11.3031 11.322C11.0885 11.1734 10.9154 10.9724 10.8004 10.738C10.6854 10.5036 10.6323 10.2437 10.6461 9.98302C10.6464 9.72398 10.7062 9.46847 10.8208 9.23616C10.9354 9.00385 11.1018 8.80093 11.3071 8.64302C10.9956 8.13554 10.545 7.72817 10.0087 7.46935C9.4725 7.21054 8.8732 7.11115 8.28211 7.18302C7.64164 7.17939 7.0118 7.3467 6.45755 7.66768C5.9033 7.98866 5.44472 8.4517 5.12912 9.00902C4.23814 10.3848 3.78073 11.9963 3.81612 13.635C3.76244 15.276 4.22137 16.8929 5.12912 18.261C5.49168 18.8048 5.9788 19.2541 6.54998 19.5717C7.12117 19.8893 7.75991 20.066 8.41312 20.087C9.00192 20.1413 9.59437 20.0339 10.1267 19.7764C10.659 19.519 11.111 19.1213 11.4341 18.626C11.241 18.4578 11.0834 18.2527 10.9706 18.0228C10.8578 17.7928 10.792 17.5427 10.7771 17.287C10.7909 16.7932 10.9766 16.3196 11.3021 15.948C11.4759 15.7812 11.6822 15.6519 11.908 15.5681C12.1339 15.4844 12.3746 15.4479 12.6151 15.461C12.8744 15.4683 13.1295 15.5286 13.3646 15.6382C13.5997 15.7478 13.8099 15.9044 13.9822 16.0984C14.1545 16.2923 14.2853 16.5195 14.3664 16.7659C14.4476 17.0123 14.4774 17.2727 14.4541 17.531C14.4541 19.722 11.8271 22.157 8.01812 22.157C5.95726 22.0979 3.99241 21.2729 2.50712 19.843V19.843ZM2.50712 19.843C1.67325 19.0453 1.01897 18.079 0.587891 17.0085C0.156809 15.9381 -0.0411805 14.788 0.00711554 13.635C-0.0220549 12.5144 0.171925 11.3991 0.577769 10.3541C0.983613 9.3091 1.59322 8.35524 2.37112 7.54802C3.10191 6.78512 3.97829 6.17655 4.94841 5.7583C5.91854 5.34005 6.9627 5.12063 8.01912 5.11302C11.8281 5.11302 14.4551 7.67002 14.4551 9.73902C14.4823 10.2565 14.3045 10.7639 13.9603 11.1513C13.6161 11.5387 13.1332 11.775 12.6161 11.809C12.3746 11.8339 12.1305 11.8029 11.9029 11.7185C11.6752 11.6341 11.47 11.4984 11.3031 11.322C11.0885 11.1734 10.9154 10.9724 10.8004 10.738C10.6854 10.5036 10.6323 10.2437 10.6461 9.98302C10.6464 9.72398 10.7062 9.46847 10.8208 9.23616C10.9354 9.00385 11.1018 8.80093 11.3071 8.64302C10.9956 8.13554 10.545 7.72817 10.0087 7.46935C9.4725 7.21054 8.8732 7.11115 8.28211 7.18302C7.64164 7.17939 7.0118 7.3467 6.45755 7.66768C5.9033 7.98866 5.44472 8.4517 5.12912 9.00902C4.23814 10.3848 3.78073 11.9963 3.81612 13.635C3.76244 15.276 4.22137 16.8929 5.12912 18.261C5.49168 18.8048 5.9788 19.2541 6.54998 19.5717C7.12117 19.8893 7.75991 20.066 8.41312 20.087C9.00192 20.1413 9.59437 20.0339 10.1267 19.7764C10.659 19.519 11.111 19.1213 11.4341 18.626C11.241 18.4578 11.0834 18.2527 10.9706 18.0228C10.8578 17.7928 10.792 17.5427 10.7771 17.287C10.7909 16.7932 10.9766 16.3196 11.3021 15.948C11.4759 15.7812 11.6822 15.6519 11.908 15.5681C12.1339 15.4844 12.3746 15.4479 12.6151 15.461C12.8744 15.4683 13.1295 15.5286 13.3646 15.6382C13.5997 15.7478 13.8099 15.9044 13.9822 16.0984C14.1545 16.2923 14.2853 16.5195 14.3664 16.7659C14.4476 17.0123 14.4774 17.2727 14.4541 17.531C14.4541 19.722 11.8271 22.157 8.01812 22.157C5.95726 22.0979 3.99241 21.2729 2.50712 19.843V19.843ZM2.50712 19.843C1.67325 19.0453 1.01897 18.079 0.587891 17.0085C0.156809 15.9381 -0.0411805 14.788 0.00711554 13.635C-0.0220549 12.5144 0.171925 11.3991 0.577769 10.3541C0.983613 9.3091 1.59322 8.35524 2.37112 7.54802C3.10191 6.78512 3.97829 6.17655 4.94841 5.7583C5.91854 5.34005 6.9627 5.12063 8.01912 5.11302C11.8281 5.11302 14.4551 7.67002 14.4551 9.73902C14.4823 10.2565 14.3045 10.7639 13.9603 11.1513C13.6161 11.5387 13.1332 11.775 12.6161 11.809C12.3746 11.8339 12.1305 11.8029 11.9029 11.7185C11.6752 11.6341 11.47 11.4984 11.3031 11.322C11.0885 11.1734 10.9154 10.9724 10.8004 10.738C10.6854 10.5036 10.6323 10.2437 10.6461 9.98302C10.6464 9.72398 10.7062 9.46847 10.8208 9.23616C10.9354 9.00385 11.1018 8.80093 11.3071 8.64302C10.9956 8.13554 10.545 7.72817 10.0087 7.46935C9.4725 7.21054 8.8732 7.11115 8.28211 7.18302C7.64164 7.17939 7.0118 7.3467 6.45755 7.66768C5.9033 7.98866 5.44472 8.4517 5.12912 9.00902C4.23814 10.3848 3.78073 11.9963 3.81612 13.635C3.76244 15.276 4.22137 16.8929 5.12912 18.261C5.49168 18.8048 5.9788 19.2541 6.54998 19.5717C7.12117 19.8893 7.75991 20.066 8.41312 20.087C9.00192 20.1413 9.59437 20.0339 10.1267 19.7764C10.659 19.519 11.111 19.1213 11.4341 18.626C11.241 18.4578 11.0834 18.2527 10.9706 18.0228C10.8578 17.7928 10.792 17.5427 10.7771 17.287C10.7909 16.7932 10.9766 16.3196 11.3021 15.948C11.4759 15.7812 11.6822 15.6519 11.908 15.5681C12.1339 15.4844 12.3746 15.4479 12.6151 15.461C12.8744 15.4683 13.1295 15.5286 13.3646 15.6382C13.5997 15.7478 13.8099 15.9044 13.9822 16.0984C14.1545 16.2923 14.2853 16.5195 14.3664 16.7659C14.4476 17.0123 14.4774 17.2727 14.4541 17.531C14.4541 19.722 11.8271 22.157 8.01812 22.157C5.95726 22.0979 3.99241 21.2729 2.50712 19.843V19.843ZM57.0071 14.243C57.2701 14.243 57.2701 14.243 57.4011 14.121V13.634C57.3913 13.3344 57.3223 13.0397 57.1979 12.767C57.0734 12.4943 56.8962 12.249 56.6763 12.0452C56.4565 11.8414 56.1984 11.6833 55.917 11.5799C55.6357 11.4766 55.3366 11.43 55.0371 11.443C54.3342 11.4515 53.6632 11.7379 53.1709 12.2398C52.6786 12.7417 52.405 13.418 52.4101 14.121L57.0071 14.243ZM21.8071 16.191C20.4941 16.191 19.5741 16.8 19.5741 18.017C19.5741 19.117 20.3621 19.843 21.6741 19.965C22.1005 19.938 22.5173 19.827 22.9005 19.6382C23.2838 19.4494 23.6259 19.1866 23.9071 18.865V17.165C23.9041 17.0183 23.85 16.8772 23.7542 16.7661C23.6584 16.6549 23.5268 16.5806 23.3821 16.556C22.9009 16.2913 22.3557 16.1649 21.8071 16.191V16.191ZM73.5571 15.461C73.5571 18.626 75.0021 20.087 76.4471 20.087C78.1541 20.087 79.3371 18.748 79.3371 16.07C79.4457 14.8986 79.1185 13.7283 78.4181 12.783C78.1866 12.431 77.8763 12.1378 77.5118 11.9266C77.1473 11.7153 76.7386 11.5919 76.3181 11.566C74.6071 11.565 73.5611 13.026 73.5611 15.461H73.5571ZM30.6071 21.548C30.0821 21.426 29.6881 21.183 29.6881 20.696C29.6689 20.523 29.7157 20.3491 29.8191 20.209H29.9501C30.2498 20.1928 30.5319 20.0621 30.7381 19.844C31.0011 19.601 31.1321 19.235 31.1321 18.261V13.391C31.1321 12.539 30.8691 12.291 30.2131 12.291H29.5561V12.169C29.4651 12.0233 29.4195 11.8538 29.4251 11.682C29.4251 10.708 30.6071 10.221 31.3951 9.98202C31.6452 9.88242 31.9146 9.84072 32.1831 9.86002C32.6256 9.86977 33.051 10.033 33.3865 10.3218C33.7219 10.6105 33.9466 11.0069 34.0221 11.443C34.334 10.9503 34.7589 10.5391 35.2615 10.2435C35.7641 9.94783 36.33 9.77627 36.9121 9.74302C37.1624 9.72914 37.4129 9.76581 37.6487 9.85083C37.8846 9.93585 38.1008 10.0675 38.2847 10.2379C38.4685 10.4083 38.6162 10.614 38.7188 10.8427C38.8215 11.0714 38.877 11.3184 38.8821 11.569C38.8832 11.7932 38.8397 12.0153 38.7542 12.2225C38.6687 12.4297 38.5429 12.6178 38.3841 12.776C38.2253 12.9341 38.0366 13.0592 37.8291 13.1438C37.6215 13.2285 37.3992 13.271 37.1751 13.269C36.8105 13.287 36.4515 13.1743 36.1626 12.9512C35.8737 12.7281 35.6739 12.4093 35.5991 12.052C35.0741 12.174 34.1541 12.904 34.1541 15.339V18.261C34.1541 19.235 34.2851 19.6 34.5481 19.844C34.8614 20.0537 35.2233 20.1794 35.5991 20.209H35.7301C35.8356 20.3936 35.8814 20.6064 35.8611 20.818C35.8611 21.183 35.5981 21.427 35.0731 21.67C34.3415 21.8418 33.5916 21.9234 32.8401 21.913C31.9241 21.791 31.1361 21.67 30.6071 21.548ZM40.8521 21.548C40.3271 21.426 39.9331 21.183 39.9331 20.696C39.9139 20.523 39.9607 20.3491 40.0641 20.209H40.1951C40.4948 20.1928 40.7769 20.0621 40.9831 19.844C41.2461 19.601 41.3771 19.235 41.3771 18.261V13.391C41.3771 12.539 41.1141 12.291 40.4581 12.291H39.8071V12.169C39.7161 12.0233 39.6705 11.8538 39.6761 11.682C39.6761 10.708 40.8581 10.221 41.5151 9.98202C41.7652 9.88242 42.0346 9.84072 42.3031 9.86002C42.7456 9.86977 43.171 10.033 43.5065 10.3218C43.8419 10.6105 44.0666 11.0069 44.1421 11.443C44.4909 10.9562 44.9422 10.5517 45.4641 10.258C45.986 9.96435 46.566 9.78855 47.1631 9.74302C47.4134 9.72914 47.6639 9.76581 47.8997 9.85083C48.1356 9.93585 48.3518 10.0675 48.5357 10.2379C48.7195 10.4083 48.8672 10.614 48.9698 10.8427C49.0725 11.0714 49.128 11.3184 49.1331 11.569C49.1342 11.7932 49.0907 12.0154 49.0051 12.2227C48.9196 12.43 48.7937 12.6182 48.6347 12.7763C48.4758 12.9345 48.287 13.0595 48.0794 13.1441C47.8717 13.2287 47.6493 13.2711 47.4251 13.269C47.0605 13.287 46.7015 13.1743 46.4126 12.9512C46.1237 12.7281 45.9239 12.4093 45.8491 12.052C45.3241 12.174 44.4041 12.904 44.4041 15.339V18.261C44.4041 19.235 44.5351 19.6 44.7981 19.844C45.1114 20.0537 45.4733 20.1794 45.8491 20.209H45.9801C46.0856 20.3936 46.1314 20.6064 46.1111 20.818C46.1111 21.183 45.8481 21.427 45.3231 21.67C44.5901 21.8335 43.8412 21.915 43.0901 21.913C42.1691 21.791 41.5121 21.67 40.8561 21.548H40.8521ZM62.6521 21.548C62.1271 21.426 61.7331 21.183 61.7331 20.696C61.7139 20.523 61.7607 20.3491 61.8641 20.209H62.0071C62.3068 20.1928 62.5889 20.0621 62.7951 19.844C63.0581 19.601 63.1891 19.235 63.1891 18.261V11.809H61.3451V11.687C61.2396 11.5024 61.1939 11.2897 61.2141 11.078C61.2189 10.928 61.2533 10.7804 61.3154 10.6437C61.3775 10.5071 61.4661 10.384 61.576 10.2818C61.6858 10.1795 61.8149 10.1 61.9557 10.0479C62.0964 9.99575 62.2461 9.97201 62.3961 9.97802H63.1841V9.37402C63.1156 8.22451 63.3898 7.08052 63.9721 6.08702C64.6291 4.98702 65.9421 4.38702 67.7811 4.38702C70.1451 4.38702 72.1151 5.48702 72.1151 7.06502C72.2461 7.67402 71.7211 8.52602 70.5391 8.52602C70.1381 8.53491 69.7494 8.3874 69.4552 8.11471C69.1611 7.84202 68.9846 7.46556 68.9631 7.06502C68.9717 6.7624 69.0627 6.46785 69.2261 6.21302C68.8926 5.9459 68.4701 5.81543 68.0441 5.84802C67.7711 5.8152 67.4942 5.8541 67.2409 5.96089C66.9875 6.06769 66.7663 6.23868 66.5991 6.45702C66.319 6.9342 66.1828 7.48222 66.2071 8.03502V9.86102H69.3591V9.98302C69.4504 10.0804 69.5208 10.1953 69.566 10.3209C69.6113 10.4464 69.6303 10.5798 69.6221 10.713C69.6025 11.0024 69.4894 11.2775 69.2998 11.497C69.1103 11.7165 68.8545 11.8685 68.5711 11.93H66.4711V18.26C66.4711 19.234 66.6021 19.599 66.9961 19.843C67.3951 20.0757 67.8473 20.2014 68.3091 20.208H68.4401C68.5436 20.3481 68.5904 20.522 68.5711 20.695C68.5711 21.182 68.1771 21.425 67.6521 21.547C66.8297 21.7158 65.9917 21.7973 65.1521 21.79C64.3146 21.805 63.4781 21.7238 62.6591 21.548H62.6521ZM99.8231 21.548C99.2981 21.426 98.9041 21.183 98.9041 20.696C98.8849 20.523 98.9317 20.3491 99.0351 20.209H99.1661C99.4658 20.1928 99.7479 20.0621 99.9541 19.844C100.217 19.601 100.348 19.235 100.348 18.261V13.391C100.348 12.539 100.085 12.291 99.4291 12.291H98.7721V12.169C98.6811 12.0233 98.6355 11.8538 98.6411 11.682C98.6411 10.708 99.8231 10.221 100.48 9.98202C100.73 9.88242 101 9.84072 101.268 9.86002C101.711 9.86977 102.136 10.033 102.471 10.3218C102.807 10.6105 103.032 11.0069 103.107 11.443C103.419 10.9503 103.844 10.5391 104.347 10.2435C104.849 9.94783 105.415 9.77627 105.997 9.74302C106.25 9.71903 106.504 9.74865 106.745 9.82996C106.985 9.91126 107.205 10.0424 107.391 10.2148C107.577 10.3872 107.725 10.597 107.824 10.8304C107.923 11.0637 107.972 11.3155 107.967 11.569C107.968 11.7932 107.925 12.0153 107.839 12.2225C107.754 12.4297 107.628 12.6178 107.469 12.776C107.31 12.9341 107.122 13.0592 106.914 13.1438C106.707 13.2285 106.484 13.271 106.26 13.269C105.896 13.287 105.537 13.1743 105.248 12.9512C104.959 12.7281 104.759 12.4093 104.684 12.052C104.159 12.174 103.239 12.904 103.239 15.339V18.261C103.239 19.235 103.37 19.6 103.633 19.844C103.985 20.0746 104.395 20.2011 104.815 20.209H104.946C105.052 20.3936 105.097 20.6064 105.077 20.818C105.077 21.183 104.814 21.427 104.289 21.67C103.557 21.8418 102.808 21.9234 102.056 21.913C101.137 21.791 100.349 21.67 99.8231 21.548V21.548ZM76.3121 21.913C74.6619 21.9325 73.0657 21.3249 71.8461 20.213C71.2442 19.6563 70.7686 18.977 70.4513 18.2209C70.1341 17.4649 69.9826 16.6496 70.0071 15.83C70.0173 15.0039 70.1934 14.1882 70.5248 13.4313C70.8563 12.6745 71.3364 11.992 71.9367 11.4243C72.537 10.8565 73.2452 10.4152 74.0193 10.1264C74.7934 9.83756 75.6177 9.7072 76.4431 9.74302C77.2638 9.70924 78.0829 9.8425 78.8506 10.1347C79.6183 10.4269 80.3186 10.872 80.9091 11.443C81.5111 11.9998 81.9867 12.679 82.3039 13.4351C82.6211 14.1912 82.7726 15.0065 82.7481 15.826C82.7726 16.6456 82.6211 17.4609 82.3039 18.2169C81.9867 18.973 81.5111 19.6523 80.9091 20.209C79.6537 21.3437 78.0108 21.9536 76.3191 21.913H76.3121ZM49.1301 16.07C49.0972 14.406 49.7088 12.7936 50.8371 11.57C51.4371 10.9657 52.1552 10.4916 52.9467 10.1774C53.7382 9.86318 54.586 9.71566 55.4371 9.74402C56.1377 9.71192 56.8374 9.82465 57.4924 10.0752C58.1474 10.3257 58.7438 10.7086 59.2441 11.2C60.0075 12.0292 60.4296 13.116 60.4261 14.243C60.4341 14.8332 60.2989 15.4165 60.0321 15.943V16.065H52.4141C52.5451 18.013 53.9901 19.474 56.4861 19.474C57.0468 19.4972 57.6061 19.4011 58.1269 19.192C58.6477 18.9828 59.1181 18.6655 59.5071 18.261L59.6381 18.139L59.7691 18.261C60.0321 18.383 60.1631 18.626 60.1631 19.235C60.1631 20.452 58.5871 22.035 55.3031 22.035C53.6998 22.041 52.1576 21.4209 51.0046 20.3068C49.8516 19.1927 49.1791 17.6726 49.1301 16.07V16.07ZM93.3931 21.427C93.1296 21.1221 92.9891 20.7299 92.9991 20.327L92.4741 20.814C91.62 21.6114 90.4905 22.0476 89.3221 22.031C88.7418 22.0515 88.1633 21.9542 87.6216 21.7451C87.0798 21.5359 86.5861 21.2192 86.1701 20.814C85.1191 19.597 85.1191 18.014 85.1191 15.701V13.513C85.1191 12.661 84.8561 12.296 83.9371 12.296H83.4071V12.174C83.3037 12.034 83.2569 11.8601 83.2761 11.687C83.2761 10.587 84.7211 10.104 85.5091 9.98702C85.7721 9.98702 86.0341 9.86502 86.2971 9.86502C86.5688 9.84708 86.8408 9.89278 87.0917 9.99851C87.3426 10.1042 87.5653 10.2671 87.7421 10.474C88.0243 10.9073 88.1622 11.4187 88.1361 11.935V15.587C88.0857 16.6167 88.2191 17.6471 88.5301 18.63C88.6732 18.9535 88.9162 19.2226 89.2234 19.3978C89.5306 19.5731 89.8859 19.6454 90.2371 19.604C90.622 19.628 91.0064 19.5507 91.352 19.3798C91.6977 19.2089 91.9925 18.9504 92.2071 18.63C92.5927 17.9668 92.7752 17.205 92.7321 16.439V13.513C92.7321 12.661 92.4691 12.296 91.5501 12.296H91.0251V12.174C90.9217 12.034 90.8749 11.8601 90.8941 11.687C90.8941 10.587 92.3391 10.104 93.1271 9.98702C93.3901 9.98702 93.6521 9.86502 93.9151 9.86502C94.1868 9.84708 94.4588 9.89278 94.7097 9.99851C94.9606 10.1042 95.1833 10.2671 95.3601 10.474C95.6423 10.9073 95.7802 11.4187 95.7541 11.935V18.387C95.7541 19.239 96.1481 19.726 96.9361 19.726H97.3301V19.848C97.4336 19.9881 97.4804 20.162 97.4611 20.335C97.4611 21.309 96.0161 21.796 95.2281 21.918C94.9651 21.918 94.7031 22.04 94.4401 22.04C94.0318 21.9603 93.6628 21.7437 93.3941 21.426L93.3931 21.427ZM16.1631 18.139C16.1448 17.6047 16.2688 17.0751 16.5225 16.6045C16.7763 16.1339 17.1506 15.7393 17.6071 15.461C18.715 14.7919 19.9913 14.4539 21.2851 14.487C22.1456 14.4451 23.0033 14.6122 23.7851 14.974V13.635C23.7851 12.296 23.2601 11.565 21.6851 11.565C21.1977 11.6074 20.7145 11.6887 20.2401 11.808C20.2401 12.051 20.3711 12.173 20.3711 12.417C20.387 12.6178 20.3601 12.8197 20.2922 13.0093C20.2243 13.199 20.1169 13.372 19.9771 13.517C19.658 13.8248 19.2325 13.9978 18.7891 14C18.581 14.0019 18.3747 13.9622 18.1822 13.8832C17.9896 13.8042 17.8148 13.6876 17.668 13.5401C17.5212 13.3927 17.4053 13.2174 17.3272 13.0245C17.2491 12.8316 17.2103 12.6251 17.2131 12.417C17.0821 10.834 19.1831 9.73902 21.9411 9.73902C24.0411 9.73902 25.4871 10.226 26.1411 11.078C26.7951 11.93 26.7981 13.026 26.7981 14.608V18.87C26.7981 19.722 27.3231 19.97 28.3741 20.087H28.5071V20.209C28.5071 21.309 27.5881 21.792 26.6681 21.909H26.4071C25.9466 21.9189 25.4926 21.7984 25.0976 21.5615C24.7025 21.3246 24.3824 20.9809 24.1741 20.57C23.1893 21.4245 21.9319 21.8993 20.6281 21.909C18.1331 21.913 16.1631 20.33 16.1631 18.139Z" fill="#32323A"/>
</svg>
