<svg width="110" height="17" viewBox="0 0 110 17" fill="none" xmlns="http://www.w3.org/2000/svg">
<path fill-rule="evenodd" clip-rule="evenodd" d="M109.493 5.53595C109.493 3.8033 108.562 2.53593 107.971 2.02848C107.38 1.52165 106.958 0.549561 100.281 0.549561C93.6049 0.549561 93.0974 1.52103 92.5062 2.02848C91.9138 2.53593 90.9845 3.76112 90.9845 5.49376V11.7469C90.9845 13.4795 91.9138 14.706 92.5062 15.2122C93.0974 15.7196 93.6049 16.6917 100.281 16.6917C106.959 16.6917 107.38 15.7203 107.971 15.2122C108.562 14.706 109.493 13.4795 109.493 11.7469V7.47951H100.28V10.2686H104.168V10.8672C104.168 11.4482 103.937 12.0053 103.526 12.4161C103.115 12.8269 102.558 13.0577 101.977 13.0577H98.4988C98.2113 13.0576 97.9265 13.0009 97.6609 12.8908C97.3952 12.7807 97.1539 12.6193 96.9506 12.4159C96.7473 12.2125 96.586 11.971 96.4761 11.7053C96.3661 11.4396 96.3095 11.1548 96.3096 10.8672V6.37342C96.3095 6.08585 96.3661 5.80107 96.4761 5.53536C96.586 5.26964 96.7473 5.02819 96.9506 4.82479C97.1539 4.62139 97.3952 4.46001 97.6609 4.34989C97.9265 4.23976 98.2113 4.18304 98.4988 4.18296H101.977C102.885 4.18296 103.663 4.73383 103.995 5.5192L109.493 5.53595ZM17.37 3.67613L23.9624 10.7748L34.2739 4.85915V3.63891C34.2739 2.026 32.9662 0.718298 31.3533 0.718298H3.3879C2.6133 0.718298 1.87043 1.02601 1.32271 1.57373C0.774992 2.12145 0.467285 2.86432 0.467285 3.63891V4.85915L10.7788 10.7748L17.37 3.67613Z" fill="#B6B7BE"/>
<path fill-rule="evenodd" clip-rule="evenodd" d="M27.5971 14.0734L34.2739 5.53737V13.6032C34.2739 15.2161 32.9662 16.5232 31.3533 16.5232H3.3879C3.00439 16.5232 2.62462 16.4478 2.27027 16.3011C1.91593 16.1544 1.59396 15.9393 1.32275 15.6681C1.05154 15.397 0.836398 15.0751 0.689616 14.7207C0.542833 14.3664 0.467285 13.9867 0.467285 13.6032V5.53737L7.14412 14.0734H27.5971ZM67.9112 0.719727V16.5244H73.0663V3.84691L78.9826 16.5244H88.2798V0.719727H83.1241V13.481L77.1228 0.719727H67.9112ZM57.5575 0.719727H51.3038L45.0494 7.48093H43.9086V0.719727H38.7529V16.5244H43.9086V10.27H45.5147L51.3882 16.5244H57.8107L50.3317 8.4952L57.5575 0.719727ZM64.4459 16.5244V0.719727H59.2902V16.5244H64.4459Z" fill="#B6B7BE"/>
</svg>
