<svg width="114" height="31" viewBox="0 0 114 31" fill="none" xmlns="http://www.w3.org/2000/svg">
<path fill-rule="evenodd" clip-rule="evenodd" d="M1.71346 25.7046C3.94016 22.0792 6.16686 18.3147 9.08959 14.9672C12.0117 11.4811 14.9345 7.99553 18.135 4.78841C18.6918 4.5094 19.5271 4.37019 20.0833 4.5094C20.7793 4.78841 21.4748 5.06742 21.7532 5.76464L22.1708 13.4335C22.31 13.7125 22.5884 13.4335 22.7276 13.2943C25.5111 11.0634 26.9026 7.57731 29.9645 5.76405C31.356 5.48504 32.6083 5.90326 33.4435 6.87949L33.7219 7.43691L29.1293 26.6796C27.7372 27.5172 26.2066 28.2139 24.5367 28.4929C24.1191 28.4929 23.5622 28.2139 23.2838 27.7951C23.1446 25.983 23.7015 24.0305 23.7015 22.0786C23.4236 21.94 23.1446 22.2185 22.8668 22.3577C20.5009 24.3101 18.4134 26.9586 16.1867 29.0509C14.9339 28.9111 13.8208 28.7719 12.8464 28.3543C12.0117 25.5642 12.9856 22.9151 12.9856 19.9876C12.1503 20.2654 11.5935 21.2422 10.8981 21.94C8.94978 24.4487 7.27931 26.9586 5.33102 29.3299C4.21797 29.6089 3.38273 28.9111 2.6873 28.0741C2.13048 27.378 1.57365 26.6802 1.71346 25.7046ZM39.4282 4.5088C41.3765 3.39336 44.0208 4.09059 45.6912 5.06682C45.2736 5.90325 44.7168 6.87949 44.16 7.57672C43.0469 7.0187 40.9594 6.73969 39.8458 7.57672C38.7321 8.27394 38.5929 9.52918 38.3151 10.7838C38.3151 11.3419 38.7327 12.0391 39.289 12.3175C39.7066 12.7357 40.5418 12.7357 40.9588 13.0147L39.985 15.9428C39.5674 16.3616 38.8713 16.2218 38.3151 16.2218C36.7844 16.0832 35.5316 14.9666 34.8356 13.7119C33.8617 11.0628 35.2532 8.27335 36.923 6.32147C37.6191 5.34583 38.5935 4.92762 39.4282 4.5088ZM46.1083 13.5733C46.9429 13.1545 48.0566 12.8761 49.031 12.5971C48.4742 11.0634 46.9435 9.52978 47.3611 7.43751C48.614 3.39336 52.5106 2.13871 56.4071 1.85971C59.1901 1.7205 61.2776 2.97574 63.365 4.37019V4.5094L60.5821 7.85632C58.4946 7.43811 56.1287 6.04365 53.902 7.15909C53.3452 7.57791 53.0674 8.13533 53.0674 8.83256C53.6242 10.6452 55.4333 11.0634 56.964 11.4817C56.5463 13.0153 55.8503 14.5496 54.8765 15.8048C52.5106 15.665 50.4231 16.3628 49.1708 18.3147C48.8924 19.0113 48.1964 19.9882 48.7532 20.8246C49.8662 21.94 51.5367 21.1036 52.6498 20.6848C53.4844 20.266 54.3196 19.5694 54.7373 18.5937C55.0157 18.4539 55.1549 19.0113 55.2941 19.2903C55.5725 19.7092 55.8509 20.266 56.4077 20.4058C57.3816 17.1993 58.773 14.1308 61.5572 11.8999C62.5316 11.4817 63.7839 11.6209 64.6191 12.1789C64.8969 12.3181 65.1759 12.4579 65.3145 12.8761C64.8969 14.1308 64.2015 15.107 63.6447 16.3622C63.0878 17.6169 62.5316 19.0113 62.948 20.4058C63.3656 20.5456 63.5061 20.9638 63.9225 20.6848C66.5668 18.7323 67.8196 15.665 68.5157 12.5971C68.9333 12.3181 69.0725 11.7607 69.4901 12.0391C70.3242 12.5971 71.0208 13.5733 72.1344 13.7125C73.9429 11.3424 76.4486 9.948 79.6492 10.5054C80.7622 10.7844 81.7367 11.8999 82.0157 13.0153V13.7125C84.5208 13.8517 86.6089 12.7363 88.1396 10.9236C89.3918 10.5054 90.5049 11.2026 91.3401 11.7607V12.3181C90.5049 14.2706 88.835 15.8048 88.556 18.0357C88.2782 18.5937 88.6958 19.0113 89.2526 19.1511C90.3657 19.2897 91.3401 18.4533 91.8969 17.6169C93.9844 15.386 94.8191 12.5971 96.9066 10.3656C97.7418 10.0866 98.5764 10.5048 99.5509 10.5048C99.9685 10.6446 100.525 10.6446 100.804 11.2021L98.4378 16.2218L92.314 28.7719C91.0617 29.1895 90.0872 28.4929 88.9742 27.9355L88.8356 27.6565C88.8356 25.704 89.81 24.3095 90.2265 22.6367C89.6696 22.7765 89.2532 23.1947 88.5566 23.4731C87.4435 24.0311 85.7737 24.5885 84.5214 23.8919C83.6862 23.4731 82.9907 22.6361 82.9907 21.5206C82.9907 19.5682 83.9652 18.0351 84.1038 16.2218C83.6862 16.0832 82.9907 16.0832 82.2941 16.2218C81.3196 19.8472 79.372 23.8919 75.7538 25.425C74.3617 25.983 72.5533 25.5636 71.2998 24.5885C69.6299 22.6361 70.4658 19.8472 70.4658 17.4777C70.4658 17.0589 70.326 16.3622 69.7691 16.2218C69.3527 16.5008 69.2123 16.9197 69.0737 17.3373C67.9606 21.3808 65.0373 25.2864 61.1413 26.4018C59.6107 26.6796 58.3584 26.262 57.3834 25.2864C56.8265 24.7271 56.4095 24.1709 55.9919 23.4731C53.626 24.7277 51.3993 26.262 48.6158 26.82C46.3885 27.378 43.3271 27.378 41.5181 25.9836C40.2652 25.008 39.709 23.4737 40.126 21.6616C40.681 18.1743 43.0469 15.107 46.1083 13.5733ZM74.0821 19.2903C74.3599 19.8484 74.4986 20.5462 75.0566 20.8246C75.473 21.1036 76.1696 20.9632 76.7264 20.8246C77.8395 20.1268 78.1173 18.5937 78.1173 17.1993C77.1429 17.0595 76.1696 16.5014 75.473 15.665C74.9162 16.6412 74.0821 17.7567 74.0821 19.2903Z" fill="#B6B7BE" stroke="#B6B7BE" stroke-width="1.74509" stroke-miterlimit="2.613"/>
<path fill-rule="evenodd" clip-rule="evenodd" d="M109.292 18.0353C111.657 18.0353 113.467 16.222 113.467 13.8513C113.467 11.6204 111.657 9.66797 109.292 9.66797C107.065 9.66797 105.117 11.6204 105.117 13.8513C105.117 16.222 107.065 18.0353 109.292 18.0353ZM109.292 17.3375C107.622 17.3375 106.092 15.8044 106.092 13.8513C106.092 11.8989 107.622 10.5044 109.292 10.5044C111.101 10.5044 112.493 11.8989 112.493 13.8513C112.493 15.8044 111.101 17.3375 109.292 17.3375ZM107.761 16.222H108.595V14.2695H109.152L110.405 16.222H111.24L109.987 14.1303C110.682 14.1303 111.24 13.7121 111.24 12.8757C111.24 11.8995 110.544 11.4812 109.431 11.4812H107.761V16.222ZM108.596 12.1785H109.431C109.848 12.1785 110.266 12.3177 110.266 12.8757C110.266 13.4331 109.848 13.5729 109.292 13.5729H108.595V12.1785H108.596Z" fill="#B6B7BE"/>
</svg>
