<svg width="384" height="544" viewBox="0 0 384 544" fill="none" xmlns="http://www.w3.org/2000/svg">
<g clip-path="url(#clip0_135_892)">
<path d="M8 24C8 15.1634 15.1634 8 24 8H384V544H8V24Z" fill="white"/>
<rect x="177" y="415.5" width="265" height="27" rx="4" fill="#EFF7FF"/>
<rect x="177" y="361" width="166" height="27" rx="4" fill="#EFF7FF"/>
<rect x="177" y="470" width="166" height="27" rx="4" fill="#EFF7FF"/>
<g clip-path="url(#clip1_135_892)">
<path d="M307.381 171.116L309.439 164.564L311.497 171.116H313.023L316.341 161.316H314.423L312.295 168.106L310.209 161.316H308.669L306.597 168.106L304.455 161.316H302.523L305.841 171.116H307.381ZM319.628 163.626C318.62 163.626 317.78 163.99 317.094 164.732C316.422 165.46 316.086 166.37 316.086 167.476C316.086 168.582 316.422 169.492 317.094 170.234C317.78 170.962 318.62 171.326 319.628 171.326C320.454 171.326 321.196 171.06 321.84 170.542V171.116H323.576V163.836H321.84V164.41C321.196 163.892 320.454 163.626 319.628 163.626ZM321.238 165.978C321.616 166.384 321.812 166.874 321.812 167.476C321.812 168.078 321.616 168.568 321.238 168.974C320.86 169.38 320.398 169.576 319.852 169.576C319.306 169.576 318.83 169.38 318.452 168.974C318.074 168.568 317.892 168.078 317.892 167.476C317.892 166.874 318.074 166.384 318.452 165.978C318.83 165.572 319.306 165.376 319.852 165.376C320.398 165.376 320.86 165.572 321.238 165.978ZM327.091 171.116V160.616H325.341V171.116H327.091ZM330.612 171.116V160.616H328.862V171.116H330.612ZM339.704 168.12C339.746 167.84 339.76 167.63 339.76 167.476C339.76 166.384 339.396 165.474 338.654 164.732C337.926 163.99 337.016 163.626 335.938 163.626C334.86 163.626 333.95 163.99 333.208 164.732C332.48 165.46 332.116 166.37 332.116 167.476C332.116 168.582 332.494 169.492 333.236 170.234C333.992 170.962 334.93 171.326 336.05 171.326C337.52 171.326 338.78 170.598 339.452 169.436L337.758 168.946C337.338 169.464 336.764 169.716 336.05 169.716C335.028 169.716 334.188 169.072 333.922 168.12H339.704ZM333.936 166.762C334.202 165.852 335 165.236 335.91 165.236C336.862 165.236 337.674 165.852 337.954 166.762H333.936ZM340.509 165.362H341.545V168.82C341.545 169.478 341.783 170.024 342.259 170.458C342.735 170.892 343.323 171.116 344.023 171.116H345.101V169.45H344.191C343.673 169.45 343.295 169.072 343.295 168.568V165.362H345.101V163.836H343.295V162.408H341.545V163.836H340.509V165.362ZM355.449 171.116C356.345 171.116 357.101 170.85 357.703 170.318C358.305 169.772 358.613 169.114 358.613 168.316C358.613 167.294 358.151 166.51 357.241 165.964C357.871 165.446 358.193 164.788 358.193 163.99C358.193 163.22 357.899 162.59 357.325 162.086C356.751 161.568 356.037 161.316 355.169 161.316H350.423V171.116H355.449ZM355.449 166.944C356.135 166.944 356.653 167.476 356.653 168.162C356.653 168.848 356.135 169.38 355.449 169.38H352.299V166.944H355.449ZM355.169 163.052C355.785 163.052 356.247 163.514 356.247 164.13C356.247 164.76 355.785 165.222 355.169 165.222H352.299V163.052H355.169ZM363.315 163.626C362.307 163.626 361.467 163.99 360.781 164.732C360.109 165.46 359.773 166.37 359.773 167.476C359.773 168.582 360.109 169.492 360.781 170.234C361.467 170.962 362.307 171.326 363.315 171.326C364.141 171.326 364.883 171.06 365.527 170.542V171.116H367.263V163.836H365.527V164.41C364.883 163.892 364.141 163.626 363.315 163.626ZM364.925 165.978C365.303 166.384 365.499 166.874 365.499 167.476C365.499 168.078 365.303 168.568 364.925 168.974C364.547 169.38 364.085 169.576 363.539 169.576C362.993 169.576 362.517 169.38 362.139 168.974C361.761 168.568 361.579 168.078 361.579 167.476C361.579 166.874 361.761 166.384 362.139 165.978C362.517 165.572 362.993 165.376 363.539 165.376C364.085 165.376 364.547 165.572 364.925 165.978ZM370.778 171.116V160.616H369.028V171.116H370.778ZM375.824 163.626C374.816 163.626 373.976 163.99 373.29 164.732C372.618 165.46 372.282 166.37 372.282 167.476C372.282 168.582 372.618 169.492 373.29 170.234C373.976 170.962 374.816 171.326 375.824 171.326C376.65 171.326 377.392 171.06 378.036 170.542V171.116H379.772V163.836H378.036V164.41C377.392 163.892 376.65 163.626 375.824 163.626ZM377.434 165.978C377.812 166.384 378.008 166.874 378.008 167.476C378.008 168.078 377.812 168.568 377.434 168.974C377.056 169.38 376.594 169.576 376.048 169.576C375.502 169.576 375.026 169.38 374.648 168.974C374.27 168.568 374.088 168.078 374.088 167.476C374.088 166.874 374.27 166.384 374.648 165.978C375.026 165.572 375.502 165.376 376.048 165.376C376.594 165.376 377.056 165.572 377.434 165.978ZM381.537 171.116H383.287V166.958C383.287 166.006 384.001 165.292 384.953 165.292C385.891 165.292 386.591 166.006 386.591 166.958V171.116H388.341V166.468C388.341 165.656 388.061 164.984 387.515 164.438C386.969 163.892 386.297 163.626 385.471 163.626C384.547 163.626 383.819 163.99 383.287 164.718V163.836H381.537V171.116ZM397.284 166.034C396.724 164.578 395.352 163.626 393.686 163.626C392.58 163.626 391.67 163.99 390.928 164.732C390.2 165.46 389.836 166.37 389.836 167.476C389.836 168.582 390.2 169.492 390.928 170.234C391.67 170.962 392.58 171.326 393.686 171.326C395.352 171.326 396.724 170.374 397.284 168.918L395.534 168.4C395.212 169.128 394.512 169.576 393.686 169.576C393.112 169.576 392.622 169.38 392.23 168.974C391.838 168.568 391.642 168.078 391.642 167.476C391.642 166.874 391.838 166.384 392.23 165.978C392.622 165.572 393.112 165.376 393.686 165.376C394.512 165.376 395.212 165.824 395.534 166.552L397.284 166.034ZM405.962 168.12C406.004 167.84 406.018 167.63 406.018 167.476C406.018 166.384 405.654 165.474 404.912 164.732C404.184 163.99 403.274 163.626 402.196 163.626C401.118 163.626 400.208 163.99 399.466 164.732C398.738 165.46 398.374 166.37 398.374 167.476C398.374 168.582 398.752 169.492 399.494 170.234C400.25 170.962 401.188 171.326 402.308 171.326C403.778 171.326 405.038 170.598 405.71 169.436L404.016 168.946C403.596 169.464 403.022 169.716 402.308 169.716C401.286 169.716 400.446 169.072 400.18 168.12H405.962ZM400.194 166.762C400.46 165.852 401.258 165.236 402.168 165.236C403.12 165.236 403.932 165.852 404.212 166.762H400.194Z" fill="#A4A7B0"/>
<path d="M293.573 205.116V197.212H291.717V194.844H293.573V192.54H291.717V190.172H293.573V182.268H298.597L301.093 190.172H304.005V182.268H307.557V190.172H309.381V192.54H307.557V194.844H309.381V197.212H307.557V205.116H302.501L299.941 197.212H297.125V205.116H293.573ZM297.125 194.844H299.237L298.533 192.54H297.061L297.125 194.844ZM304.101 200.124H304.261L304.133 197.212H303.269L304.101 200.124ZM296.997 190.172H297.893L296.965 187.1H296.837L296.997 190.172ZM302.597 194.844H304.069L304.005 192.54H301.861L302.597 194.844ZM317.357 187.804V205.116H321.517V182.716H318.541L311.757 186.076L313.485 189.724L317.357 187.804ZM338.223 188.956C338.223 190.62 336.431 191.804 334.127 191.804H332.975V195.548H334.671C336.975 195.548 338.799 196.828 338.799 198.524C338.799 200.316 336.975 201.628 334.575 201.628C332.431 201.628 330.831 200.604 330.351 199.164L326.351 200.572C326.895 202.076 327.919 203.292 329.391 204.22C330.895 205.148 332.623 205.596 334.607 205.596C337.007 205.596 339.023 204.956 340.655 203.644C342.287 202.332 343.087 200.668 343.087 198.716C343.087 196.508 342.095 194.78 340.111 193.5C341.711 192.252 342.511 190.716 342.511 188.828C342.511 186.94 341.743 185.372 340.207 184.124C338.671 182.876 336.719 182.236 334.383 182.236C330.895 182.236 327.951 183.868 326.639 186.428L330.415 188.22C331.023 187.036 332.463 186.204 334.351 186.204C336.623 186.204 338.223 187.42 338.223 188.956ZM357.677 205.116H361.805V200.828H364.653V196.86H361.805V182.716H357.869L346.061 196.86V200.828H357.677V205.116ZM357.677 188.892V196.86H351.021L357.677 188.892ZM372.543 203.964C372.543 202.012 371.423 200.604 369.791 200.604C368.351 200.604 367.295 201.66 367.295 203.036C367.295 204.284 368.191 205.34 369.343 205.564C369.343 206.172 368.735 207.068 367.519 208.316L368.799 209.628C371.295 207.964 372.543 206.076 372.543 203.964ZM375.66 197.532C375.66 199.836 376.492 201.756 378.124 203.292C379.788 204.828 381.868 205.596 384.332 205.596C386.796 205.596 388.876 204.828 390.508 203.292C392.172 201.756 393.004 199.836 393.004 197.532V190.3C393.004 187.996 392.172 186.076 390.508 184.54C388.876 183.004 386.796 182.236 384.332 182.236C381.868 182.236 379.788 183.004 378.124 184.54C376.492 186.076 375.66 187.996 375.66 190.3V197.532ZM379.82 190.236C379.82 189.116 380.236 188.156 381.1 187.388C381.964 186.588 383.052 186.204 384.332 186.204C385.612 186.204 386.7 186.588 387.564 187.388C388.428 188.156 388.876 189.116 388.876 190.236V197.596C388.876 198.716 388.428 199.676 387.564 200.476C386.7 201.244 385.612 201.628 384.332 201.628C383.052 201.628 381.964 201.244 381.1 200.476C380.236 199.676 379.82 198.716 379.82 197.596V190.236ZM396.394 197.532C396.394 199.836 397.226 201.756 398.858 203.292C400.522 204.828 402.602 205.596 405.066 205.596C407.53 205.596 409.61 204.828 411.242 203.292C412.906 201.756 413.738 199.836 413.738 197.532V190.3C413.738 187.996 412.906 186.076 411.242 184.54C409.61 183.004 407.53 182.236 405.066 182.236C402.602 182.236 400.522 183.004 398.858 184.54C397.226 186.076 396.394 187.996 396.394 190.3V197.532ZM400.554 190.236C400.554 189.116 400.97 188.156 401.834 187.388C402.698 186.588 403.786 186.204 405.066 186.204C406.346 186.204 407.434 186.588 408.298 187.388C409.162 188.156 409.61 189.116 409.61 190.236V197.596C409.61 198.716 409.162 199.676 408.298 200.476C407.434 201.244 406.346 201.628 405.066 201.628C403.786 201.628 402.698 201.244 401.834 200.476C400.97 199.676 400.554 198.716 400.554 197.596V190.236ZM417.128 197.532C417.128 199.836 417.96 201.756 419.592 203.292C421.256 204.828 423.336 205.596 425.8 205.596C428.264 205.596 430.344 204.828 431.976 203.292C433.64 201.756 434.472 199.836 434.472 197.532V190.3C434.472 187.996 433.64 186.076 431.976 184.54C430.344 183.004 428.264 182.236 425.8 182.236C423.336 182.236 421.256 183.004 419.592 184.54C417.96 186.076 417.128 187.996 417.128 190.3V197.532ZM421.288 190.236C421.288 189.116 421.704 188.156 422.568 187.388C423.432 186.588 424.52 186.204 425.8 186.204C427.08 186.204 428.168 186.588 429.032 187.388C429.896 188.156 430.344 189.116 430.344 190.236V197.596C430.344 198.716 429.896 199.676 429.032 200.476C428.168 201.244 427.08 201.628 425.8 201.628C424.52 201.628 423.432 201.244 422.568 200.476C421.704 199.676 421.288 198.716 421.288 197.596V190.236ZM442.821 203.964C442.821 202.012 441.701 200.604 440.069 200.604C438.629 200.604 437.573 201.66 437.573 203.036C437.573 204.284 438.469 205.34 439.621 205.564C439.621 206.172 439.013 207.068 437.797 208.316L439.077 209.628C441.573 207.964 442.821 206.076 442.821 203.964ZM445.939 197.532C445.939 199.836 446.771 201.756 448.403 203.292C450.067 204.828 452.147 205.596 454.611 205.596C457.075 205.596 459.155 204.828 460.787 203.292C462.451 201.756 463.283 199.836 463.283 197.532V190.3C463.283 187.996 462.451 186.076 460.787 184.54C459.155 183.004 457.075 182.236 454.611 182.236C452.147 182.236 450.067 183.004 448.403 184.54C446.771 186.076 445.939 187.996 445.939 190.3V197.532ZM450.099 190.236C450.099 189.116 450.515 188.156 451.379 187.388C452.243 186.588 453.331 186.204 454.611 186.204C455.891 186.204 456.979 186.588 457.843 187.388C458.707 188.156 459.155 189.116 459.155 190.236V197.596C459.155 198.716 458.707 199.676 457.843 200.476C456.979 201.244 455.891 201.628 454.611 201.628C453.331 201.628 452.243 201.244 451.379 200.476C450.515 199.676 450.099 198.716 450.099 197.596V190.236ZM466.673 197.532C466.673 199.836 467.505 201.756 469.137 203.292C470.801 204.828 472.881 205.596 475.345 205.596C477.809 205.596 479.889 204.828 481.521 203.292C483.185 201.756 484.017 199.836 484.017 197.532V190.3C484.017 187.996 483.185 186.076 481.521 184.54C479.889 183.004 477.809 182.236 475.345 182.236C472.881 182.236 470.801 183.004 469.137 184.54C467.505 186.076 466.673 187.996 466.673 190.3V197.532ZM470.833 190.236C470.833 189.116 471.249 188.156 472.113 187.388C472.977 186.588 474.065 186.204 475.345 186.204C476.625 186.204 477.713 186.588 478.577 187.388C479.441 188.156 479.889 189.116 479.889 190.236V197.596C479.889 198.716 479.441 199.676 478.577 200.476C477.713 201.244 476.625 201.628 475.345 201.628C474.065 201.628 472.977 201.244 472.113 200.476C471.249 199.676 470.833 198.716 470.833 197.596V190.236ZM487.406 197.532C487.406 199.836 488.238 201.756 489.87 203.292C491.534 204.828 493.614 205.596 496.078 205.596C498.542 205.596 500.622 204.828 502.254 203.292C503.918 201.756 504.75 199.836 504.75 197.532V190.3C504.75 187.996 503.918 186.076 502.254 184.54C500.622 183.004 498.542 182.236 496.078 182.236C493.614 182.236 491.534 183.004 489.87 184.54C488.238 186.076 487.406 187.996 487.406 190.3V197.532ZM491.566 190.236C491.566 189.116 491.982 188.156 492.846 187.388C493.71 186.588 494.798 186.204 496.078 186.204C497.358 186.204 498.446 186.588 499.31 187.388C500.174 188.156 500.622 189.116 500.622 190.236V197.596C500.622 198.716 500.174 199.676 499.31 200.476C498.446 201.244 497.358 201.628 496.078 201.628C494.798 201.628 493.71 201.244 492.846 200.476C491.982 199.676 491.566 198.716 491.566 197.596V190.236Z" fill="#101010"/>
<path d="M164.656 270.225L158.874 261.04V330.627H471.126V235.09L465.344 231.071C459.561 227.051 447.996 219.012 436.431 223.379C424.866 227.745 413.302 244.516 401.737 245.919C390.172 247.322 378.607 233.356 367.042 239.477C355.477 245.598 343.912 271.805 332.347 272.162C320.782 272.519 309.218 247.025 297.653 243.842C286.088 240.659 274.523 259.786 262.958 271.076C251.393 282.365 239.828 285.817 228.263 292.023C216.698 298.23 205.134 307.191 193.569 302.486C182.004 297.781 170.439 279.41 164.656 270.225Z" fill="url(#paint0_linear_135_892)"/>
<path d="M158.874 261.04L164.656 270.225C170.439 279.411 182.004 297.781 193.569 302.486C205.134 307.191 216.698 298.23 228.263 292.023C239.828 285.817 251.393 282.365 262.958 271.076C274.523 259.786 286.088 240.659 297.653 243.842C309.218 247.025 320.782 272.519 332.347 272.162C343.912 271.805 355.477 245.598 367.042 239.477C378.607 233.356 390.172 247.322 401.737 245.919C413.302 244.516 424.866 227.745 436.431 223.379C447.996 219.012 459.561 227.051 465.344 231.071L471.126 235.09" stroke="#7D5FFF" stroke-width="2"/>
</g>
<rect x="177" y="133.5" width="276" height="187" rx="4" stroke="#EFF7FF" stroke-width="2"/>
<rect width="122" height="470" transform="translate(8 74)" fill="#EFF7FF"/>
<path d="M51.6913 146.634C51.6913 151.872 47.2484 156.116 41.7687 156.116V137.153C47.2484 137.15 51.6913 141.396 51.6913 146.634Z" fill="#0A1B2B"/>
<path d="M77.0421 122.403V141.366C71.5625 141.366 67.1228 137.119 67.1228 131.884C67.1228 126.65 71.5625 122.403 77.0421 122.403Z" fill="#0A1B2B"/>
<path d="M77.0421 146.243V156.035C76.4083 156.088 75.7648 156.116 75.1148 156.116C67.0838 156.116 59.3843 151.54 56.0692 144.506C54.9706 142.176 54.3531 139.648 53.1018 137.389C51.2362 134.015 47.6676 132.117 43.6927 132.117C43.0362 132.117 42.3959 132.173 41.7687 132.275C41.7687 132.275 41.7687 122.486 41.7687 122.483C41.7687 122.098 47.4759 122.751 47.9439 122.847C50.1832 123.304 52.338 124.124 54.3076 125.233C58.2467 127.451 61.4871 130.859 63.1869 134.938C64.1554 137.259 64.6754 139.781 66.1022 141.878C68.0458 144.733 71.5754 146.404 75.1115 146.404C75.7713 146.401 76.4181 146.345 77.0421 146.243Z" fill="#0A1B2B"/>
<path d="M44.4864 227V223.496H48.6024V227H50.2224V218.6H48.6024V222.008H44.4864V218.6H42.8784V227H44.4864ZM52.3769 226.244C53.0129 226.868 53.7929 227.18 54.7409 227.18C55.6889 227.18 56.4689 226.868 57.1049 226.244C57.7409 225.608 58.0529 224.828 58.0529 223.88C58.0529 222.932 57.7409 222.152 57.1049 221.528C56.4689 220.892 55.6889 220.58 54.7409 220.58C53.7929 220.58 53.0129 220.892 52.3769 221.528C51.7529 222.152 51.4409 222.932 51.4409 223.88C51.4409 224.828 51.7529 225.608 52.3769 226.244ZM53.4929 222.596C53.8289 222.248 54.2489 222.08 54.7409 222.08C55.2329 222.08 55.6529 222.248 55.9889 222.596C56.3249 222.944 56.4929 223.364 56.4929 223.88C56.4929 224.396 56.3249 224.816 55.9889 225.164C55.6529 225.512 55.2329 225.68 54.7409 225.68C54.2489 225.68 53.8289 225.512 53.4929 225.164C53.1569 224.816 52.9889 224.396 52.9889 223.88C52.9889 223.364 53.1569 222.944 53.4929 222.596ZM60.7069 227V223.328C60.7069 222.572 61.2829 222.008 62.0149 222.008C62.7469 222.008 63.3109 222.572 63.3109 223.328V227H64.8109V223.328C64.8109 222.572 65.3869 222.008 66.1189 222.008C66.8509 222.008 67.4149 222.572 67.4149 223.328V227H68.9029V222.896C68.9029 222.236 68.6629 221.684 68.1949 221.24C67.7269 220.796 67.1389 220.58 66.4189 220.58C65.5429 220.58 64.8709 220.916 64.4269 221.6C63.9829 220.916 63.3229 220.58 62.4589 220.58C61.7269 220.58 61.1389 220.856 60.7069 221.42V220.76H59.2069V227H60.7069ZM76.5716 224.432C76.6076 224.192 76.6196 224.012 76.6196 223.88C76.6196 222.944 76.3076 222.164 75.6716 221.528C75.0476 220.892 74.2676 220.58 73.3436 220.58C72.4196 220.58 71.6396 220.892 71.0036 221.528C70.3796 222.152 70.0676 222.932 70.0676 223.88C70.0676 224.828 70.3916 225.608 71.0276 226.244C71.6756 226.868 72.4796 227.18 73.4396 227.18C74.6996 227.18 75.7796 226.556 76.3556 225.56L74.9036 225.14C74.5436 225.584 74.0516 225.8 73.4396 225.8C72.5636 225.8 71.8436 225.248 71.6156 224.432H76.5716ZM71.6276 223.268C71.8556 222.488 72.5396 221.96 73.3196 221.96C74.1356 221.96 74.8316 222.488 75.0716 223.268H71.6276Z" fill="#8BA4BC"/>
<path d="M44.5467 355V351.496H48.6627V355H50.2827V346.6H48.6627V350.008H44.5467V346.6H42.9387V355H44.5467ZM53.2291 355V348.76H51.7291V355H53.2291ZM52.4731 348.208C53.0371 348.208 53.4331 347.788 53.4331 347.248C53.4331 346.708 53.0131 346.3 52.4731 346.3C51.9331 346.3 51.5251 346.708 51.5251 347.248C51.5251 347.788 51.9331 348.208 52.4731 348.208ZM59.2465 350.26C59.0905 349.216 58.2145 348.58 56.8585 348.58C55.4305 348.58 54.4465 349.216 54.4465 350.524C54.4465 351.4 54.8785 351.916 55.9345 352.264L57.2185 352.672C57.6865 352.828 57.9145 353.032 57.9145 353.272C57.9145 353.656 57.4825 353.884 56.9065 353.884C56.2225 353.884 55.7905 353.584 55.6825 353.14L54.2785 353.344C54.4585 354.484 55.3705 355.18 56.8705 355.18C58.3105 355.18 59.3425 354.52 59.3425 353.224C59.3425 352.324 58.8625 351.748 57.7105 351.352L56.4265 350.92C56.0545 350.788 55.8745 350.62 55.8745 350.416C55.8745 350.068 56.2585 349.876 56.7505 349.876C57.3505 349.876 57.7105 350.08 57.8425 350.488L59.2465 350.26ZM59.9258 350.068H60.8138V353.032C60.8138 353.596 61.0178 354.064 61.4258 354.436C61.8338 354.808 62.3378 355 62.9378 355H63.8618V353.572H63.0818C62.6378 353.572 62.3138 353.248 62.3138 352.816V350.068H63.8618V348.76H62.3138V347.536H60.8138V348.76H59.9258V350.068ZM65.6174 354.244C66.2534 354.868 67.0334 355.18 67.9814 355.18C68.9294 355.18 69.7094 354.868 70.3454 354.244C70.9814 353.608 71.2934 352.828 71.2934 351.88C71.2934 350.932 70.9814 350.152 70.3454 349.528C69.7094 348.892 68.9294 348.58 67.9814 348.58C67.0334 348.58 66.2534 348.892 65.6174 349.528C64.9934 350.152 64.6814 350.932 64.6814 351.88C64.6814 352.828 64.9934 353.608 65.6174 354.244ZM66.7334 350.596C67.0694 350.248 67.4894 350.08 67.9814 350.08C68.4734 350.08 68.8934 350.248 69.2294 350.596C69.5654 350.944 69.7334 351.364 69.7334 351.88C69.7334 352.396 69.5654 352.816 69.2294 353.164C68.8934 353.512 68.4734 353.68 67.9814 353.68C67.4894 353.68 67.0694 353.512 66.7334 353.164C66.3974 352.816 66.2294 352.396 66.2294 351.88C66.2294 351.364 66.3974 350.944 66.7334 350.596ZM73.9474 348.76H72.4474V355H73.9474V351.568C73.9474 350.74 74.5594 350.116 75.3874 350.116C75.6034 350.116 75.8074 350.164 75.9994 350.248V348.58C75.0634 348.58 74.3794 348.892 73.9474 349.528V348.76ZM78.6425 355.312C78.3905 355.948 77.9105 356.272 77.1905 356.272H76.9505V357.7H77.1905C78.5705 357.7 79.3865 357.124 79.9145 355.816L82.7345 348.76H81.1865L79.5545 352.972L77.9585 348.76H76.4105L78.8105 354.88L78.6425 355.312Z" fill="#8BA4BC"/>
<rect x="42.0421" y="281" width="65" height="13" rx="4" fill="#DDEEFF"/>
<rect x="42.0421" y="409" width="50" height="13" rx="4" fill="#DDEEFF"/>
<rect x="42.0421" y="470" width="64" height="13" rx="4" fill="#DDEEFF"/>
<rect width="376" height="80" transform="translate(8 8)" fill="#F4F6F8"/>
<circle cx="48" cy="48" r="8" fill="#FF3A3C"/>
<circle cx="84" cy="48" r="8" fill="#B6B7BE"/>
<circle cx="120" cy="48" r="8" fill="#2ED573"/>
<path d="M211 40C211 35.5817 214.582 32 219 32H384V64H219C214.582 64 211 60.4183 211 56V40Z" fill="#CCE3FF"/>
<path d="M233.667 46.6668H234.333C234.51 46.6668 234.68 46.7371 234.805 46.8621C234.93 46.9871 235 47.1567 235 47.3335V54.0002C235 54.177 234.93 54.3465 234.805 54.4716C234.68 54.5966 234.51 54.6668 234.333 54.6668H223.667C223.49 54.6668 223.32 54.5966 223.195 54.4716C223.07 54.3465 223 54.177 223 54.0002V47.3335C223 47.1567 223.07 46.9871 223.195 46.8621C223.32 46.7371 223.49 46.6668 223.667 46.6668H224.333V46.0002C224.333 45.3873 224.454 44.7805 224.689 44.2143C224.923 43.6481 225.267 43.1337 225.7 42.7003C226.134 42.267 226.648 41.9232 227.214 41.6887C227.78 41.4542 228.387 41.3335 229 41.3335C229.613 41.3335 230.22 41.4542 230.786 41.6887C231.352 41.9232 231.866 42.267 232.3 42.7003C232.733 43.1337 233.077 43.6481 233.311 44.2143C233.546 44.7805 233.667 45.3873 233.667 46.0002V46.6668ZM232.333 46.6668V46.0002C232.333 45.1161 231.982 44.2683 231.357 43.6431C230.732 43.018 229.884 42.6668 229 42.6668C228.116 42.6668 227.268 43.018 226.643 43.6431C226.018 44.2683 225.667 45.1161 225.667 46.0002V46.6668H232.333ZM228.333 49.3335V52.0002H229.667V49.3335H228.333Z" fill="#74859C"/>
<path d="M249.097 52L250.861 46.68L252.625 52H253.647L256.139 44.72H254.949L253.157 50.194L251.379 44.72H250.343L248.565 50.18L246.787 44.72H245.597L248.075 52H249.097ZM260.161 52L261.925 46.68L263.689 52H264.711L267.203 44.72H266.013L264.221 50.194L262.443 44.72H261.407L259.629 50.18L257.851 44.72H256.661L259.139 52H260.161ZM271.225 52L272.989 46.68L274.753 52H275.775L278.267 44.72H277.077L275.285 50.194L273.507 44.72H272.471L270.693 50.18L268.915 44.72H267.725L270.203 52H271.225ZM280.152 51.314C280.152 50.852 279.802 50.474 279.312 50.474C278.822 50.474 278.472 50.824 278.472 51.314C278.472 51.804 278.822 52.154 279.312 52.154C279.802 52.154 280.152 51.804 280.152 51.314ZM281.942 52H283.118V47.8C283.118 47.198 283.342 46.708 283.776 46.302C284.21 45.896 284.756 45.686 285.386 45.686C285.974 45.686 286.464 45.882 286.856 46.288C287.262 46.694 287.458 47.184 287.458 47.772V52H288.634V47.464C288.634 46.638 288.354 45.938 287.794 45.392C287.248 44.846 286.548 44.566 285.708 44.566C284.546 44.566 283.692 45.028 283.118 45.938V44.72H281.942V52ZM291.436 51.076C292.164 51.79 293.074 52.154 294.152 52.154C295.23 52.154 296.14 51.79 296.868 51.076C297.596 50.348 297.96 49.438 297.96 48.36C297.96 47.282 297.596 46.372 296.868 45.658C296.14 44.93 295.23 44.566 294.152 44.566C293.074 44.566 292.164 44.93 291.436 45.658C290.722 46.372 290.358 47.282 290.358 48.36C290.358 49.438 290.722 50.348 291.436 51.076ZM294.152 50.978C293.424 50.978 292.808 50.726 292.318 50.236C291.828 49.732 291.576 49.102 291.576 48.36C291.576 47.618 291.828 46.988 292.318 46.498C292.808 45.994 293.424 45.742 294.152 45.742C294.894 45.742 295.51 45.994 296 46.498C296.49 46.988 296.742 47.618 296.742 48.36C296.742 49.102 296.49 49.732 296 50.236C295.51 50.726 294.894 50.978 294.152 50.978ZM302.914 44.566C301.892 44.566 301.038 44.93 300.352 45.658C299.666 46.372 299.33 47.282 299.33 48.36C299.33 49.438 299.666 50.348 300.352 51.076C301.038 51.79 301.892 52.154 302.914 52.154C303.992 52.154 304.888 51.762 305.574 50.964V52H306.75V41.5H305.574V45.756C304.888 44.958 303.992 44.566 302.914 44.566ZM303.04 45.742C303.754 45.742 304.342 45.994 304.818 46.498C305.308 46.988 305.546 47.618 305.546 48.36C305.546 49.102 305.308 49.732 304.818 50.236C304.342 50.726 303.754 50.978 303.04 50.978C302.34 50.978 301.752 50.726 301.262 50.236C300.786 49.732 300.548 49.102 300.548 48.36C300.548 47.618 300.786 46.988 301.262 46.498C301.752 45.994 302.34 45.742 303.04 45.742ZM315.76 46.764C315.158 45.42 313.856 44.566 312.288 44.566C311.21 44.566 310.3 44.93 309.572 45.658C308.858 46.372 308.494 47.282 308.494 48.36C308.494 49.438 308.858 50.348 309.572 51.076C310.3 51.79 311.21 52.154 312.288 52.154C313.856 52.154 315.158 51.3 315.76 49.956L314.584 49.606C314.15 50.446 313.296 50.978 312.288 50.978C311.56 50.978 310.944 50.726 310.454 50.236C309.964 49.732 309.712 49.102 309.712 48.36C309.712 47.618 309.964 46.988 310.454 46.498C310.944 45.994 311.56 45.742 312.288 45.742C313.296 45.742 314.15 46.274 314.584 47.114L315.76 46.764ZM318.568 47.884C318.568 47.282 318.792 46.792 319.226 46.386C319.66 45.98 320.206 45.784 320.836 45.784C321.032 45.784 321.2 45.812 321.354 45.868V44.566H321.158C319.982 44.566 319.114 45.028 318.568 45.952V44.72H317.392V52H318.568V47.884ZM329.539 48.766C329.553 48.584 329.567 48.444 329.567 48.36C329.567 47.282 329.203 46.372 328.489 45.658C327.775 44.93 326.879 44.566 325.815 44.566C324.751 44.566 323.855 44.93 323.141 45.658C322.427 46.372 322.063 47.282 322.063 48.36C322.063 49.438 322.427 50.348 323.169 51.076C323.911 51.79 324.835 52.154 325.941 52.154C327.355 52.154 328.573 51.468 329.245 50.362L328.097 49.998C327.579 50.698 326.865 51.048 325.941 51.048C325.241 51.048 324.639 50.838 324.149 50.404C323.659 49.97 323.365 49.424 323.281 48.766H329.539ZM323.295 47.814C323.407 47.184 323.687 46.666 324.149 46.26C324.611 45.854 325.157 45.658 325.787 45.658C326.431 45.658 326.991 45.854 327.467 46.26C327.943 46.666 328.237 47.184 328.349 47.814H323.295ZM334.414 44.566C333.392 44.566 332.538 44.93 331.852 45.658C331.166 46.372 330.83 47.282 330.83 48.36C330.83 49.438 331.166 50.348 331.852 51.076C332.538 51.79 333.392 52.154 334.414 52.154C335.492 52.154 336.388 51.762 337.074 50.964V52H338.25V41.5H337.074V45.756C336.388 44.958 335.492 44.566 334.414 44.566ZM334.54 45.742C335.254 45.742 335.842 45.994 336.318 46.498C336.808 46.988 337.046 47.618 337.046 48.36C337.046 49.102 336.808 49.732 336.318 50.236C335.842 50.726 335.254 50.978 334.54 50.978C333.84 50.978 333.252 50.726 332.762 50.236C332.286 49.732 332.048 49.102 332.048 48.36C332.048 47.618 332.286 46.988 332.762 46.498C333.252 45.994 333.84 45.742 334.54 45.742ZM341.547 52V44.72H340.371V52H341.547ZM340.371 43.53C340.693 43.824 341.225 43.824 341.547 43.53C341.869 43.208 341.869 42.662 341.547 42.368C341.225 42.046 340.693 42.046 340.371 42.368C340.077 42.662 340.077 43.208 340.371 43.53ZM342.885 45.756H344.061V49.858C344.061 50.46 344.271 50.978 344.677 51.384C345.083 51.79 345.601 52 346.203 52H347.267V50.866H346.287C345.685 50.866 345.237 50.376 345.237 49.718V45.756H347.267V44.72H345.237V43.264H344.061V44.72H342.885V45.756ZM350.239 51.314C350.239 50.852 349.889 50.474 349.399 50.474C348.909 50.474 348.559 50.824 348.559 51.314C348.559 51.804 348.909 52.154 349.399 52.154C349.889 52.154 350.239 51.804 350.239 51.314ZM358.576 46.764C357.974 45.42 356.672 44.566 355.104 44.566C354.026 44.566 353.116 44.93 352.388 45.658C351.674 46.372 351.31 47.282 351.31 48.36C351.31 49.438 351.674 50.348 352.388 51.076C353.116 51.79 354.026 52.154 355.104 52.154C356.672 52.154 357.974 51.3 358.576 49.956L357.4 49.606C356.966 50.446 356.112 50.978 355.104 50.978C354.376 50.978 353.76 50.726 353.27 50.236C352.78 49.732 352.528 49.102 352.528 48.36C352.528 47.618 352.78 46.988 353.27 46.498C353.76 45.994 354.376 45.742 355.104 45.742C356.112 45.742 356.966 46.274 357.4 47.114L358.576 46.764ZM360.908 51.076C361.636 51.79 362.546 52.154 363.624 52.154C364.702 52.154 365.612 51.79 366.34 51.076C367.068 50.348 367.432 49.438 367.432 48.36C367.432 47.282 367.068 46.372 366.34 45.658C365.612 44.93 364.702 44.566 363.624 44.566C362.546 44.566 361.636 44.93 360.908 45.658C360.194 46.372 359.83 47.282 359.83 48.36C359.83 49.438 360.194 50.348 360.908 51.076ZM363.624 50.978C362.896 50.978 362.28 50.726 361.79 50.236C361.3 49.732 361.048 49.102 361.048 48.36C361.048 47.618 361.3 46.988 361.79 46.498C362.28 45.994 362.896 45.742 363.624 45.742C364.366 45.742 364.982 45.994 365.472 46.498C365.962 46.988 366.214 47.618 366.214 48.36C366.214 49.102 365.962 49.732 365.472 50.236C364.982 50.726 364.366 50.978 363.624 50.978ZM369.18 52H370.356V47.604C370.356 47.058 370.552 46.61 370.944 46.246C371.35 45.868 371.84 45.686 372.428 45.686C373.506 45.686 374.318 46.512 374.318 47.59V52H375.494V47.604C375.494 47.058 375.69 46.61 376.082 46.246C376.488 45.868 376.978 45.686 377.566 45.686C378.644 45.686 379.442 46.512 379.442 47.59V52H380.618V47.268C380.618 46.498 380.352 45.854 379.806 45.336C379.26 44.818 378.588 44.566 377.762 44.566C376.992 44.566 376.334 44.79 375.928 45.126C375.536 45.448 375.34 45.686 375.186 45.966C374.724 45.112 373.814 44.566 372.75 44.566C371.7 44.566 370.902 44.972 370.356 45.784V44.72H369.18V52Z" fill="#74859C"/>
</g>
<path d="M388 8V4H384H24C12.9543 4 4 12.9543 4 24V544V548H8H384H388V544V8Z" stroke="#C8BDF4" stroke-width="8"/>
<defs>
<linearGradient id="paint0_linear_135_892" x1="315" y1="262.916" x2="315" y2="339.179" gradientUnits="userSpaceOnUse">
<stop stop-color="#EFECFF"/>
<stop offset="1" stop-color="#EFECFF" stop-opacity="0"/>
</linearGradient>
<clipPath id="clip0_135_892">
<path d="M8 24C8 15.1634 15.1634 8 24 8H384V544H8V24Z" fill="white"/>
</clipPath>
<clipPath id="clip1_135_892">
<rect x="177" y="133.5" width="276" height="187" rx="4" fill="white"/>
</clipPath>
</defs>
</svg>
