<svg width="173" height="32" viewBox="0 0 173 32" fill="none" xmlns="http://www.w3.org/2000/svg">
<path d="M50.168 10.9409C50.168 13.7622 50.1967 16.1931 50.2567 18.2337C49.7303 17.1775 48.9178 15.7368 47.8192 13.9143L43.9968 7.65759H40V23.3453H43.5362V20.0619C43.5362 17.2407 43.5076 14.827 43.4475 12.8122C43.9024 13.7077 44.715 15.1341 45.8851 17.0857L49.7074 23.3424H53.7043V7.65759H50.168V10.9409ZM60.5879 23.6093C62.3874 23.6093 63.8322 23.0669 64.9137 21.9791C65.9837 20.9057 66.5159 19.4678 66.5159 17.6597C66.5159 15.8372 65.9809 14.3907 64.9137 13.3202C63.8437 12.2468 62.4017 11.713 60.5879 11.713C58.7711 11.713 57.3292 12.2497 56.262 13.3202C55.1777 14.4079 54.6369 15.8544 54.6369 17.6597C54.6369 19.4506 55.1777 20.8914 56.262 21.9791C57.3435 23.064 58.7854 23.6093 60.5879 23.6093ZM60.5879 20.8541C59.7839 20.8541 59.1688 20.5814 58.7425 20.039C58.3191 19.4965 58.1045 18.7015 58.1045 17.6597C58.1045 16.6179 58.3162 15.8229 58.7425 15.2804C59.1659 14.738 59.781 14.4653 60.5879 14.4653C61.3775 14.4653 61.9869 14.738 62.4103 15.2804C62.8338 15.8229 63.0483 16.6179 63.0483 17.6597C63.0483 18.7015 62.8366 19.4965 62.4103 20.039C61.9869 20.5814 61.3775 20.8541 60.5879 20.8541ZM75.1361 13.3403C74.3608 12.2525 73.2536 11.7101 71.8202 11.7101C70.2981 11.7101 69.0965 12.2468 68.2182 13.3173C67.3255 14.3907 66.8792 15.8372 66.8792 17.6568C66.8792 19.4793 67.3255 20.9258 68.2182 21.9963C69.0965 23.0697 70.2981 23.6036 71.8202 23.6036C73.3279 23.6036 74.4638 23.0238 75.2248 21.8643V23.3395H78.5636V7.65759H75.1361V13.3403ZM72.7615 20.8541C71.1507 20.8541 70.3468 19.818 70.3468 17.7487C70.3468 16.6925 70.5585 15.8803 70.9848 15.3149C71.4082 14.7495 72.0033 14.4653 72.7643 14.4653C74.3894 14.4653 75.2019 15.5301 75.2019 17.6597C75.2019 19.7893 74.3865 20.8541 72.7615 20.8541Z" fill="#0068EB"/>
<path d="M87.1786 23.6954C89.1699 23.6954 90.855 23.1386 92.2312 22.0222C93.593 20.9057 94.3912 19.3329 94.6258 17.3067H90.9151C90.7406 18.3055 90.3143 19.0832 89.6419 19.6429C88.9696 20.1997 88.1485 20.481 87.1815 20.481C85.9226 20.481 84.9527 20.0476 84.2718 19.1808C83.5909 18.3141 83.2504 17.0886 83.2504 15.5014C83.2504 13.9143 83.5909 12.6888 84.2718 11.822C84.9527 10.9553 85.9226 10.5219 87.1815 10.5219C88.1027 10.5219 88.8838 10.7601 89.5218 11.2365C90.1598 11.713 90.5947 12.3932 90.8293 13.2743H94.5858C94.3083 11.3657 93.4814 9.88761 92.1053 8.84578C90.752 7.8183 89.1127 7.30457 87.1786 7.30457C84.7925 7.30457 82.8957 8.0393 81.4909 9.50876C80.0862 10.9782 79.3823 12.9758 79.3823 15.5014C79.3823 17.9984 80.1005 19.9873 81.5338 21.4711C82.9701 22.9549 84.8526 23.6954 87.1786 23.6954ZM102.319 11.7101C100.869 11.7101 99.7127 12.2984 98.8487 13.4723V7.65758H95.4212V23.3453H98.8487V16.9996C98.8487 16.2505 99.0547 15.6708 99.4638 15.2603C99.8729 14.8499 100.385 14.6433 101 14.6433C102.216 14.6433 102.823 15.289 102.823 16.5834V23.3481H106.25V15.8975C106.25 14.56 105.895 13.5297 105.186 12.8007C104.476 12.0746 103.521 11.7101 102.319 11.7101ZM118.756 17.9897C118.756 16.0812 118.229 14.5514 117.173 13.4063C116.089 12.2755 114.67 11.7101 112.913 11.7101C111.142 11.7101 109.729 12.2525 108.673 13.3403C107.603 14.4137 107.071 15.8516 107.071 17.6597C107.071 19.4506 107.612 20.8914 108.696 21.9791C109.781 23.0669 111.2 23.6093 112.956 23.6093C114.347 23.6093 115.54 23.2678 116.535 22.5847C117.531 21.9016 118.183 20.9717 118.49 19.7979H115.239C114.83 20.6503 114.069 21.075 112.956 21.075C112.253 21.075 111.675 20.8684 111.223 20.458C110.768 20.0476 110.484 19.4506 110.367 18.6728H118.756V17.9897ZM112.871 14.2443C113.56 14.2443 114.124 14.4424 114.561 14.8384C115.002 15.2345 115.279 15.7856 115.397 16.4916H110.39C110.636 14.9934 111.463 14.2443 112.871 14.2443ZM125.024 23.6093C126.606 23.6093 127.908 23.1845 128.932 22.3321C129.956 21.4654 130.52 20.3116 130.623 18.8737H127.218C127.073 20.1509 126.34 20.7909 125.021 20.7909C123.453 20.7909 122.672 19.7491 122.672 17.6626C122.672 15.5617 123.456 14.5113 125.021 14.5113C126.251 14.5113 126.961 15.091 127.153 16.2505H130.557C130.397 14.8557 129.822 13.7507 128.832 12.9356C127.845 12.1205 126.575 11.713 125.021 11.713C123.25 11.713 121.837 12.2497 120.781 13.3202C119.728 14.3936 119.199 15.8401 119.199 17.6597C119.199 19.4506 119.726 20.8914 120.781 21.9791C121.84 23.064 123.253 23.6093 125.024 23.6093ZM142.954 23.3424L138.451 16.3797L142.711 11.9741H138.78L134.586 16.4686V7.65758H131.224V23.3453H134.586V20.237L136.122 18.6499L139.043 23.3424H142.954ZM147.838 23.6093C149.637 23.6093 151.082 23.0669 152.164 21.9791C153.234 20.9057 153.766 19.4678 153.766 17.6597C153.766 15.8372 153.231 14.3907 152.164 13.3202C151.094 12.2468 149.652 11.713 147.838 11.713C146.024 11.713 144.579 12.2497 143.512 13.3202C142.428 14.4079 141.887 15.8544 141.887 17.6597C141.887 19.4506 142.428 20.8914 143.512 21.9791C144.593 23.064 146.035 23.6093 147.838 23.6093ZM147.838 20.8541C147.034 20.8541 146.419 20.5814 145.992 20.039C145.569 19.4965 145.354 18.7015 145.354 17.6597C145.354 16.6179 145.566 15.8229 145.992 15.2804C146.416 14.738 147.031 14.4653 147.838 14.4653C148.627 14.4653 149.237 14.738 149.66 15.2804C150.084 15.8229 150.298 16.6179 150.298 17.6597C150.298 18.7015 150.087 19.4965 149.66 20.039C149.234 20.5814 148.627 20.8541 147.838 20.8541ZM161.748 18.3198C161.748 19.0689 161.542 19.6486 161.133 20.0591C160.724 20.4695 160.212 20.6761 159.597 20.6761C158.381 20.6761 157.774 20.0304 157.774 18.736V11.9741H154.347V19.4219C154.347 20.7593 154.701 21.7897 155.411 22.5187C156.12 23.2448 157.076 23.6093 158.278 23.6093C159.771 23.6093 160.958 22.9836 161.837 21.7352V23.3424H165.176V11.9741H161.748V18.3198ZM173 11.9741H170.826V8.6047H167.399V11.977H165.708V14.4883H167.399V20.1739C167.399 21.3334 167.713 22.1685 168.343 22.6737C168.972 23.1817 169.996 23.4342 171.418 23.4342C172.062 23.4342 172.588 23.4055 173 23.3453V20.7909H172.122C171.639 20.7909 171.301 20.722 171.112 20.5814C170.923 20.4408 170.826 20.1825 170.826 19.7979V14.4883H173V11.9741Z" fill="#32394C"/>
<rect width="31" height="32" rx="5" fill="#0068EB"/>
<path fill-rule="evenodd" clip-rule="evenodd" d="M15.3765 15C21.2534 15 25.7901 10.7756 26 5L21.7956 5.01244C21.4218 13.0589 9.36835 12.8308 9.20437 5.00207H5C5.06559 10.4417 9.61104 15 15.3765 15Z" fill="white"/>
</svg>
