<svg width="384" height="544" viewBox="0 0 384 544" fill="none" xmlns="http://www.w3.org/2000/svg">
<g clip-path="url(#clip0_135_809)">
<path d="M8 24C8 15.1634 15.1634 8 24 8H384V544H8V24Z" fill="white"/>
<rect x="130" y="477" width="265" height="27" rx="4" fill="#EFF7FF"/>
<rect x="130" y="426" width="166" height="27" rx="4" fill="#EFF7FF"/>
<g clip-path="url(#clip1_135_809)">
<path d="M258.981 230.552V238.616H260.871V230.552H264.119V228.816H255.733V230.552H258.981ZM265.051 237.734C265.793 238.462 266.703 238.826 267.809 238.826C268.915 238.826 269.825 238.462 270.567 237.734C271.309 236.992 271.673 236.082 271.673 234.976C271.673 233.87 271.309 232.96 270.567 232.232C269.825 231.49 268.915 231.126 267.809 231.126C266.703 231.126 265.793 231.49 265.051 232.232C264.323 232.96 263.959 233.87 263.959 234.976C263.959 236.082 264.323 236.992 265.051 237.734ZM266.353 233.478C266.745 233.072 267.235 232.876 267.809 232.876C268.383 232.876 268.873 233.072 269.265 233.478C269.657 233.884 269.853 234.374 269.853 234.976C269.853 235.578 269.657 236.068 269.265 236.474C268.873 236.88 268.383 237.076 267.809 237.076C267.235 237.076 266.745 236.88 266.353 236.474C265.961 236.068 265.765 235.578 265.765 234.976C265.765 234.374 265.961 233.884 266.353 233.478ZM272.558 232.862H273.594V236.32C273.594 236.978 273.832 237.524 274.308 237.958C274.784 238.392 275.372 238.616 276.072 238.616H277.15V236.95H276.24C275.722 236.95 275.344 236.572 275.344 236.068V232.862H277.15V231.336H275.344V229.908H273.594V231.336H272.558V232.862ZM281.788 231.126C280.78 231.126 279.94 231.49 279.254 232.232C278.582 232.96 278.246 233.87 278.246 234.976C278.246 236.082 278.582 236.992 279.254 237.734C279.94 238.462 280.78 238.826 281.788 238.826C282.614 238.826 283.356 238.56 284 238.042V238.616H285.736V231.336H284V231.91C283.356 231.392 282.614 231.126 281.788 231.126ZM283.398 233.478C283.776 233.884 283.972 234.374 283.972 234.976C283.972 235.578 283.776 236.068 283.398 236.474C283.02 236.88 282.558 237.076 282.012 237.076C281.466 237.076 280.99 236.88 280.612 236.474C280.234 236.068 280.052 235.578 280.052 234.976C280.052 234.374 280.234 233.884 280.612 233.478C280.99 233.072 281.466 232.876 282.012 232.876C282.558 232.876 283.02 233.072 283.398 233.478ZM289.251 238.616V228.116H287.501V238.616H289.251ZM297.753 230.552V238.616H299.643V230.552H302.891V228.816H294.505V230.552H297.753ZM304.898 231.336H303.148V238.616H304.898V234.612C304.898 233.646 305.612 232.918 306.578 232.918C306.83 232.918 307.068 232.974 307.292 233.072V231.126C306.2 231.126 305.402 231.49 304.898 232.232V231.336ZM311.543 231.126C310.535 231.126 309.695 231.49 309.009 232.232C308.337 232.96 308.001 233.87 308.001 234.976C308.001 236.082 308.337 236.992 309.009 237.734C309.695 238.462 310.535 238.826 311.543 238.826C312.369 238.826 313.111 238.56 313.755 238.042V238.616H315.491V231.336H313.755V231.91C313.111 231.392 312.369 231.126 311.543 231.126ZM313.153 233.478C313.531 233.884 313.727 234.374 313.727 234.976C313.727 235.578 313.531 236.068 313.153 236.474C312.775 236.88 312.313 237.076 311.767 237.076C311.221 237.076 310.745 236.88 310.367 236.474C309.989 236.068 309.807 235.578 309.807 234.976C309.807 234.374 309.989 233.884 310.367 233.478C310.745 233.072 311.221 232.876 311.767 232.876C312.313 232.876 312.775 233.072 313.153 233.478ZM317.256 238.616H319.006V234.458C319.006 233.506 319.72 232.792 320.672 232.792C321.61 232.792 322.31 233.506 322.31 234.458V238.616H324.06V233.968C324.06 233.156 323.78 232.484 323.234 231.938C322.688 231.392 322.016 231.126 321.19 231.126C320.266 231.126 319.538 231.49 319.006 232.218V231.336H317.256V238.616ZM331.212 233.086C331.03 231.868 330.008 231.126 328.426 231.126C326.76 231.126 325.612 231.868 325.612 233.394C325.612 234.416 326.116 235.018 327.348 235.424L328.846 235.9C329.392 236.082 329.658 236.32 329.658 236.6C329.658 237.048 329.154 237.314 328.482 237.314C327.684 237.314 327.18 236.964 327.054 236.446L325.416 236.684C325.626 238.014 326.69 238.826 328.44 238.826C330.12 238.826 331.324 238.056 331.324 236.544C331.324 235.494 330.764 234.822 329.42 234.36L327.922 233.856C327.488 233.702 327.278 233.506 327.278 233.268C327.278 232.862 327.726 232.638 328.3 232.638C329 232.638 329.42 232.876 329.574 233.352L331.212 233.086ZM336.022 231.126C335.014 231.126 334.174 231.49 333.488 232.232C332.816 232.96 332.48 233.87 332.48 234.976C332.48 236.082 332.816 236.992 333.488 237.734C334.174 238.462 335.014 238.826 336.022 238.826C336.848 238.826 337.59 238.56 338.234 238.042V238.616H339.97V231.336H338.234V231.91C337.59 231.392 336.848 231.126 336.022 231.126ZM337.632 233.478C338.01 233.884 338.206 234.374 338.206 234.976C338.206 235.578 338.01 236.068 337.632 236.474C337.254 236.88 336.792 237.076 336.246 237.076C335.7 237.076 335.224 236.88 334.846 236.474C334.468 236.068 334.286 235.578 334.286 234.976C334.286 234.374 334.468 233.884 334.846 233.478C335.224 233.072 335.7 232.876 336.246 232.876C336.792 232.876 337.254 233.072 337.632 233.478ZM348.917 233.534C348.357 232.078 346.985 231.126 345.319 231.126C344.213 231.126 343.303 231.49 342.561 232.232C341.833 232.96 341.469 233.87 341.469 234.976C341.469 236.082 341.833 236.992 342.561 237.734C343.303 238.462 344.213 238.826 345.319 238.826C346.985 238.826 348.357 237.874 348.917 236.418L347.167 235.9C346.845 236.628 346.145 237.076 345.319 237.076C344.745 237.076 344.255 236.88 343.863 236.474C343.471 236.068 343.275 235.578 343.275 234.976C343.275 234.374 343.471 233.884 343.863 233.478C344.255 233.072 344.745 232.876 345.319 232.876C346.145 232.876 346.845 233.324 347.167 234.052L348.917 233.534ZM349.671 232.862H350.707V236.32C350.707 236.978 350.945 237.524 351.421 237.958C351.897 238.392 352.485 238.616 353.185 238.616H354.263V236.95H353.353C352.835 236.95 352.457 236.572 352.457 236.068V232.862H354.263V231.336H352.457V229.908H350.707V231.336H349.671V232.862ZM357.375 238.616V231.336H355.625V238.616H357.375ZM356.493 230.692C357.151 230.692 357.613 230.202 357.613 229.572C357.613 228.942 357.123 228.466 356.493 228.466C355.863 228.466 355.387 228.942 355.387 229.572C355.387 230.202 355.863 230.692 356.493 230.692ZM359.971 237.734C360.713 238.462 361.623 238.826 362.729 238.826C363.835 238.826 364.745 238.462 365.487 237.734C366.229 236.992 366.593 236.082 366.593 234.976C366.593 233.87 366.229 232.96 365.487 232.232C364.745 231.49 363.835 231.126 362.729 231.126C361.623 231.126 360.713 231.49 359.971 232.232C359.243 232.96 358.879 233.87 358.879 234.976C358.879 236.082 359.243 236.992 359.971 237.734ZM361.273 233.478C361.665 233.072 362.155 232.876 362.729 232.876C363.303 232.876 363.793 233.072 364.185 233.478C364.577 233.884 364.773 234.374 364.773 234.976C364.773 235.578 364.577 236.068 364.185 236.474C363.793 236.88 363.303 237.076 362.729 237.076C362.155 237.076 361.665 236.88 361.273 236.474C360.881 236.068 360.685 235.578 360.685 234.976C360.685 234.374 360.881 233.884 361.273 233.478ZM368.08 238.616H369.83V234.458C369.83 233.506 370.544 232.792 371.496 232.792C372.434 232.792 373.134 233.506 373.134 234.458V238.616H374.884V233.968C374.884 233.156 374.604 232.484 374.058 231.938C373.512 231.392 372.84 231.126 372.014 231.126C371.09 231.126 370.362 231.49 369.83 232.218V231.336H368.08V238.616ZM382.035 233.086C381.853 231.868 380.831 231.126 379.249 231.126C377.583 231.126 376.435 231.868 376.435 233.394C376.435 234.416 376.939 235.018 378.171 235.424L379.669 235.9C380.215 236.082 380.481 236.32 380.481 236.6C380.481 237.048 379.977 237.314 379.305 237.314C378.507 237.314 378.003 236.964 377.877 236.446L376.239 236.684C376.449 238.014 377.513 238.826 379.263 238.826C380.943 238.826 382.147 238.056 382.147 236.544C382.147 235.494 381.587 234.822 380.243 234.36L378.745 233.856C378.311 233.702 378.101 233.506 378.101 233.268C378.101 232.862 378.549 232.638 379.123 232.638C379.823 232.638 380.243 232.876 380.397 233.352L382.035 233.086Z" fill="#A4A7B0"/>
<path d="M246.573 272.616V264.712H244.717V262.344H246.573V260.04H244.717V257.672H246.573V249.768H251.597L254.093 257.672H257.005V249.768H260.557V257.672H262.381V260.04H260.557V262.344H262.381V264.712H260.557V272.616H255.501L252.941 264.712H250.125V272.616H246.573ZM250.125 262.344H252.237L251.533 260.04H250.061L250.125 262.344ZM257.101 267.624H257.261L257.133 264.712H256.269L257.101 267.624ZM249.997 257.672H250.893L249.965 254.6H249.837L249.997 257.672ZM255.597 262.344H257.069L257.005 260.04H254.861L255.597 262.344ZM281.397 265.48C281.397 263.304 280.565 261.48 278.869 260.04C277.205 258.6 275.125 257.864 272.597 257.864H270.357L270.709 254.024H279.477V250.216H267.285L266.133 261.64H272.373C273.717 261.64 274.837 261.992 275.733 262.728C276.661 263.464 277.109 264.36 277.109 265.48C277.109 266.504 276.693 267.368 275.861 268.072C275.061 268.776 274.037 269.128 272.853 269.128C270.901 269.128 269.301 268.008 268.565 266.248L264.437 267.368C265.685 270.824 268.853 273.096 272.821 273.096C275.285 273.096 277.301 272.36 278.933 270.92C280.565 269.448 281.397 267.624 281.397 265.48ZM301.094 254.088C299.654 251.432 296.774 249.736 293.318 249.736C290.854 249.736 288.806 250.504 287.142 252.04C285.51 253.576 284.678 255.496 284.678 257.768V265.64C284.678 267.752 285.478 269.512 287.078 270.952C288.71 272.392 290.694 273.096 293.094 273.096C295.494 273.096 297.478 272.392 299.078 270.984C300.71 269.544 301.51 267.784 301.51 265.704C301.51 263.56 300.71 261.8 299.11 260.36C297.51 258.92 295.526 258.184 293.158 258.184C291.558 258.184 290.118 258.536 288.806 259.24V257.704C288.806 256.584 289.222 255.624 290.054 254.856C290.918 254.088 291.974 253.704 293.254 253.704C295.11 253.704 296.454 254.44 297.254 255.912L301.094 254.088ZM288.966 265.608C288.966 263.688 290.758 262.152 293.094 262.152C294.278 262.152 295.238 262.504 296.038 263.176C296.838 263.848 297.222 264.712 297.222 265.704C297.222 267.624 295.43 269.128 293.094 269.128C290.758 269.128 288.966 267.624 288.966 265.608ZM304.599 265.032C304.599 267.336 305.431 269.256 307.063 270.792C308.727 272.328 310.807 273.096 313.271 273.096C315.735 273.096 317.815 272.328 319.447 270.792C321.111 269.256 321.943 267.336 321.943 265.032V257.8C321.943 255.496 321.111 253.576 319.447 252.04C317.815 250.504 315.735 249.736 313.271 249.736C310.807 249.736 308.727 250.504 307.063 252.04C305.431 253.576 304.599 255.496 304.599 257.8V265.032ZM308.759 257.736C308.759 256.616 309.175 255.656 310.039 254.888C310.903 254.088 311.991 253.704 313.271 253.704C314.551 253.704 315.639 254.088 316.503 254.888C317.367 255.656 317.815 256.616 317.815 257.736V265.096C317.815 266.216 317.367 267.176 316.503 267.976C315.639 268.744 314.551 269.128 313.271 269.128C311.991 269.128 310.903 268.744 310.039 267.976C309.175 267.176 308.759 266.216 308.759 265.096V257.736ZM330.293 271.464C330.293 269.512 329.173 268.104 327.541 268.104C326.101 268.104 325.045 269.16 325.045 270.536C325.045 271.784 325.941 272.84 327.093 273.064C327.093 273.672 326.485 274.568 325.269 275.816L326.549 277.128C329.045 275.464 330.293 273.576 330.293 271.464ZM333.41 265.032C333.41 267.336 334.242 269.256 335.874 270.792C337.538 272.328 339.618 273.096 342.082 273.096C344.546 273.096 346.626 272.328 348.258 270.792C349.922 269.256 350.754 267.336 350.754 265.032V257.8C350.754 255.496 349.922 253.576 348.258 252.04C346.626 250.504 344.546 249.736 342.082 249.736C339.618 249.736 337.538 250.504 335.874 252.04C334.242 253.576 333.41 255.496 333.41 257.8V265.032ZM337.57 257.736C337.57 256.616 337.986 255.656 338.85 254.888C339.714 254.088 340.802 253.704 342.082 253.704C343.362 253.704 344.45 254.088 345.314 254.888C346.178 255.656 346.626 256.616 346.626 257.736V265.096C346.626 266.216 346.178 267.176 345.314 267.976C344.45 268.744 343.362 269.128 342.082 269.128C340.802 269.128 339.714 268.744 338.85 267.976C337.986 267.176 337.57 266.216 337.57 265.096V257.736ZM354.144 265.032C354.144 267.336 354.976 269.256 356.608 270.792C358.272 272.328 360.352 273.096 362.816 273.096C365.28 273.096 367.36 272.328 368.992 270.792C370.656 269.256 371.488 267.336 371.488 265.032V257.8C371.488 255.496 370.656 253.576 368.992 252.04C367.36 250.504 365.28 249.736 362.816 249.736C360.352 249.736 358.272 250.504 356.608 252.04C354.976 253.576 354.144 255.496 354.144 257.8V265.032ZM358.304 257.736C358.304 256.616 358.72 255.656 359.584 254.888C360.448 254.088 361.536 253.704 362.816 253.704C364.096 253.704 365.184 254.088 366.048 254.888C366.912 255.656 367.36 256.616 367.36 257.736V265.096C367.36 266.216 366.912 267.176 366.048 267.976C365.184 268.744 364.096 269.128 362.816 269.128C361.536 269.128 360.448 268.744 359.584 267.976C358.72 267.176 358.304 266.216 358.304 265.096V257.736ZM374.878 265.032C374.878 267.336 375.71 269.256 377.342 270.792C379.006 272.328 381.086 273.096 383.55 273.096C386.014 273.096 388.094 272.328 389.726 270.792C391.39 269.256 392.222 267.336 392.222 265.032V257.8C392.222 255.496 391.39 253.576 389.726 252.04C388.094 250.504 386.014 249.736 383.55 249.736C381.086 249.736 379.006 250.504 377.342 252.04C375.71 253.576 374.878 255.496 374.878 257.8V265.032ZM379.038 257.736C379.038 256.616 379.454 255.656 380.318 254.888C381.182 254.088 382.27 253.704 383.55 253.704C384.83 253.704 385.918 254.088 386.782 254.888C387.646 255.656 388.094 256.616 388.094 257.736V265.096C388.094 266.216 387.646 267.176 386.782 267.976C385.918 268.744 384.83 269.128 383.55 269.128C382.27 269.128 381.182 268.744 380.318 267.976C379.454 267.176 379.038 266.216 379.038 265.096V257.736Z" fill="#101010"/>
<path d="M117.656 337.725L111.874 328.54V398.127H424.126V302.59L418.344 298.571C412.561 294.551 400.996 286.512 389.431 290.879C377.866 295.245 366.302 312.016 354.737 313.419C343.172 314.822 331.607 300.856 320.042 306.977C308.477 313.098 296.912 339.305 285.347 339.662C273.782 340.019 262.218 314.525 250.653 311.342C239.088 308.159 227.523 327.286 215.958 338.576C204.393 349.865 192.828 353.317 181.263 359.523C169.698 365.73 158.134 374.691 146.569 369.986C135.004 365.281 123.439 346.91 117.656 337.725Z" fill="url(#paint0_linear_135_809)"/>
<path d="M111.874 328.54L117.656 337.725C123.439 346.911 135.004 365.281 146.569 369.986C158.134 374.691 169.698 365.73 181.263 359.523C192.828 353.317 204.393 349.865 215.958 338.576C227.523 327.286 239.088 308.159 250.653 311.342C262.218 314.525 273.782 340.019 285.347 339.662C296.912 339.305 308.477 313.098 320.042 306.977C331.607 300.856 343.172 314.822 354.737 313.419C366.302 312.016 377.866 295.245 389.431 290.879C400.996 286.512 412.561 294.551 418.344 298.571L424.126 302.59" stroke="#2ED573" stroke-width="2"/>
</g>
<rect x="130" y="201" width="276" height="187" rx="4" stroke="#EFF7FF" stroke-width="2"/>
<line x1="8" y1="161.271" x2="387.486" y2="161.271" stroke="#D7E9FA" stroke-width="2"/>
<rect x="196" y="125.271" width="24" height="13" rx="4" fill="#DDEEFF"/>
<path d="M239.444 135.271V131.767H243.56V135.271H245.18V126.871H243.56V130.279H239.444V126.871H237.836V135.271H239.444ZM247.335 134.515C247.971 135.139 248.751 135.451 249.699 135.451C250.647 135.451 251.427 135.139 252.063 134.515C252.699 133.879 253.011 133.099 253.011 132.151C253.011 131.203 252.699 130.423 252.063 129.799C251.427 129.163 250.647 128.851 249.699 128.851C248.751 128.851 247.971 129.163 247.335 129.799C246.711 130.423 246.399 131.203 246.399 132.151C246.399 133.099 246.711 133.879 247.335 134.515ZM248.451 130.867C248.787 130.519 249.207 130.351 249.699 130.351C250.191 130.351 250.611 130.519 250.947 130.867C251.283 131.215 251.451 131.635 251.451 132.151C251.451 132.667 251.283 133.087 250.947 133.435C250.611 133.783 250.191 133.951 249.699 133.951C249.207 133.951 248.787 133.783 248.451 133.435C248.115 133.087 247.947 132.667 247.947 132.151C247.947 131.635 248.115 131.215 248.451 130.867ZM255.665 135.271V131.599C255.665 130.843 256.241 130.279 256.973 130.279C257.705 130.279 258.269 130.843 258.269 131.599V135.271H259.769V131.599C259.769 130.843 260.345 130.279 261.077 130.279C261.809 130.279 262.373 130.843 262.373 131.599V135.271H263.861V131.167C263.861 130.507 263.621 129.955 263.153 129.511C262.685 129.067 262.097 128.851 261.377 128.851C260.501 128.851 259.829 129.187 259.385 129.871C258.941 129.187 258.281 128.851 257.417 128.851C256.685 128.851 256.097 129.127 255.665 129.691V129.031H254.165V135.271H255.665ZM271.53 132.703C271.566 132.463 271.578 132.283 271.578 132.151C271.578 131.215 271.266 130.435 270.63 129.799C270.006 129.163 269.226 128.851 268.302 128.851C267.378 128.851 266.598 129.163 265.962 129.799C265.338 130.423 265.026 131.203 265.026 132.151C265.026 133.099 265.35 133.879 265.986 134.515C266.634 135.139 267.438 135.451 268.398 135.451C269.658 135.451 270.738 134.827 271.314 133.831L269.862 133.411C269.502 133.855 269.01 134.071 268.398 134.071C267.522 134.071 266.802 133.519 266.574 132.703H271.53ZM266.586 131.539C266.814 130.759 267.498 130.231 268.278 130.231C269.094 130.231 269.79 130.759 270.03 131.539H266.586Z" fill="#8BA4BC"/>
<rect x="322.777" y="125.271" width="24" height="13" rx="4" fill="#DDEEFF"/>
<rect x="363.777" y="125.271" width="65" height="13" rx="4" fill="#DDEEFF"/>
<path fill-rule="evenodd" clip-rule="evenodd" d="M40 137.403C39.9995 138.391 40.7979 139.191 41.7827 139.191L54.8602 139.185C55.844 139.185 56.6413 138.385 56.6413 137.398L56.6412 122.066C56.6412 121.079 55.8441 120.279 54.8604 120.279L41.7906 120.271C40.8064 120.27 40.0082 121.07 40.0077 122.057L40 137.403Z" fill="#0068EB"/>
<path fill-rule="evenodd" clip-rule="evenodd" d="M48.25 128.544C51.5787 128.544 54.1474 126.047 54.2663 122.635L51.8854 122.642C51.6734 127.397 44.8472 127.262 44.7549 122.635L42.374 122.635C42.4113 125.851 44.9848 128.544 48.2501 128.544L48.25 128.544Z" fill="#FFFEFE"/>
<rect x="64" y="123" width="39" height="13" rx="4" fill="#DDEEFF"/>
<rect width="376" height="80" transform="translate(8 8)" fill="#F4F6F8"/>
<circle cx="48" cy="48" r="8" fill="#FF3A3C"/>
<circle cx="84" cy="48" r="8" fill="#B6B7BE"/>
<circle cx="120" cy="48" r="8" fill="#2ED573"/>
<path d="M211 40C211 35.5817 214.582 32 219 32H384V64H219C214.582 64 211 60.4183 211 56V40Z" fill="#CCE3FF"/>
<path d="M233.667 46.6668H234.333C234.51 46.6668 234.68 46.7371 234.805 46.8621C234.93 46.9871 235 47.1567 235 47.3335V54.0002C235 54.177 234.93 54.3465 234.805 54.4716C234.68 54.5966 234.51 54.6668 234.333 54.6668H223.667C223.49 54.6668 223.32 54.5966 223.195 54.4716C223.07 54.3465 223 54.177 223 54.0002V47.3335C223 47.1567 223.07 46.9871 223.195 46.8621C223.32 46.7371 223.49 46.6668 223.667 46.6668H224.333V46.0002C224.333 45.3873 224.454 44.7805 224.689 44.2143C224.923 43.6481 225.267 43.1337 225.7 42.7003C226.134 42.267 226.648 41.9232 227.214 41.6887C227.78 41.4542 228.387 41.3335 229 41.3335C229.613 41.3335 230.22 41.4542 230.786 41.6887C231.352 41.9232 231.866 42.267 232.3 42.7003C232.733 43.1337 233.077 43.6481 233.311 44.2143C233.546 44.7805 233.667 45.3873 233.667 46.0002V46.6668ZM232.333 46.6668V46.0002C232.333 45.1161 231.982 44.2683 231.357 43.6431C230.732 43.018 229.884 42.6668 229 42.6668C228.116 42.6668 227.268 43.018 226.643 43.6431C226.018 44.2683 225.667 45.1161 225.667 46.0002V46.6668H232.333ZM228.333 49.3335V52.0002H229.667V49.3335H228.333Z" fill="#74859C"/>
<path d="M249.097 52L250.861 46.68L252.625 52H253.647L256.139 44.72H254.949L253.157 50.194L251.379 44.72H250.343L248.565 50.18L246.787 44.72H245.597L248.075 52H249.097ZM260.161 52L261.925 46.68L263.689 52H264.711L267.203 44.72H266.013L264.221 50.194L262.443 44.72H261.407L259.629 50.18L257.851 44.72H256.661L259.139 52H260.161ZM271.225 52L272.989 46.68L274.753 52H275.775L278.267 44.72H277.077L275.285 50.194L273.507 44.72H272.471L270.693 50.18L268.915 44.72H267.725L270.203 52H271.225ZM280.152 51.314C280.152 50.852 279.802 50.474 279.312 50.474C278.822 50.474 278.472 50.824 278.472 51.314C278.472 51.804 278.822 52.154 279.312 52.154C279.802 52.154 280.152 51.804 280.152 51.314ZM281.942 52H283.118V47.8C283.118 47.198 283.342 46.708 283.776 46.302C284.21 45.896 284.756 45.686 285.386 45.686C285.974 45.686 286.464 45.882 286.856 46.288C287.262 46.694 287.458 47.184 287.458 47.772V52H288.634V47.464C288.634 46.638 288.354 45.938 287.794 45.392C287.248 44.846 286.548 44.566 285.708 44.566C284.546 44.566 283.692 45.028 283.118 45.938V44.72H281.942V52ZM291.436 51.076C292.164 51.79 293.074 52.154 294.152 52.154C295.23 52.154 296.14 51.79 296.868 51.076C297.596 50.348 297.96 49.438 297.96 48.36C297.96 47.282 297.596 46.372 296.868 45.658C296.14 44.93 295.23 44.566 294.152 44.566C293.074 44.566 292.164 44.93 291.436 45.658C290.722 46.372 290.358 47.282 290.358 48.36C290.358 49.438 290.722 50.348 291.436 51.076ZM294.152 50.978C293.424 50.978 292.808 50.726 292.318 50.236C291.828 49.732 291.576 49.102 291.576 48.36C291.576 47.618 291.828 46.988 292.318 46.498C292.808 45.994 293.424 45.742 294.152 45.742C294.894 45.742 295.51 45.994 296 46.498C296.49 46.988 296.742 47.618 296.742 48.36C296.742 49.102 296.49 49.732 296 50.236C295.51 50.726 294.894 50.978 294.152 50.978ZM302.914 44.566C301.892 44.566 301.038 44.93 300.352 45.658C299.666 46.372 299.33 47.282 299.33 48.36C299.33 49.438 299.666 50.348 300.352 51.076C301.038 51.79 301.892 52.154 302.914 52.154C303.992 52.154 304.888 51.762 305.574 50.964V52H306.75V41.5H305.574V45.756C304.888 44.958 303.992 44.566 302.914 44.566ZM303.04 45.742C303.754 45.742 304.342 45.994 304.818 46.498C305.308 46.988 305.546 47.618 305.546 48.36C305.546 49.102 305.308 49.732 304.818 50.236C304.342 50.726 303.754 50.978 303.04 50.978C302.34 50.978 301.752 50.726 301.262 50.236C300.786 49.732 300.548 49.102 300.548 48.36C300.548 47.618 300.786 46.988 301.262 46.498C301.752 45.994 302.34 45.742 303.04 45.742ZM315.76 46.764C315.158 45.42 313.856 44.566 312.288 44.566C311.21 44.566 310.3 44.93 309.572 45.658C308.858 46.372 308.494 47.282 308.494 48.36C308.494 49.438 308.858 50.348 309.572 51.076C310.3 51.79 311.21 52.154 312.288 52.154C313.856 52.154 315.158 51.3 315.76 49.956L314.584 49.606C314.15 50.446 313.296 50.978 312.288 50.978C311.56 50.978 310.944 50.726 310.454 50.236C309.964 49.732 309.712 49.102 309.712 48.36C309.712 47.618 309.964 46.988 310.454 46.498C310.944 45.994 311.56 45.742 312.288 45.742C313.296 45.742 314.15 46.274 314.584 47.114L315.76 46.764ZM318.568 47.884C318.568 47.282 318.792 46.792 319.226 46.386C319.66 45.98 320.206 45.784 320.836 45.784C321.032 45.784 321.2 45.812 321.354 45.868V44.566H321.158C319.982 44.566 319.114 45.028 318.568 45.952V44.72H317.392V52H318.568V47.884ZM329.539 48.766C329.553 48.584 329.567 48.444 329.567 48.36C329.567 47.282 329.203 46.372 328.489 45.658C327.775 44.93 326.879 44.566 325.815 44.566C324.751 44.566 323.855 44.93 323.141 45.658C322.427 46.372 322.063 47.282 322.063 48.36C322.063 49.438 322.427 50.348 323.169 51.076C323.911 51.79 324.835 52.154 325.941 52.154C327.355 52.154 328.573 51.468 329.245 50.362L328.097 49.998C327.579 50.698 326.865 51.048 325.941 51.048C325.241 51.048 324.639 50.838 324.149 50.404C323.659 49.97 323.365 49.424 323.281 48.766H329.539ZM323.295 47.814C323.407 47.184 323.687 46.666 324.149 46.26C324.611 45.854 325.157 45.658 325.787 45.658C326.431 45.658 326.991 45.854 327.467 46.26C327.943 46.666 328.237 47.184 328.349 47.814H323.295ZM334.414 44.566C333.392 44.566 332.538 44.93 331.852 45.658C331.166 46.372 330.83 47.282 330.83 48.36C330.83 49.438 331.166 50.348 331.852 51.076C332.538 51.79 333.392 52.154 334.414 52.154C335.492 52.154 336.388 51.762 337.074 50.964V52H338.25V41.5H337.074V45.756C336.388 44.958 335.492 44.566 334.414 44.566ZM334.54 45.742C335.254 45.742 335.842 45.994 336.318 46.498C336.808 46.988 337.046 47.618 337.046 48.36C337.046 49.102 336.808 49.732 336.318 50.236C335.842 50.726 335.254 50.978 334.54 50.978C333.84 50.978 333.252 50.726 332.762 50.236C332.286 49.732 332.048 49.102 332.048 48.36C332.048 47.618 332.286 46.988 332.762 46.498C333.252 45.994 333.84 45.742 334.54 45.742ZM341.547 52V44.72H340.371V52H341.547ZM340.371 43.53C340.693 43.824 341.225 43.824 341.547 43.53C341.869 43.208 341.869 42.662 341.547 42.368C341.225 42.046 340.693 42.046 340.371 42.368C340.077 42.662 340.077 43.208 340.371 43.53ZM342.885 45.756H344.061V49.858C344.061 50.46 344.271 50.978 344.677 51.384C345.083 51.79 345.601 52 346.203 52H347.267V50.866H346.287C345.685 50.866 345.237 50.376 345.237 49.718V45.756H347.267V44.72H345.237V43.264H344.061V44.72H342.885V45.756ZM350.239 51.314C350.239 50.852 349.889 50.474 349.399 50.474C348.909 50.474 348.559 50.824 348.559 51.314C348.559 51.804 348.909 52.154 349.399 52.154C349.889 52.154 350.239 51.804 350.239 51.314ZM358.576 46.764C357.974 45.42 356.672 44.566 355.104 44.566C354.026 44.566 353.116 44.93 352.388 45.658C351.674 46.372 351.31 47.282 351.31 48.36C351.31 49.438 351.674 50.348 352.388 51.076C353.116 51.79 354.026 52.154 355.104 52.154C356.672 52.154 357.974 51.3 358.576 49.956L357.4 49.606C356.966 50.446 356.112 50.978 355.104 50.978C354.376 50.978 353.76 50.726 353.27 50.236C352.78 49.732 352.528 49.102 352.528 48.36C352.528 47.618 352.78 46.988 353.27 46.498C353.76 45.994 354.376 45.742 355.104 45.742C356.112 45.742 356.966 46.274 357.4 47.114L358.576 46.764ZM360.908 51.076C361.636 51.79 362.546 52.154 363.624 52.154C364.702 52.154 365.612 51.79 366.34 51.076C367.068 50.348 367.432 49.438 367.432 48.36C367.432 47.282 367.068 46.372 366.34 45.658C365.612 44.93 364.702 44.566 363.624 44.566C362.546 44.566 361.636 44.93 360.908 45.658C360.194 46.372 359.83 47.282 359.83 48.36C359.83 49.438 360.194 50.348 360.908 51.076ZM363.624 50.978C362.896 50.978 362.28 50.726 361.79 50.236C361.3 49.732 361.048 49.102 361.048 48.36C361.048 47.618 361.3 46.988 361.79 46.498C362.28 45.994 362.896 45.742 363.624 45.742C364.366 45.742 364.982 45.994 365.472 46.498C365.962 46.988 366.214 47.618 366.214 48.36C366.214 49.102 365.962 49.732 365.472 50.236C364.982 50.726 364.366 50.978 363.624 50.978ZM369.18 52H370.356V47.604C370.356 47.058 370.552 46.61 370.944 46.246C371.35 45.868 371.84 45.686 372.428 45.686C373.506 45.686 374.318 46.512 374.318 47.59V52H375.494V47.604C375.494 47.058 375.69 46.61 376.082 46.246C376.488 45.868 376.978 45.686 377.566 45.686C378.644 45.686 379.442 46.512 379.442 47.59V52H380.618V47.268C380.618 46.498 380.352 45.854 379.806 45.336C379.26 44.818 378.588 44.566 377.762 44.566C376.992 44.566 376.334 44.79 375.928 45.126C375.536 45.448 375.34 45.686 375.186 45.966C374.724 45.112 373.814 44.566 372.75 44.566C371.7 44.566 370.902 44.972 370.356 45.784V44.72H369.18V52Z" fill="#74859C"/>
</g>
<path d="M388 8V4H384H24C12.9543 4 4 12.9543 4 24V544V548H8H384H388V544V8Z" stroke="#BEDFF8" stroke-width="8"/>
<defs>
<linearGradient id="paint0_linear_135_809" x1="268" y1="328.004" x2="268" y2="405.466" gradientUnits="userSpaceOnUse">
<stop stop-color="#ECFDF3"/>
<stop offset="1" stop-color="#ECFDF3" stop-opacity="0"/>
</linearGradient>
<clipPath id="clip0_135_809">
<path d="M8 24C8 15.1634 15.1634 8 24 8H384V544H8V24Z" fill="white"/>
</clipPath>
<clipPath id="clip1_135_809">
<rect x="130" y="201" width="276" height="187" rx="4" fill="white"/>
</clipPath>
</defs>
</svg>
