<svg width="166" height="33" viewBox="0 0 166 33" fill="none" xmlns="http://www.w3.org/2000/svg">
<path d="M52.0296 7.30035V20.1004L43.9703 7.30035H40.2963V26.2633H43.9703V13.7004H44.0889L52.0296 26.2633H55.7037V7.30035H52.0296Z" fill="#0668E3"/>
<path d="M73.4815 19.7447C73.4815 23.6558 70.5185 26.2632 66.3704 26.2632C62.1037 26.2632 59.2593 23.5373 59.2593 19.7447C59.2593 15.9521 62.1037 13.2262 66.3704 13.2262C70.5185 13.2262 73.4815 15.8336 73.4815 19.7447ZM62.9334 19.7447C62.9334 21.641 64.4741 23.1818 66.4889 23.1818C68.3852 23.1818 69.9259 21.7595 69.9259 19.7447C69.9259 17.6114 68.3852 16.1892 66.4889 16.1892C64.2371 16.1892 62.9334 17.7299 62.9334 19.7447Z" fill="#0668E3"/>
<path d="M84.3852 15.1226V7.30035H87.7037V26.0263H84.5037V24.4855C83.5556 25.5522 82.2519 26.1448 80.7111 26.1448C77.1556 26.1448 74.6667 23.6559 74.6667 19.7448C74.6667 15.9522 77.1556 13.3448 80.5926 13.3448C82.1334 13.4633 83.4371 13.9374 84.3852 15.1226ZM78.1037 19.8633C78.1037 21.9967 79.4074 23.3004 81.3037 23.3004C83.0815 23.3004 84.6222 21.9967 84.6222 19.8633C84.6222 17.967 83.2 16.4263 81.3037 16.4263C79.5259 16.4263 78.1037 17.73 78.1037 19.8633Z" fill="#0668E3"/>
<path d="M100.622 26.2633C103.822 26.2633 106.43 24.7226 107.852 22.8263L105.244 20.4559C104.178 21.7596 102.519 22.8263 100.622 22.8263C97.4222 22.8263 95.0518 20.3374 95.0518 16.9004C95.0518 13.2263 97.4222 10.8559 100.622 10.8559C102.519 10.8559 104.178 11.9226 105.244 13.2263L107.852 10.8559C105.837 8.36702 103.111 7.30035 100.622 7.30035C94.6963 7.30035 91.2592 11.4485 91.2592 16.7818C91.2592 22.9448 95.5259 26.2633 100.622 26.2633Z" fill="#0668E3"/>
<path d="M118.282 13.2262C116.859 13.2262 115.437 13.9373 114.607 15.241V13.3447H111.407V26.2632H114.726V20.2188C114.726 18.3225 115.793 16.9003 117.807 16.9003C117.926 16.9003 118.282 16.9003 118.519 16.9003V13.2262C118.519 13.2262 118.4 13.2262 118.282 13.2262Z" fill="#0668E3"/>
<path d="M126.222 13.2262C130.133 13.2262 132.741 15.8336 132.741 19.6262C132.741 19.9818 132.741 20.6929 132.622 20.8114H123.378C123.852 22.2336 125.037 23.3003 126.815 23.3003C128.237 23.3003 129.304 22.7077 129.896 21.878L132.267 23.8929C131.081 25.1966 129.185 26.2632 126.578 26.2632C122.785 26.2632 119.822 23.7743 119.822 19.7447C119.704 15.8336 122.548 13.2262 126.222 13.2262ZM129.185 18.441C128.83 17.1373 127.881 16.1892 126.341 16.1892C124.919 16.1892 123.852 16.9003 123.378 18.441H129.185Z" fill="#0668E3"/>
<path d="M143.644 15.1226V7.30035H146.963V26.0263H143.763V24.4855C142.815 25.5522 141.511 26.1448 139.97 26.1448C136.415 26.1448 133.926 23.6559 133.926 19.7448C133.926 15.9522 136.415 13.3448 139.852 13.3448C141.393 13.4633 142.696 13.9374 143.644 15.1226ZM137.363 19.8633C137.363 21.9967 138.667 23.3004 140.563 23.3004C142.341 23.3004 143.882 21.9967 143.882 19.8633C143.882 17.967 142.459 16.4263 140.563 16.4263C138.785 16.4263 137.363 17.73 137.363 19.8633Z" fill="#0668E3"/>
<path d="M154.43 9.43369C154.43 10.6189 153.6 11.4485 152.415 11.4485C151.348 11.4485 150.519 10.5004 150.519 9.43369C150.519 8.2485 151.348 7.30035 152.415 7.30035C153.6 7.30035 154.43 8.2485 154.43 9.43369ZM154.074 26.2633H150.993V13.4633H154.074V26.2633Z" fill="#0668E3"/>
<path d="M162.607 26.2633C164.267 26.2633 165.096 25.9077 165.926 25.5521L165.096 22.7077C164.504 23.0633 163.911 23.1818 163.556 23.1818C162.726 23.1818 162.489 22.7077 162.489 21.5225V16.0707H165.926V13.2262H162.37V8.48547L159.052 8.95955V13.2262H157.63V16.0707H159.17V22.1151C159.17 24.9595 160.474 26.2633 162.607 26.2633Z" fill="#0668E3"/>
<path d="M32 16.1892C32 25.0781 24.8889 32.1892 16 32.1892C7.11111 32.1892 0 25.0781 0 16.1892C0 7.30032 7.11111 0.189209 16 0.189209C24.8889 0.189209 32 7.30032 32 16.1892Z" fill="#0668E3"/>
<path d="M11.8519 23.0632L20.1482 31.004C27.0222 29.2262 32 23.1818 32 15.9521V15.5966L25.4815 9.67065L11.8519 23.0632Z" fill="#E6E7E8" fill-opacity="0.2379"/>
<path d="M21.4519 7.89295C22.163 7.18184 23.4667 7.18184 24.0593 7.89295L25.4815 9.31517C26.1926 10.0263 26.1926 11.33 25.4815 12.0411L16 21.6411C16 21.6411 15.8815 21.7596 15.763 21.8781L14.3408 23.3004C13.6297 24.0115 12.4445 24.0115 11.7334 23.3004L5.33338 16.7818C4.62227 16.0707 4.62227 14.767 5.33338 14.1744L6.7556 12.6337C7.46672 12.0411 8.77042 12.0411 9.36301 12.6337L13.0371 16.4263L21.4519 7.89295Z" fill="white"/>
</svg>
