<svg width="384" height="544" viewBox="0 0 384 544" fill="none" xmlns="http://www.w3.org/2000/svg">
<g clip-path="url(#clip0_135_1192)">
<path d="M8 24C8 15.1634 15.1634 8 24 8H384V544H8V24Z" fill="white"/>
<rect width="184" height="470" transform="translate(8 74)" fill="#EFF7FF"/>
<rect x="42" y="217" width="24" height="13" rx="4" fill="#DDEEFF"/>
<path d="M85.4443 227V223.496H89.5603V227H91.1803V218.6H89.5603V222.008H85.4443V218.6H83.8363V227H85.4443ZM93.3348 226.244C93.9708 226.868 94.7508 227.18 95.6988 227.18C96.6468 227.18 97.4268 226.868 98.0628 226.244C98.6988 225.608 99.0108 224.828 99.0108 223.88C99.0108 222.932 98.6988 222.152 98.0628 221.528C97.4268 220.892 96.6468 220.58 95.6988 220.58C94.7508 220.58 93.9708 220.892 93.3348 221.528C92.7108 222.152 92.3988 222.932 92.3988 223.88C92.3988 224.828 92.7108 225.608 93.3348 226.244ZM94.4508 222.596C94.7868 222.248 95.2068 222.08 95.6988 222.08C96.1908 222.08 96.6108 222.248 96.9468 222.596C97.2828 222.944 97.4508 223.364 97.4508 223.88C97.4508 224.396 97.2828 224.816 96.9468 225.164C96.6108 225.512 96.1908 225.68 95.6988 225.68C95.2068 225.68 94.7868 225.512 94.4508 225.164C94.1148 224.816 93.9468 224.396 93.9468 223.88C93.9468 223.364 94.1148 222.944 94.4508 222.596ZM101.665 227V223.328C101.665 222.572 102.241 222.008 102.973 222.008C103.705 222.008 104.269 222.572 104.269 223.328V227H105.769V223.328C105.769 222.572 106.345 222.008 107.077 222.008C107.809 222.008 108.373 222.572 108.373 223.328V227H109.861V222.896C109.861 222.236 109.621 221.684 109.153 221.24C108.685 220.796 108.097 220.58 107.377 220.58C106.501 220.58 105.829 220.916 105.385 221.6C104.941 220.916 104.281 220.58 103.417 220.58C102.685 220.58 102.097 220.856 101.665 221.42V220.76H100.165V227H101.665ZM117.53 224.432C117.566 224.192 117.578 224.012 117.578 223.88C117.578 222.944 117.266 222.164 116.63 221.528C116.006 220.892 115.226 220.58 114.302 220.58C113.378 220.58 112.598 220.892 111.962 221.528C111.338 222.152 111.026 222.932 111.026 223.88C111.026 224.828 111.35 225.608 111.986 226.244C112.634 226.868 113.438 227.18 114.398 227.18C115.658 227.18 116.738 226.556 117.314 225.56L115.862 225.14C115.502 225.584 115.01 225.8 114.398 225.8C113.522 225.8 112.802 225.248 112.574 224.432H117.53ZM112.586 223.268C112.814 222.488 113.498 221.96 114.278 221.96C115.094 221.96 115.79 222.488 116.03 223.268H112.586Z" fill="#8BA4BC"/>
<rect x="42" y="345" width="24" height="13" rx="4" fill="#DDEEFF"/>
<path d="M80.696 346.6V355H82.304V352.036H84.26L86.024 355H87.812L85.892 351.76C86.864 351.328 87.488 350.404 87.488 349.312C87.488 348.544 87.212 347.896 86.648 347.38C86.096 346.864 85.412 346.6 84.584 346.6H80.696ZM84.584 348.088C85.292 348.088 85.808 348.604 85.808 349.312C85.808 350.02 85.292 350.548 84.584 350.548H82.304V348.088H84.584ZM94.8718 352.432C94.9078 352.192 94.9198 352.012 94.9198 351.88C94.9198 350.944 94.6078 350.164 93.9718 349.528C93.3478 348.892 92.5678 348.58 91.6438 348.58C90.7198 348.58 89.9398 348.892 89.3038 349.528C88.6798 350.152 88.3678 350.932 88.3678 351.88C88.3678 352.828 88.6918 353.608 89.3278 354.244C89.9758 354.868 90.7798 355.18 91.7398 355.18C92.9998 355.18 94.0798 354.556 94.6558 353.56L93.2038 353.14C92.8438 353.584 92.3518 353.8 91.7398 353.8C90.8638 353.8 90.1438 353.248 89.9158 352.432H94.8718ZM89.9278 351.268C90.1558 350.488 90.8398 349.96 91.6198 349.96C92.4358 349.96 93.1318 350.488 93.3718 351.268H89.9278ZM97.458 357.7V354.508C98.01 354.952 98.634 355.18 99.342 355.18C100.206 355.18 100.926 354.868 101.514 354.244C102.102 353.608 102.39 352.828 102.39 351.88C102.39 350.932 102.102 350.152 101.514 349.528C100.926 348.892 100.206 348.58 99.342 348.58C98.634 348.58 98.01 348.808 97.458 349.252V348.76H95.958V357.7H97.458ZM100.338 350.596C100.662 350.944 100.83 351.364 100.83 351.88C100.83 352.396 100.662 352.816 100.338 353.164C100.014 353.512 99.618 353.68 99.15 353.68C98.682 353.68 98.286 353.512 97.962 353.164C97.638 352.816 97.482 352.396 97.482 351.88C97.482 351.364 97.638 350.944 97.962 350.596C98.286 350.248 98.682 350.08 99.15 350.08C99.618 350.08 100.014 350.248 100.338 350.596ZM106.351 348.58C105.487 348.58 104.767 348.892 104.179 349.528C103.603 350.152 103.315 350.932 103.315 351.88C103.315 352.828 103.603 353.608 104.179 354.244C104.767 354.868 105.487 355.18 106.351 355.18C107.059 355.18 107.695 354.952 108.247 354.508V355H109.735V348.76H108.247V349.252C107.695 348.808 107.059 348.58 106.351 348.58ZM107.731 350.596C108.055 350.944 108.223 351.364 108.223 351.88C108.223 352.396 108.055 352.816 107.731 353.164C107.407 353.512 107.011 353.68 106.543 353.68C106.075 353.68 105.667 353.512 105.343 353.164C105.019 352.816 104.863 352.396 104.863 351.88C104.863 351.364 105.019 350.944 105.343 350.596C105.667 350.248 106.075 350.08 106.543 350.08C107.011 350.08 107.407 350.248 107.731 350.596ZM112.832 355.312C112.58 355.948 112.1 356.272 111.38 356.272H111.14V357.7H111.38C112.76 357.7 113.576 357.124 114.104 355.816L116.924 348.76H115.376L113.744 352.972L112.148 348.76H110.6L113 354.88L112.832 355.312ZM119.287 355V351.328C119.287 350.572 119.863 350.008 120.595 350.008C121.327 350.008 121.891 350.572 121.891 351.328V355H123.391V351.328C123.391 350.572 123.967 350.008 124.699 350.008C125.431 350.008 125.995 350.572 125.995 351.328V355H127.483V350.896C127.483 350.236 127.243 349.684 126.775 349.24C126.307 348.796 125.719 348.58 124.999 348.58C124.123 348.58 123.451 348.916 123.007 349.6C122.563 348.916 121.903 348.58 121.039 348.58C120.307 348.58 119.719 348.856 119.287 349.42V348.76H117.787V355H119.287ZM135.152 352.432C135.188 352.192 135.2 352.012 135.2 351.88C135.2 350.944 134.888 350.164 134.252 349.528C133.628 348.892 132.848 348.58 131.924 348.58C131 348.58 130.22 348.892 129.584 349.528C128.96 350.152 128.648 350.932 128.648 351.88C128.648 352.828 128.972 353.608 129.608 354.244C130.256 354.868 131.06 355.18 132.02 355.18C133.28 355.18 134.36 354.556 134.936 353.56L133.484 353.14C133.124 353.584 132.632 353.8 132.02 353.8C131.144 353.8 130.424 353.248 130.196 352.432H135.152ZM130.208 351.268C130.436 350.488 131.12 349.96 131.9 349.96C132.716 349.96 133.412 350.488 133.652 351.268H130.208ZM136.238 355H137.738V351.436C137.738 350.62 138.35 350.008 139.166 350.008C139.97 350.008 140.57 350.62 140.57 351.436V355H142.07V351.016C142.07 350.32 141.83 349.744 141.362 349.276C140.894 348.808 140.318 348.58 139.61 348.58C138.818 348.58 138.194 348.892 137.738 349.516V348.76H136.238V355ZM142.943 350.068H143.831V353.032C143.831 353.596 144.035 354.064 144.443 354.436C144.851 354.808 145.355 355 145.955 355H146.879V353.572H146.099C145.655 353.572 145.331 353.248 145.331 352.816V350.068H146.879V348.76H145.331V347.536H143.831V348.76H142.943V350.068Z" fill="#8BA4BC"/>
<rect x="42" y="281" width="24" height="13" rx="4" fill="#DDEEFF"/>
<rect x="83" y="281" width="65" height="13" rx="4" fill="#DDEEFF"/>
<rect x="42" y="409" width="24" height="13" rx="4" fill="#DDEEFF"/>
<rect x="83" y="409" width="50" height="13" rx="4" fill="#DDEEFF"/>
<rect x="42" y="470" width="24" height="13" rx="4" fill="#DDEEFF"/>
<rect x="83" y="470" width="64" height="13" rx="4" fill="#DDEEFF"/>
<rect x="27" y="111" width="142" height="53" rx="4" fill="white"/>
<path fill-rule="evenodd" clip-rule="evenodd" d="M71.2973 136.671C71.2973 144.79 64.6977 151.39 56.5787 151.39C48.4598 151.39 41.9077 144.79 41.9077 136.671C41.9077 128.552 48.4598 122 56.5787 122C64.6977 122 71.2973 128.552 71.2973 136.671Z" fill="#0668E3"/>
<path fill-rule="evenodd" clip-rule="evenodd" d="M52.8281 143.318L60.3773 150.867C66.6445 149.205 71.2975 143.508 71.2975 136.671V136.291L65.3626 130.783L52.8281 143.318Z" fill="#1455A7"/>
<path fill-rule="evenodd" clip-rule="evenodd" d="M62.0863 129.739C62.751 129.074 63.843 129.074 64.5077 129.739L65.8371 131.068C66.5019 131.733 66.5019 132.825 65.8371 133.49L57.1485 142.131C57.101 142.226 57.0535 142.321 56.9586 142.368L55.6291 143.745C54.9644 144.362 53.8724 144.362 53.2077 143.745L47.3203 137.81C46.6556 137.146 46.6556 136.053 47.3203 135.389L48.6497 134.059C49.3144 133.395 50.4539 133.395 51.0712 134.059L54.3947 137.383L62.0863 129.739Z" fill="white"/>
<rect x="83" y="128" width="69" height="18" rx="4" fill="#D7E9FA"/>
<rect width="376" height="80" transform="translate(8 8)" fill="#F4F6F8"/>
<circle cx="48" cy="48" r="8" fill="#FF3A3C"/>
<circle cx="84" cy="48" r="8" fill="#B6B7BE"/>
<circle cx="120" cy="48" r="8" fill="#2ED573"/>
<path d="M211 40C211 35.5817 214.582 32 219 32H384V64H219C214.582 64 211 60.4183 211 56V40Z" fill="#CCE3FF"/>
<path d="M233.667 46.6668H234.333C234.51 46.6668 234.68 46.7371 234.805 46.8621C234.93 46.9871 235 47.1567 235 47.3335V54.0002C235 54.177 234.93 54.3465 234.805 54.4716C234.68 54.5966 234.51 54.6668 234.333 54.6668H223.667C223.49 54.6668 223.32 54.5966 223.195 54.4716C223.07 54.3465 223 54.177 223 54.0002V47.3335C223 47.1567 223.07 46.9871 223.195 46.8621C223.32 46.7371 223.49 46.6668 223.667 46.6668H224.333V46.0002C224.333 45.3873 224.454 44.7805 224.689 44.2143C224.923 43.6481 225.267 43.1337 225.7 42.7003C226.134 42.267 226.648 41.9232 227.214 41.6887C227.78 41.4542 228.387 41.3335 229 41.3335C229.613 41.3335 230.22 41.4542 230.786 41.6887C231.352 41.9232 231.866 42.267 232.3 42.7003C232.733 43.1337 233.077 43.6481 233.311 44.2143C233.546 44.7805 233.667 45.3873 233.667 46.0002V46.6668ZM232.333 46.6668V46.0002C232.333 45.1161 231.982 44.2683 231.357 43.6431C230.732 43.018 229.884 42.6668 229 42.6668C228.116 42.6668 227.268 43.018 226.643 43.6431C226.018 44.2683 225.667 45.1161 225.667 46.0002V46.6668H232.333ZM228.333 49.3335V52.0002H229.667V49.3335H228.333Z" fill="#74859C"/>
<path d="M249.097 52L250.861 46.68L252.625 52H253.647L256.139 44.72H254.949L253.157 50.194L251.379 44.72H250.343L248.565 50.18L246.787 44.72H245.597L248.075 52H249.097ZM260.161 52L261.925 46.68L263.689 52H264.711L267.203 44.72H266.013L264.221 50.194L262.443 44.72H261.407L259.629 50.18L257.851 44.72H256.661L259.139 52H260.161ZM271.225 52L272.989 46.68L274.753 52H275.775L278.267 44.72H277.077L275.285 50.194L273.507 44.72H272.471L270.693 50.18L268.915 44.72H267.725L270.203 52H271.225ZM280.152 51.314C280.152 50.852 279.802 50.474 279.312 50.474C278.822 50.474 278.472 50.824 278.472 51.314C278.472 51.804 278.822 52.154 279.312 52.154C279.802 52.154 280.152 51.804 280.152 51.314ZM281.942 52H283.118V47.8C283.118 47.198 283.342 46.708 283.776 46.302C284.21 45.896 284.756 45.686 285.386 45.686C285.974 45.686 286.464 45.882 286.856 46.288C287.262 46.694 287.458 47.184 287.458 47.772V52H288.634V47.464C288.634 46.638 288.354 45.938 287.794 45.392C287.248 44.846 286.548 44.566 285.708 44.566C284.546 44.566 283.692 45.028 283.118 45.938V44.72H281.942V52ZM291.436 51.076C292.164 51.79 293.074 52.154 294.152 52.154C295.23 52.154 296.14 51.79 296.868 51.076C297.596 50.348 297.96 49.438 297.96 48.36C297.96 47.282 297.596 46.372 296.868 45.658C296.14 44.93 295.23 44.566 294.152 44.566C293.074 44.566 292.164 44.93 291.436 45.658C290.722 46.372 290.358 47.282 290.358 48.36C290.358 49.438 290.722 50.348 291.436 51.076ZM294.152 50.978C293.424 50.978 292.808 50.726 292.318 50.236C291.828 49.732 291.576 49.102 291.576 48.36C291.576 47.618 291.828 46.988 292.318 46.498C292.808 45.994 293.424 45.742 294.152 45.742C294.894 45.742 295.51 45.994 296 46.498C296.49 46.988 296.742 47.618 296.742 48.36C296.742 49.102 296.49 49.732 296 50.236C295.51 50.726 294.894 50.978 294.152 50.978ZM302.914 44.566C301.892 44.566 301.038 44.93 300.352 45.658C299.666 46.372 299.33 47.282 299.33 48.36C299.33 49.438 299.666 50.348 300.352 51.076C301.038 51.79 301.892 52.154 302.914 52.154C303.992 52.154 304.888 51.762 305.574 50.964V52H306.75V41.5H305.574V45.756C304.888 44.958 303.992 44.566 302.914 44.566ZM303.04 45.742C303.754 45.742 304.342 45.994 304.818 46.498C305.308 46.988 305.546 47.618 305.546 48.36C305.546 49.102 305.308 49.732 304.818 50.236C304.342 50.726 303.754 50.978 303.04 50.978C302.34 50.978 301.752 50.726 301.262 50.236C300.786 49.732 300.548 49.102 300.548 48.36C300.548 47.618 300.786 46.988 301.262 46.498C301.752 45.994 302.34 45.742 303.04 45.742ZM315.76 46.764C315.158 45.42 313.856 44.566 312.288 44.566C311.21 44.566 310.3 44.93 309.572 45.658C308.858 46.372 308.494 47.282 308.494 48.36C308.494 49.438 308.858 50.348 309.572 51.076C310.3 51.79 311.21 52.154 312.288 52.154C313.856 52.154 315.158 51.3 315.76 49.956L314.584 49.606C314.15 50.446 313.296 50.978 312.288 50.978C311.56 50.978 310.944 50.726 310.454 50.236C309.964 49.732 309.712 49.102 309.712 48.36C309.712 47.618 309.964 46.988 310.454 46.498C310.944 45.994 311.56 45.742 312.288 45.742C313.296 45.742 314.15 46.274 314.584 47.114L315.76 46.764ZM318.568 47.884C318.568 47.282 318.792 46.792 319.226 46.386C319.66 45.98 320.206 45.784 320.836 45.784C321.032 45.784 321.2 45.812 321.354 45.868V44.566H321.158C319.982 44.566 319.114 45.028 318.568 45.952V44.72H317.392V52H318.568V47.884ZM329.539 48.766C329.553 48.584 329.567 48.444 329.567 48.36C329.567 47.282 329.203 46.372 328.489 45.658C327.775 44.93 326.879 44.566 325.815 44.566C324.751 44.566 323.855 44.93 323.141 45.658C322.427 46.372 322.063 47.282 322.063 48.36C322.063 49.438 322.427 50.348 323.169 51.076C323.911 51.79 324.835 52.154 325.941 52.154C327.355 52.154 328.573 51.468 329.245 50.362L328.097 49.998C327.579 50.698 326.865 51.048 325.941 51.048C325.241 51.048 324.639 50.838 324.149 50.404C323.659 49.97 323.365 49.424 323.281 48.766H329.539ZM323.295 47.814C323.407 47.184 323.687 46.666 324.149 46.26C324.611 45.854 325.157 45.658 325.787 45.658C326.431 45.658 326.991 45.854 327.467 46.26C327.943 46.666 328.237 47.184 328.349 47.814H323.295ZM334.414 44.566C333.392 44.566 332.538 44.93 331.852 45.658C331.166 46.372 330.83 47.282 330.83 48.36C330.83 49.438 331.166 50.348 331.852 51.076C332.538 51.79 333.392 52.154 334.414 52.154C335.492 52.154 336.388 51.762 337.074 50.964V52H338.25V41.5H337.074V45.756C336.388 44.958 335.492 44.566 334.414 44.566ZM334.54 45.742C335.254 45.742 335.842 45.994 336.318 46.498C336.808 46.988 337.046 47.618 337.046 48.36C337.046 49.102 336.808 49.732 336.318 50.236C335.842 50.726 335.254 50.978 334.54 50.978C333.84 50.978 333.252 50.726 332.762 50.236C332.286 49.732 332.048 49.102 332.048 48.36C332.048 47.618 332.286 46.988 332.762 46.498C333.252 45.994 333.84 45.742 334.54 45.742ZM341.547 52V44.72H340.371V52H341.547ZM340.371 43.53C340.693 43.824 341.225 43.824 341.547 43.53C341.869 43.208 341.869 42.662 341.547 42.368C341.225 42.046 340.693 42.046 340.371 42.368C340.077 42.662 340.077 43.208 340.371 43.53ZM342.885 45.756H344.061V49.858C344.061 50.46 344.271 50.978 344.677 51.384C345.083 51.79 345.601 52 346.203 52H347.267V50.866H346.287C345.685 50.866 345.237 50.376 345.237 49.718V45.756H347.267V44.72H345.237V43.264H344.061V44.72H342.885V45.756ZM350.239 51.314C350.239 50.852 349.889 50.474 349.399 50.474C348.909 50.474 348.559 50.824 348.559 51.314C348.559 51.804 348.909 52.154 349.399 52.154C349.889 52.154 350.239 51.804 350.239 51.314ZM358.576 46.764C357.974 45.42 356.672 44.566 355.104 44.566C354.026 44.566 353.116 44.93 352.388 45.658C351.674 46.372 351.31 47.282 351.31 48.36C351.31 49.438 351.674 50.348 352.388 51.076C353.116 51.79 354.026 52.154 355.104 52.154C356.672 52.154 357.974 51.3 358.576 49.956L357.4 49.606C356.966 50.446 356.112 50.978 355.104 50.978C354.376 50.978 353.76 50.726 353.27 50.236C352.78 49.732 352.528 49.102 352.528 48.36C352.528 47.618 352.78 46.988 353.27 46.498C353.76 45.994 354.376 45.742 355.104 45.742C356.112 45.742 356.966 46.274 357.4 47.114L358.576 46.764ZM360.908 51.076C361.636 51.79 362.546 52.154 363.624 52.154C364.702 52.154 365.612 51.79 366.34 51.076C367.068 50.348 367.432 49.438 367.432 48.36C367.432 47.282 367.068 46.372 366.34 45.658C365.612 44.93 364.702 44.566 363.624 44.566C362.546 44.566 361.636 44.93 360.908 45.658C360.194 46.372 359.83 47.282 359.83 48.36C359.83 49.438 360.194 50.348 360.908 51.076ZM363.624 50.978C362.896 50.978 362.28 50.726 361.79 50.236C361.3 49.732 361.048 49.102 361.048 48.36C361.048 47.618 361.3 46.988 361.79 46.498C362.28 45.994 362.896 45.742 363.624 45.742C364.366 45.742 364.982 45.994 365.472 46.498C365.962 46.988 366.214 47.618 366.214 48.36C366.214 49.102 365.962 49.732 365.472 50.236C364.982 50.726 364.366 50.978 363.624 50.978ZM369.18 52H370.356V47.604C370.356 47.058 370.552 46.61 370.944 46.246C371.35 45.868 371.84 45.686 372.428 45.686C373.506 45.686 374.318 46.512 374.318 47.59V52H375.494V47.604C375.494 47.058 375.69 46.61 376.082 46.246C376.488 45.868 376.978 45.686 377.566 45.686C378.644 45.686 379.442 46.512 379.442 47.59V52H380.618V47.268C380.618 46.498 380.352 45.854 379.806 45.336C379.26 44.818 378.588 44.566 377.762 44.566C376.992 44.566 376.334 44.79 375.928 45.126C375.536 45.448 375.34 45.686 375.186 45.966C374.724 45.112 373.814 44.566 372.75 44.566C371.7 44.566 370.902 44.972 370.356 45.784V44.72H369.18V52Z" fill="#74859C"/>
<path d="M235.812 289.994V299.794H237.688V296.336H239.97L242.028 299.794H244.114L241.874 296.014C243.008 295.51 243.736 294.432 243.736 293.158C243.736 292.262 243.414 291.506 242.756 290.904C242.112 290.302 241.314 289.994 240.348 289.994H235.812ZM240.348 291.73C241.174 291.73 241.776 292.332 241.776 293.158C241.776 293.984 241.174 294.6 240.348 294.6H237.688V291.73H240.348ZM252.49 296.798C252.532 296.518 252.546 296.308 252.546 296.154C252.546 295.062 252.182 294.152 251.44 293.41C250.712 292.668 249.802 292.304 248.724 292.304C247.646 292.304 246.736 292.668 245.994 293.41C245.266 294.138 244.902 295.048 244.902 296.154C244.902 297.26 245.28 298.17 246.022 298.912C246.778 299.64 247.716 300.004 248.836 300.004C250.306 300.004 251.566 299.276 252.238 298.114L250.544 297.624C250.124 298.142 249.55 298.394 248.836 298.394C247.814 298.394 246.974 297.75 246.708 296.798H252.49ZM246.722 295.44C246.988 294.53 247.786 293.914 248.696 293.914C249.648 293.914 250.46 294.53 250.74 295.44H246.722ZM255.648 302.944V299.22C256.292 299.738 257.02 300.004 257.846 300.004C258.854 300.004 259.694 299.64 260.38 298.912C261.066 298.17 261.402 297.26 261.402 296.154C261.402 295.048 261.066 294.138 260.38 293.41C259.694 292.668 258.854 292.304 257.846 292.304C257.02 292.304 256.292 292.57 255.648 293.088V292.514H253.898V302.944H255.648ZM259.008 294.656C259.386 295.062 259.582 295.552 259.582 296.154C259.582 296.756 259.386 297.246 259.008 297.652C258.63 298.058 258.168 298.254 257.622 298.254C257.076 298.254 256.614 298.058 256.236 297.652C255.858 297.246 255.676 296.756 255.676 296.154C255.676 295.552 255.858 295.062 256.236 294.656C256.614 294.25 257.076 294.054 257.622 294.054C258.168 294.054 258.63 294.25 259.008 294.656ZM266.163 292.304C265.155 292.304 264.315 292.668 263.629 293.41C262.957 294.138 262.621 295.048 262.621 296.154C262.621 297.26 262.957 298.17 263.629 298.912C264.315 299.64 265.155 300.004 266.163 300.004C266.989 300.004 267.731 299.738 268.375 299.22V299.794H270.111V292.514H268.375V293.088C267.731 292.57 266.989 292.304 266.163 292.304ZM267.773 294.656C268.151 295.062 268.347 295.552 268.347 296.154C268.347 296.756 268.151 297.246 267.773 297.652C267.395 298.058 266.933 298.254 266.387 298.254C265.841 298.254 265.365 298.058 264.987 297.652C264.609 297.246 264.427 296.756 264.427 296.154C264.427 295.552 264.609 295.062 264.987 294.656C265.365 294.25 265.841 294.054 266.387 294.054C266.933 294.054 267.395 294.25 267.773 294.656ZM273.864 300.158C273.57 300.9 273.01 301.278 272.17 301.278H271.89V302.944H272.17C273.78 302.944 274.732 302.272 275.348 300.746L278.638 292.514H276.832L274.928 297.428L273.066 292.514H271.26L274.06 299.654L273.864 300.158ZM281.535 299.794V295.51C281.535 294.628 282.207 293.97 283.061 293.97C283.915 293.97 284.573 294.628 284.573 295.51V299.794H286.323V295.51C286.323 294.628 286.995 293.97 287.849 293.97C288.703 293.97 289.361 294.628 289.361 295.51V299.794H291.097V295.006C291.097 294.236 290.817 293.592 290.271 293.074C289.725 292.556 289.039 292.304 288.199 292.304C287.177 292.304 286.393 292.696 285.875 293.494C285.357 292.696 284.587 292.304 283.579 292.304C282.725 292.304 282.039 292.626 281.535 293.284V292.514H279.785V299.794H281.535ZM300.183 296.798C300.225 296.518 300.239 296.308 300.239 296.154C300.239 295.062 299.875 294.152 299.133 293.41C298.405 292.668 297.495 292.304 296.417 292.304C295.339 292.304 294.429 292.668 293.687 293.41C292.959 294.138 292.595 295.048 292.595 296.154C292.595 297.26 292.973 298.17 293.715 298.912C294.471 299.64 295.409 300.004 296.529 300.004C297.999 300.004 299.259 299.276 299.931 298.114L298.237 297.624C297.817 298.142 297.243 298.394 296.529 298.394C295.507 298.394 294.667 297.75 294.401 296.798H300.183ZM294.415 295.44C294.681 294.53 295.479 293.914 296.389 293.914C297.341 293.914 298.153 294.53 298.433 295.44H294.415ZM301.591 299.794H303.341V295.636C303.341 294.684 304.055 293.97 305.007 293.97C305.945 293.97 306.645 294.684 306.645 295.636V299.794H308.395V295.146C308.395 294.334 308.115 293.662 307.569 293.116C307.023 292.57 306.351 292.304 305.525 292.304C304.601 292.304 303.873 292.668 303.341 293.396V292.514H301.591V299.794ZM309.554 294.04H310.59V297.498C310.59 298.156 310.828 298.702 311.304 299.136C311.78 299.57 312.368 299.794 313.068 299.794H314.146V298.128H313.236C312.718 298.128 312.34 297.75 312.34 297.246V294.04H314.146V292.514H312.34V291.086H310.59V292.514H309.554V294.04ZM326.285 291.982C326.089 291.352 325.669 290.82 325.039 290.414C324.409 289.994 323.653 289.784 322.799 289.784C321.819 289.784 321.021 290.064 320.391 290.61C319.775 291.156 319.467 291.87 319.467 292.752C319.467 293.746 319.943 294.502 320.881 295.006C321.287 295.216 322.071 295.496 323.247 295.846C323.625 295.972 323.681 295.972 324.031 296.14C324.213 296.224 324.353 296.308 324.437 296.378C324.605 296.532 324.787 296.784 324.787 297.064C324.787 297.736 324.017 298.198 323.023 298.198C322.001 298.198 321.217 297.68 321.063 297.064L319.187 297.624C319.397 298.31 319.845 298.87 320.531 299.332C321.217 299.78 322.057 300.004 323.023 300.004C324.101 300.004 324.969 299.724 325.641 299.164C326.327 298.59 326.663 297.834 326.663 296.896C326.663 296.126 326.341 295.468 326.005 295.118C325.837 294.936 325.599 294.754 325.305 294.6C324.703 294.278 324.451 294.222 323.849 294.054C323.037 293.816 322.505 293.648 322.239 293.536C321.637 293.284 321.343 292.976 321.343 292.612C321.343 292.038 322.001 291.576 322.827 291.576C323.611 291.576 324.255 292.01 324.409 292.528L326.285 291.982ZM335.281 294.712C334.721 293.256 333.349 292.304 331.683 292.304C330.577 292.304 329.667 292.668 328.925 293.41C328.197 294.138 327.833 295.048 327.833 296.154C327.833 297.26 328.197 298.17 328.925 298.912C329.667 299.64 330.577 300.004 331.683 300.004C333.349 300.004 334.721 299.052 335.281 297.596L333.531 297.078C333.209 297.806 332.509 298.254 331.683 298.254C331.109 298.254 330.619 298.058 330.227 297.652C329.835 297.246 329.639 296.756 329.639 296.154C329.639 295.552 329.835 295.062 330.227 294.656C330.619 294.25 331.109 294.054 331.683 294.054C332.509 294.054 333.209 294.502 333.531 295.23L335.281 294.712ZM336.637 299.794H338.387V295.636C338.387 294.684 339.115 293.97 340.109 293.97C341.103 293.97 341.831 294.684 341.831 295.636V299.794H343.567V295.146C343.567 294.334 343.287 293.662 342.727 293.116C342.181 292.57 341.481 292.304 340.641 292.304C339.675 292.304 338.933 292.668 338.387 293.396V289.294H336.637V299.794ZM352.647 296.798C352.689 296.518 352.703 296.308 352.703 296.154C352.703 295.062 352.339 294.152 351.597 293.41C350.869 292.668 349.959 292.304 348.881 292.304C347.803 292.304 346.893 292.668 346.151 293.41C345.423 294.138 345.059 295.048 345.059 296.154C345.059 297.26 345.437 298.17 346.179 298.912C346.935 299.64 347.873 300.004 348.993 300.004C350.463 300.004 351.723 299.276 352.395 298.114L350.701 297.624C350.281 298.142 349.707 298.394 348.993 298.394C347.971 298.394 347.131 297.75 346.865 296.798H352.647ZM346.879 295.44C347.145 294.53 347.943 293.914 348.853 293.914C349.805 293.914 350.617 294.53 350.897 295.44H346.879ZM357.331 292.304C356.323 292.304 355.483 292.668 354.797 293.41C354.125 294.138 353.789 295.048 353.789 296.154C353.789 297.26 354.125 298.17 354.797 298.912C355.483 299.64 356.323 300.004 357.331 300.004C358.157 300.004 358.899 299.738 359.543 299.22V299.794H361.279V289.294H359.543V293.088C358.899 292.57 358.157 292.304 357.331 292.304ZM358.941 294.656C359.319 295.062 359.515 295.552 359.515 296.154C359.515 296.756 359.319 297.246 358.941 297.652C358.563 298.058 358.101 298.254 357.555 298.254C357.009 298.254 356.533 298.058 356.155 297.652C355.777 297.246 355.595 296.756 355.595 296.154C355.595 295.552 355.777 295.062 356.155 294.656C356.533 294.25 357.009 294.054 357.555 294.054C358.101 294.054 358.563 294.25 358.941 294.656ZM363.044 297.162C363.044 297.974 363.31 298.646 363.856 299.192C364.402 299.738 365.088 300.004 365.914 300.004C366.838 300.004 367.566 299.64 368.098 298.912V299.794H369.848V292.514H368.098V296.658C368.098 297.61 367.384 298.338 366.446 298.338C365.494 298.338 364.794 297.61 364.794 296.658V292.514H363.044V297.162ZM373.359 299.794V289.294H371.609V299.794H373.359ZM382.451 296.798C382.493 296.518 382.507 296.308 382.507 296.154C382.507 295.062 382.143 294.152 381.401 293.41C380.673 292.668 379.763 292.304 378.685 292.304C377.607 292.304 376.697 292.668 375.955 293.41C375.227 294.138 374.863 295.048 374.863 296.154C374.863 297.26 375.241 298.17 375.983 298.912C376.739 299.64 377.677 300.004 378.797 300.004C380.267 300.004 381.527 299.276 382.199 298.114L380.505 297.624C380.085 298.142 379.511 298.394 378.797 298.394C377.775 298.394 376.935 297.75 376.669 296.798H382.451ZM376.683 295.44C376.949 294.53 377.747 293.914 378.657 293.914C379.609 293.914 380.421 294.53 380.701 295.44H376.683Z" fill="#A4A7B0"/>
<rect x="235" y="180" width="107" height="27" rx="4" fill="#EFF7FF"/>
<rect x="235" y="341.117" width="155" height="27" rx="4" fill="#EFF7FF"/>
<rect x="235" y="395" width="107" height="27" rx="4" fill="#EFF7FF"/>
<rect x="235" y="449" width="127" height="27" rx="4" fill="#EFF7FF"/>
<line x1="235.223" y1="144.646" x2="392.194" y2="144.646" stroke="#D7E9FA" stroke-width="2"/>
<line x1="235.223" y1="244.897" x2="392.194" y2="244.897" stroke="#D7E9FA" stroke-width="2"/>
</g>
<path d="M388 8V4H384H24C12.9543 4 4 12.9543 4 24V544V548H8H384H388V544V8Z" stroke="#BEDFF8" stroke-width="8"/>
<defs>
<clipPath id="clip0_135_1192">
<path d="M8 24C8 15.1634 15.1634 8 24 8H384V544H8V24Z" fill="white"/>
</clipPath>
</defs>
</svg>
