<svg xmlns="http://www.w3.org/2000/svg" viewBox="0 0 44.34 47.62"><defs><style>.cls-1{fill:#19355f;}.cls-2{fill:#e1ae68;}</style></defs><g id="Layer_2" data-name="Layer 2"><g id="Layer_1-2" data-name="Layer 1"><path class="cls-1" d="M19.19,14.68Q31,14.68,31,28.36V47.62h-8.7V30.55q0-4.46-1.52-6.28a5.84,5.84,0,0,0-4.72-1.82,6.76,6.76,0,0,0-5.38,2.29q-2,2.3-2,6.54V47.62H0V15.21H8.7v4.18h.13A12.94,12.94,0,0,1,19.19,14.68Z"/><path class="cls-2" d="M38.89,10.63a5.2,5.2,0,0,1-3.78-1.57,5,5,0,0,1-1.59-3.75,5.07,5.07,0,0,1,1.59-3.75A5.23,5.23,0,0,1,38.89,0a5.33,5.33,0,0,1,3.86,1.56,5.07,5.07,0,0,1,1.59,3.75,5,5,0,0,1-1.59,3.75A5.3,5.3,0,0,1,38.89,10.63Zm-4.38,37V15.21h8.7V47.62Z"/></g></g></svg>