<svg width="33" height="40" viewBox="0 0 33 40" fill="none" xmlns="http://www.w3.org/2000/svg">
<path d="M30.8814 11.5492C29.9196 11.757 29.1097 12.1725 28.1985 12.5361C25.9712 13.4192 10.3291 19.8083 9.46858 19.9641C8.65863 19.8083 4.30519 17.9383 3.1409 17.4708C-0.200113 16.1722 0.00236632 15.6008 0.00236632 11.5492C0.00236632 8.53645 0.00236632 5.47175 0.00236632 2.45899C-0.0482551 -1.59264 3.19152 0.381231 5.36824 1.26428C6.9375 1.88761 30.3246 11.0817 30.8814 11.5492Z" fill="#29C9EC"/>
<path d="M31.084 28.379L2.38164 39.9106C0.862996 40.3261 0.103675 39.2353 0.103675 37.8328C0.0530538 34.7681 0.103675 31.7034 0.103675 28.5868C0.103675 24.8468 -0.351921 23.8599 3.09034 22.5093L9.51926 20.016C13.2146 21.4185 16.7581 22.8729 20.3016 24.2754C21.8203 24.8988 30.0716 28.431 31.084 28.379Z" fill="#EA348B"/>
<path d="M31.0839 28.379C30.1221 28.4309 21.8202 24.8987 20.3015 24.3273C16.7074 22.9248 13.2145 21.4704 9.51917 20.0679V19.964C10.3797 19.7563 26.0217 13.3671 28.2491 12.536C29.1096 12.2244 29.9702 11.8088 30.932 11.5491C33.0075 11.8608 32.805 13.4191 32.805 14.6138V24.9507C32.805 26.9765 32.9063 27.9634 31.0839 28.379Z" fill="#3B2F92"/>
</svg>
