<svg width="384" height="544" viewBox="0 0 384 544" fill="none" xmlns="http://www.w3.org/2000/svg">
<g clip-path="url(#clip0_135_1127)">
<path d="M8 24C8 15.1634 15.1634 8 24 8H384V544H8V24Z" fill="white"/>
<rect width="184" height="470" transform="translate(8 74)" fill="#EFF7FF"/>
<path fill-rule="evenodd" clip-rule="evenodd" d="M65.7937 130.654C65.0638 130.822 64.4181 131.131 63.7444 131.384C62.0319 132.03 49.9883 136.83 49.3145 136.971C48.6969 136.858 45.3281 135.455 44.4578 135.118C41.9031 134.135 42.0435 133.714 42.0435 130.682C42.0435 128.408 42.0435 126.134 42.0435 123.86C42.0154 120.828 44.514 122.288 46.1703 122.962C47.3494 123.411 65.3726 130.317 65.7937 130.654Z" fill="#29C9EC"/>
<path fill-rule="evenodd" clip-rule="evenodd" d="M65.9342 143.318L43.8122 151.992C42.6612 152.301 42.0436 151.487 42.0436 150.42C42.0155 148.118 42.0436 145.816 42.0436 143.486C42.0436 140.679 41.7067 139.949 44.3456 138.938L49.3147 137.057C52.1501 138.124 54.8732 139.191 57.6244 140.258C58.8035 140.707 65.1762 143.346 65.9342 143.318Z" fill="#E73E89"/>
<path fill-rule="evenodd" clip-rule="evenodd" d="M65.9343 143.317C65.1763 143.345 58.8036 140.706 57.6245 140.257C54.8733 139.19 52.1501 138.123 49.3147 137.057V136.972C49.9885 136.832 62.032 132.031 63.7445 131.386C64.4183 131.133 65.064 130.824 65.7939 130.656C67.3941 130.88 67.2537 132.059 67.2537 132.958V140.734C67.2537 142.25 67.3379 143.008 65.9343 143.317Z" fill="#3A2E91"/>
<rect x="83" y="127.986" width="82" height="18" rx="4" fill="#D7E9FA"/>
<rect x="42" y="217" width="24" height="13" rx="4" fill="#DDEEFF"/>
<path d="M85.4443 227V223.496H89.5603V227H91.1803V218.6H89.5603V222.008H85.4443V218.6H83.8363V227H85.4443ZM93.3348 226.244C93.9708 226.868 94.7508 227.18 95.6988 227.18C96.6468 227.18 97.4268 226.868 98.0628 226.244C98.6988 225.608 99.0108 224.828 99.0108 223.88C99.0108 222.932 98.6988 222.152 98.0628 221.528C97.4268 220.892 96.6468 220.58 95.6988 220.58C94.7508 220.58 93.9708 220.892 93.3348 221.528C92.7108 222.152 92.3988 222.932 92.3988 223.88C92.3988 224.828 92.7108 225.608 93.3348 226.244ZM94.4508 222.596C94.7868 222.248 95.2068 222.08 95.6988 222.08C96.1908 222.08 96.6108 222.248 96.9468 222.596C97.2828 222.944 97.4508 223.364 97.4508 223.88C97.4508 224.396 97.2828 224.816 96.9468 225.164C96.6108 225.512 96.1908 225.68 95.6988 225.68C95.2068 225.68 94.7868 225.512 94.4508 225.164C94.1148 224.816 93.9468 224.396 93.9468 223.88C93.9468 223.364 94.1148 222.944 94.4508 222.596ZM101.665 227V223.328C101.665 222.572 102.241 222.008 102.973 222.008C103.705 222.008 104.269 222.572 104.269 223.328V227H105.769V223.328C105.769 222.572 106.345 222.008 107.077 222.008C107.809 222.008 108.373 222.572 108.373 223.328V227H109.861V222.896C109.861 222.236 109.621 221.684 109.153 221.24C108.685 220.796 108.097 220.58 107.377 220.58C106.501 220.58 105.829 220.916 105.385 221.6C104.941 220.916 104.281 220.58 103.417 220.58C102.685 220.58 102.097 220.856 101.665 221.42V220.76H100.165V227H101.665ZM117.53 224.432C117.566 224.192 117.578 224.012 117.578 223.88C117.578 222.944 117.266 222.164 116.63 221.528C116.006 220.892 115.226 220.58 114.302 220.58C113.378 220.58 112.598 220.892 111.962 221.528C111.338 222.152 111.026 222.932 111.026 223.88C111.026 224.828 111.35 225.608 111.986 226.244C112.634 226.868 113.438 227.18 114.398 227.18C115.658 227.18 116.738 226.556 117.314 225.56L115.862 225.14C115.502 225.584 115.01 225.8 114.398 225.8C113.522 225.8 112.802 225.248 112.574 224.432H117.53ZM112.586 223.268C112.814 222.488 113.498 221.96 114.278 221.96C115.094 221.96 115.79 222.488 116.03 223.268H112.586Z" fill="#8BA4BC"/>
<rect x="42" y="345" width="24" height="13" rx="4" fill="#DDEEFF"/>
<path d="M82.5045 355V351.496H86.6205V355H88.2405V346.6H86.6205V350.008H82.5045V346.6H80.8965V355H82.5045ZM91.187 355V348.76H89.687V355H91.187ZM90.431 348.208C90.995 348.208 91.391 347.788 91.391 347.248C91.391 346.708 90.971 346.3 90.431 346.3C89.891 346.3 89.483 346.708 89.483 347.248C89.483 347.788 89.891 348.208 90.431 348.208ZM97.2044 350.26C97.0484 349.216 96.1724 348.58 94.8164 348.58C93.3884 348.58 92.4044 349.216 92.4044 350.524C92.4044 351.4 92.8364 351.916 93.8924 352.264L95.1764 352.672C95.6444 352.828 95.8724 353.032 95.8724 353.272C95.8724 353.656 95.4404 353.884 94.8644 353.884C94.1804 353.884 93.7484 353.584 93.6404 353.14L92.2364 353.344C92.4164 354.484 93.3284 355.18 94.8284 355.18C96.2684 355.18 97.3004 354.52 97.3004 353.224C97.3004 352.324 96.8204 351.748 95.6684 351.352L94.3844 350.92C94.0124 350.788 93.8324 350.62 93.8324 350.416C93.8324 350.068 94.2164 349.876 94.7084 349.876C95.3084 349.876 95.6684 350.08 95.8004 350.488L97.2044 350.26ZM97.8837 350.068H98.7717V353.032C98.7717 353.596 98.9757 354.064 99.3837 354.436C99.7917 354.808 100.296 355 100.896 355H101.82V353.572H101.04C100.596 353.572 100.272 353.248 100.272 352.816V350.068H101.82V348.76H100.272V347.536H98.7717V348.76H97.8837V350.068ZM103.575 354.244C104.211 354.868 104.991 355.18 105.939 355.18C106.887 355.18 107.667 354.868 108.303 354.244C108.939 353.608 109.251 352.828 109.251 351.88C109.251 350.932 108.939 350.152 108.303 349.528C107.667 348.892 106.887 348.58 105.939 348.58C104.991 348.58 104.211 348.892 103.575 349.528C102.951 350.152 102.639 350.932 102.639 351.88C102.639 352.828 102.951 353.608 103.575 354.244ZM104.691 350.596C105.027 350.248 105.447 350.08 105.939 350.08C106.431 350.08 106.851 350.248 107.187 350.596C107.523 350.944 107.691 351.364 107.691 351.88C107.691 352.396 107.523 352.816 107.187 353.164C106.851 353.512 106.431 353.68 105.939 353.68C105.447 353.68 105.027 353.512 104.691 353.164C104.355 352.816 104.187 352.396 104.187 351.88C104.187 351.364 104.355 350.944 104.691 350.596ZM111.905 348.76H110.405V355H111.905V351.568C111.905 350.74 112.517 350.116 113.345 350.116C113.561 350.116 113.765 350.164 113.957 350.248V348.58C113.021 348.58 112.337 348.892 111.905 349.528V348.76ZM116.6 355.312C116.348 355.948 115.868 356.272 115.148 356.272H114.908V357.7H115.148C116.528 357.7 117.344 357.124 117.872 355.816L120.692 348.76H119.144L117.512 352.972L115.916 348.76H114.368L116.768 354.88L116.6 355.312Z" fill="#8BA4BC"/>
<rect x="42" y="281" width="24" height="13" rx="4" fill="#DDEEFF"/>
<rect x="83" y="281" width="65" height="13" rx="4" fill="#DDEEFF"/>
<rect x="42" y="409" width="24" height="13" rx="4" fill="#DDEEFF"/>
<rect x="83" y="409" width="50" height="13" rx="4" fill="#DDEEFF"/>
<rect x="42" y="470" width="24" height="13" rx="4" fill="#DDEEFF"/>
<rect x="83" y="470" width="64" height="13" rx="4" fill="#DDEEFF"/>
<rect width="376" height="80" transform="translate(8 8)" fill="#F4F6F8"/>
<circle cx="48" cy="48" r="8" fill="#FF3A3C"/>
<circle cx="84" cy="48" r="8" fill="#B6B7BE"/>
<circle cx="120" cy="48" r="8" fill="#2ED573"/>
<g clip-path="url(#clip1_135_1127)">
<path d="M211 40C211 35.5817 214.582 32 219 32H384V64H219C214.582 64 211 60.4183 211 56V40Z" fill="#CCE3FF"/>
<path d="M233.667 46.6668H234.333C234.51 46.6668 234.68 46.7371 234.805 46.8621C234.93 46.9871 235 47.1567 235 47.3335V54.0002C235 54.177 234.93 54.3465 234.805 54.4716C234.68 54.5966 234.51 54.6668 234.333 54.6668H223.667C223.49 54.6668 223.32 54.5966 223.195 54.4716C223.07 54.3465 223 54.177 223 54.0002V47.3335C223 47.1567 223.07 46.9871 223.195 46.8621C223.32 46.7371 223.49 46.6668 223.667 46.6668H224.333V46.0002C224.333 45.3873 224.454 44.7805 224.689 44.2143C224.923 43.6481 225.267 43.1337 225.7 42.7003C226.134 42.267 226.648 41.9232 227.214 41.6887C227.78 41.4542 228.387 41.3335 229 41.3335C229.613 41.3335 230.22 41.4542 230.786 41.6887C231.352 41.9232 231.866 42.267 232.3 42.7003C232.733 43.1337 233.077 43.6481 233.311 44.2143C233.546 44.7805 233.667 45.3873 233.667 46.0002V46.6668ZM232.333 46.6668V46.0002C232.333 45.1161 231.982 44.2683 231.357 43.6431C230.732 43.018 229.884 42.6668 229 42.6668C228.116 42.6668 227.268 43.018 226.643 43.6431C226.018 44.2683 225.667 45.1161 225.667 46.0002V46.6668H232.333ZM228.333 49.3335V52.0002H229.667V49.3335H228.333Z" fill="#74859C"/>
<path d="M249.121 52L250.885 46.68L252.649 52H253.671L256.163 44.72H254.973L253.181 50.194L251.403 44.72H250.367L248.589 50.18L246.811 44.72H245.621L248.099 52H249.121ZM260.184 52L261.948 46.68L263.712 52H264.734L267.226 44.72H266.036L264.244 50.194L262.466 44.72H261.43L259.652 50.18L257.874 44.72H256.684L259.162 52H260.184ZM271.248 52L273.012 46.68L274.776 52H275.798L278.29 44.72H277.1L275.308 50.194L273.53 44.72H272.494L270.716 50.18L268.938 44.72H267.748L270.226 52H271.248ZM280.175 51.314C280.175 50.852 279.825 50.474 279.335 50.474C278.845 50.474 278.495 50.824 278.495 51.314C278.495 51.804 278.845 52.154 279.335 52.154C279.825 52.154 280.175 51.804 280.175 51.314ZM281.965 52H283.141V47.8C283.141 47.198 283.365 46.708 283.799 46.302C284.233 45.896 284.779 45.686 285.409 45.686C285.997 45.686 286.487 45.882 286.879 46.288C287.285 46.694 287.481 47.184 287.481 47.772V52H288.657V47.464C288.657 46.638 288.377 45.938 287.817 45.392C287.271 44.846 286.571 44.566 285.731 44.566C284.569 44.566 283.715 45.028 283.141 45.938V44.72H281.965V52ZM291.459 51.076C292.187 51.79 293.097 52.154 294.175 52.154C295.253 52.154 296.163 51.79 296.891 51.076C297.619 50.348 297.983 49.438 297.983 48.36C297.983 47.282 297.619 46.372 296.891 45.658C296.163 44.93 295.253 44.566 294.175 44.566C293.097 44.566 292.187 44.93 291.459 45.658C290.745 46.372 290.381 47.282 290.381 48.36C290.381 49.438 290.745 50.348 291.459 51.076ZM294.175 50.978C293.447 50.978 292.831 50.726 292.341 50.236C291.851 49.732 291.599 49.102 291.599 48.36C291.599 47.618 291.851 46.988 292.341 46.498C292.831 45.994 293.447 45.742 294.175 45.742C294.917 45.742 295.533 45.994 296.023 46.498C296.513 46.988 296.765 47.618 296.765 48.36C296.765 49.102 296.513 49.732 296.023 50.236C295.533 50.726 294.917 50.978 294.175 50.978ZM302.937 44.566C301.915 44.566 301.061 44.93 300.375 45.658C299.689 46.372 299.353 47.282 299.353 48.36C299.353 49.438 299.689 50.348 300.375 51.076C301.061 51.79 301.915 52.154 302.937 52.154C304.015 52.154 304.911 51.762 305.597 50.964V52H306.773V41.5H305.597V45.756C304.911 44.958 304.015 44.566 302.937 44.566ZM303.063 45.742C303.777 45.742 304.365 45.994 304.841 46.498C305.331 46.988 305.569 47.618 305.569 48.36C305.569 49.102 305.331 49.732 304.841 50.236C304.365 50.726 303.777 50.978 303.063 50.978C302.363 50.978 301.775 50.726 301.285 50.236C300.809 49.732 300.571 49.102 300.571 48.36C300.571 47.618 300.809 46.988 301.285 46.498C301.775 45.994 302.363 45.742 303.063 45.742ZM308.111 45.756H309.287V49.858C309.287 50.46 309.497 50.978 309.903 51.384C310.309 51.79 310.827 52 311.429 52H312.493V50.866H311.513C310.911 50.866 310.463 50.376 310.463 49.718V45.756H312.493V44.72H310.463V43.264H309.287V44.72H308.111V45.756ZM315.283 47.884C315.283 47.282 315.507 46.792 315.941 46.386C316.375 45.98 316.921 45.784 317.551 45.784C317.747 45.784 317.915 45.812 318.069 45.868V44.566H317.873C316.697 44.566 315.829 45.028 315.283 45.952V44.72H314.107V52H315.283V47.884ZM322.361 44.566C321.339 44.566 320.485 44.93 319.799 45.658C319.113 46.372 318.777 47.282 318.777 48.36C318.777 49.438 319.113 50.348 319.799 51.076C320.485 51.79 321.339 52.154 322.361 52.154C323.439 52.154 324.335 51.762 325.021 50.964V52H326.197V44.72H325.021V45.756C324.335 44.958 323.439 44.566 322.361 44.566ZM322.487 45.742C323.201 45.742 323.789 45.994 324.265 46.498C324.755 46.988 324.993 47.618 324.993 48.36C324.993 49.102 324.755 49.732 324.265 50.236C323.789 50.726 323.201 50.978 322.487 50.978C321.787 50.978 321.199 50.726 320.709 50.236C320.233 49.732 319.995 49.102 319.995 48.36C319.995 47.618 320.233 46.988 320.709 46.498C321.199 45.994 321.787 45.742 322.487 45.742ZM328.319 52H329.495V47.8C329.495 47.198 329.719 46.708 330.153 46.302C330.587 45.896 331.133 45.686 331.763 45.686C332.351 45.686 332.841 45.882 333.233 46.288C333.639 46.694 333.835 47.184 333.835 47.772V52H335.011V47.464C335.011 46.638 334.731 45.938 334.171 45.392C333.625 44.846 332.925 44.566 332.085 44.566C330.923 44.566 330.069 45.028 329.495 45.938V44.72H328.319V52ZM342.055 46.302C341.845 45.238 340.879 44.566 339.465 44.566C337.939 44.566 336.847 45.308 336.847 46.638C336.847 47.506 337.351 48.122 338.373 48.472L340.109 49.074C340.753 49.298 341.075 49.634 341.075 50.068C341.075 50.684 340.389 51.118 339.493 51.118C338.555 51.118 337.911 50.684 337.757 50.054L336.651 50.25C336.861 51.412 337.897 52.154 339.465 52.154C341.047 52.154 342.195 51.37 342.195 50.026C342.195 49.116 341.635 48.444 340.529 48.038L338.751 47.408C338.233 47.226 337.981 46.932 337.981 46.554C337.981 45.98 338.583 45.602 339.381 45.602C340.221 45.602 340.795 45.952 340.949 46.498L342.055 46.302ZM345.563 43.782C345.563 43.124 346.011 42.634 346.613 42.634H347.495V41.5H346.529C345.927 41.5 345.409 41.71 345.003 42.116C344.597 42.522 344.387 43.04 344.387 43.642V44.72H343.169V45.756H344.387V52H345.563V45.756H347.509V44.72H345.563V43.782ZM355.743 48.766C355.757 48.584 355.771 48.444 355.771 48.36C355.771 47.282 355.407 46.372 354.693 45.658C353.979 44.93 353.083 44.566 352.019 44.566C350.955 44.566 350.059 44.93 349.345 45.658C348.631 46.372 348.267 47.282 348.267 48.36C348.267 49.438 348.631 50.348 349.373 51.076C350.115 51.79 351.039 52.154 352.145 52.154C353.559 52.154 354.777 51.468 355.449 50.362L354.301 49.998C353.783 50.698 353.069 51.048 352.145 51.048C351.445 51.048 350.843 50.838 350.353 50.404C349.863 49.97 349.569 49.424 349.485 48.766H355.743ZM349.499 47.814C349.611 47.184 349.891 46.666 350.353 46.26C350.815 45.854 351.361 45.658 351.991 45.658C352.635 45.658 353.195 45.854 353.671 46.26C354.147 46.666 354.441 47.184 354.553 47.814H349.499ZM358.588 47.884C358.588 47.282 358.812 46.792 359.246 46.386C359.68 45.98 360.226 45.784 360.856 45.784C361.052 45.784 361.22 45.812 361.374 45.868V44.566H361.178C360.002 44.566 359.134 45.028 358.588 45.952V44.72H357.412V52H358.588V47.884ZM363.216 51.314C363.216 50.852 362.866 50.474 362.376 50.474C361.886 50.474 361.536 50.824 361.536 51.314C361.536 51.804 361.886 52.154 362.376 52.154C362.866 52.154 363.216 51.804 363.216 51.314ZM371.552 46.764C370.95 45.42 369.648 44.566 368.08 44.566C367.002 44.566 366.092 44.93 365.364 45.658C364.65 46.372 364.286 47.282 364.286 48.36C364.286 49.438 364.65 50.348 365.364 51.076C366.092 51.79 367.002 52.154 368.08 52.154C369.648 52.154 370.95 51.3 371.552 49.956L370.376 49.606C369.942 50.446 369.088 50.978 368.08 50.978C367.352 50.978 366.736 50.726 366.246 50.236C365.756 49.732 365.504 49.102 365.504 48.36C365.504 47.618 365.756 46.988 366.246 46.498C366.736 45.994 367.352 45.742 368.08 45.742C369.088 45.742 369.942 46.274 370.376 47.114L371.552 46.764ZM373.885 51.076C374.613 51.79 375.523 52.154 376.601 52.154C377.679 52.154 378.589 51.79 379.317 51.076C380.045 50.348 380.409 49.438 380.409 48.36C380.409 47.282 380.045 46.372 379.317 45.658C378.589 44.93 377.679 44.566 376.601 44.566C375.523 44.566 374.613 44.93 373.885 45.658C373.171 46.372 372.807 47.282 372.807 48.36C372.807 49.438 373.171 50.348 373.885 51.076ZM376.601 50.978C375.873 50.978 375.257 50.726 374.767 50.236C374.277 49.732 374.025 49.102 374.025 48.36C374.025 47.618 374.277 46.988 374.767 46.498C375.257 45.994 375.873 45.742 376.601 45.742C377.343 45.742 377.959 45.994 378.449 46.498C378.939 46.988 379.191 47.618 379.191 48.36C379.191 49.102 378.939 49.732 378.449 50.236C377.959 50.726 377.343 50.978 376.601 50.978ZM382.157 52H383.333V47.604C383.333 47.058 383.529 46.61 383.921 46.246C384.327 45.868 384.817 45.686 385.405 45.686C386.483 45.686 387.295 46.512 387.295 47.59V52H388.471V47.604C388.471 47.058 388.667 46.61 389.059 46.246C389.465 45.868 389.955 45.686 390.543 45.686C391.621 45.686 392.419 46.512 392.419 47.59V52H393.595V47.268C393.595 46.498 393.329 45.854 392.783 45.336C392.237 44.818 391.565 44.566 390.739 44.566C389.969 44.566 389.311 44.79 388.905 45.126C388.513 45.448 388.317 45.686 388.163 45.966C387.701 45.112 386.791 44.566 385.727 44.566C384.677 44.566 383.879 44.972 383.333 45.784V44.72H382.157V52Z" fill="#74859C"/>
</g>
<g clip-path="url(#clip2_135_1127)">
<path d="M278.627 196L280.685 189.448L282.743 196H284.269L287.587 186.2H285.669L283.541 192.99L281.455 186.2H279.915L277.843 192.99L275.701 186.2H273.769L277.087 196H278.627ZM290.875 188.51C289.867 188.51 289.027 188.874 288.341 189.616C287.669 190.344 287.333 191.254 287.333 192.36C287.333 193.466 287.669 194.376 288.341 195.118C289.027 195.846 289.867 196.21 290.875 196.21C291.701 196.21 292.443 195.944 293.087 195.426V196H294.823V188.72H293.087V189.294C292.443 188.776 291.701 188.51 290.875 188.51ZM292.485 190.862C292.863 191.268 293.059 191.758 293.059 192.36C293.059 192.962 292.863 193.452 292.485 193.858C292.107 194.264 291.645 194.46 291.099 194.46C290.553 194.46 290.077 194.264 289.699 193.858C289.321 193.452 289.139 192.962 289.139 192.36C289.139 191.758 289.321 191.268 289.699 190.862C290.077 190.456 290.553 190.26 291.099 190.26C291.645 190.26 292.107 190.456 292.485 190.862ZM298.338 196V185.5H296.588V196H298.338ZM301.858 196V185.5H300.108V196H301.858ZM310.95 193.004C310.992 192.724 311.006 192.514 311.006 192.36C311.006 191.268 310.642 190.358 309.9 189.616C309.172 188.874 308.262 188.51 307.184 188.51C306.106 188.51 305.196 188.874 304.454 189.616C303.726 190.344 303.362 191.254 303.362 192.36C303.362 193.466 303.74 194.376 304.482 195.118C305.238 195.846 306.176 196.21 307.296 196.21C308.766 196.21 310.026 195.482 310.698 194.32L309.004 193.83C308.584 194.348 308.01 194.6 307.296 194.6C306.274 194.6 305.434 193.956 305.168 193.004H310.95ZM305.182 191.646C305.448 190.736 306.246 190.12 307.156 190.12C308.108 190.12 308.92 190.736 309.2 191.646H305.182ZM311.755 190.246H312.791V193.704C312.791 194.362 313.029 194.908 313.505 195.342C313.981 195.776 314.569 196 315.269 196H316.347V194.334H315.437C314.919 194.334 314.541 193.956 314.541 193.452V190.246H316.347V188.72H314.541V187.292H312.791V188.72H311.755V190.246ZM326.695 196C327.591 196 328.347 195.734 328.949 195.202C329.551 194.656 329.859 193.998 329.859 193.2C329.859 192.178 329.397 191.394 328.487 190.848C329.117 190.33 329.439 189.672 329.439 188.874C329.439 188.104 329.145 187.474 328.571 186.97C327.997 186.452 327.283 186.2 326.415 186.2H321.669V196H326.695ZM326.695 191.828C327.381 191.828 327.899 192.36 327.899 193.046C327.899 193.732 327.381 194.264 326.695 194.264H323.545V191.828H326.695ZM326.415 187.936C327.031 187.936 327.493 188.398 327.493 189.014C327.493 189.644 327.031 190.106 326.415 190.106H323.545V187.936H326.415ZM334.561 188.51C333.553 188.51 332.713 188.874 332.027 189.616C331.355 190.344 331.019 191.254 331.019 192.36C331.019 193.466 331.355 194.376 332.027 195.118C332.713 195.846 333.553 196.21 334.561 196.21C335.387 196.21 336.129 195.944 336.773 195.426V196H338.509V188.72H336.773V189.294C336.129 188.776 335.387 188.51 334.561 188.51ZM336.171 190.862C336.549 191.268 336.745 191.758 336.745 192.36C336.745 192.962 336.549 193.452 336.171 193.858C335.793 194.264 335.331 194.46 334.785 194.46C334.239 194.46 333.763 194.264 333.385 193.858C333.007 193.452 332.825 192.962 332.825 192.36C332.825 191.758 333.007 191.268 333.385 190.862C333.763 190.456 334.239 190.26 334.785 190.26C335.331 190.26 335.793 190.456 336.171 190.862ZM342.024 196V185.5H340.274V196H342.024ZM347.071 188.51C346.063 188.51 345.223 188.874 344.537 189.616C343.865 190.344 343.529 191.254 343.529 192.36C343.529 193.466 343.865 194.376 344.537 195.118C345.223 195.846 346.063 196.21 347.071 196.21C347.897 196.21 348.639 195.944 349.283 195.426V196H351.019V188.72H349.283V189.294C348.639 188.776 347.897 188.51 347.071 188.51ZM348.681 190.862C349.059 191.268 349.255 191.758 349.255 192.36C349.255 192.962 349.059 193.452 348.681 193.858C348.303 194.264 347.841 194.46 347.295 194.46C346.749 194.46 346.273 194.264 345.895 193.858C345.517 193.452 345.335 192.962 345.335 192.36C345.335 191.758 345.517 191.268 345.895 190.862C346.273 190.456 346.749 190.26 347.295 190.26C347.841 190.26 348.303 190.456 348.681 190.862ZM352.784 196H354.534V191.842C354.534 190.89 355.248 190.176 356.2 190.176C357.138 190.176 357.838 190.89 357.838 191.842V196H359.588V191.352C359.588 190.54 359.308 189.868 358.762 189.322C358.216 188.776 357.544 188.51 356.718 188.51C355.794 188.51 355.066 188.874 354.534 189.602V188.72H352.784V196ZM368.531 190.918C367.971 189.462 366.599 188.51 364.933 188.51C363.827 188.51 362.917 188.874 362.175 189.616C361.447 190.344 361.083 191.254 361.083 192.36C361.083 193.466 361.447 194.376 362.175 195.118C362.917 195.846 363.827 196.21 364.933 196.21C366.599 196.21 367.971 195.258 368.531 193.802L366.781 193.284C366.459 194.012 365.759 194.46 364.933 194.46C364.359 194.46 363.869 194.264 363.477 193.858C363.085 193.452 362.889 192.962 362.889 192.36C362.889 191.758 363.085 191.268 363.477 190.862C363.869 190.456 364.359 190.26 364.933 190.26C365.759 190.26 366.459 190.708 366.781 191.436L368.531 190.918ZM377.209 193.004C377.251 192.724 377.265 192.514 377.265 192.36C377.265 191.268 376.901 190.358 376.159 189.616C375.431 188.874 374.521 188.51 373.443 188.51C372.365 188.51 371.455 188.874 370.713 189.616C369.985 190.344 369.621 191.254 369.621 192.36C369.621 193.466 369.999 194.376 370.741 195.118C371.497 195.846 372.435 196.21 373.555 196.21C375.025 196.21 376.285 195.482 376.957 194.32L375.263 193.83C374.843 194.348 374.269 194.6 373.555 194.6C372.533 194.6 371.693 193.956 371.427 193.004H377.209ZM371.441 191.646C371.707 190.736 372.505 190.12 373.415 190.12C374.367 190.12 375.179 190.736 375.459 191.646H371.441Z" fill="#A4A7B0"/>
<path d="M275.819 249V241.096H273.963V238.728H275.819V236.424H273.963V234.056H275.819V226.152H280.843L283.339 234.056H286.251V226.152H289.803V234.056H291.627V236.424H289.803V238.728H291.627V241.096H289.803V249H284.747L282.187 241.096H279.371V249H275.819ZM279.371 238.728H281.483L280.779 236.424H279.307L279.371 238.728ZM286.347 244.008H286.507L286.379 241.096H285.515L286.347 244.008ZM279.243 234.056H280.139L279.211 230.984H279.083L279.243 234.056ZM284.843 238.728H286.315L286.251 236.424H284.107L284.843 238.728ZM310.644 241.864C310.644 239.688 309.812 237.864 308.116 236.424C306.452 234.984 304.372 234.248 301.844 234.248H299.604L299.956 230.408H308.724V226.6H296.532L295.38 238.024H301.62C302.964 238.024 304.084 238.376 304.98 239.112C305.908 239.848 306.356 240.744 306.356 241.864C306.356 242.888 305.94 243.752 305.108 244.456C304.308 245.16 303.284 245.512 302.1 245.512C300.148 245.512 298.548 244.392 297.812 242.632L293.684 243.752C294.932 247.208 298.1 249.48 302.068 249.48C304.532 249.48 306.548 248.744 308.18 247.304C309.812 245.832 310.644 244.008 310.644 241.864ZM330.341 230.472C328.901 227.816 326.021 226.12 322.565 226.12C320.101 226.12 318.053 226.888 316.389 228.424C314.757 229.96 313.925 231.88 313.925 234.152V242.024C313.925 244.136 314.725 245.896 316.325 247.336C317.957 248.776 319.941 249.48 322.341 249.48C324.741 249.48 326.725 248.776 328.325 247.368C329.957 245.928 330.757 244.168 330.757 242.088C330.757 239.944 329.957 238.184 328.357 236.744C326.757 235.304 324.773 234.568 322.405 234.568C320.805 234.568 319.365 234.92 318.053 235.624V234.088C318.053 232.968 318.469 232.008 319.301 231.24C320.165 230.472 321.221 230.088 322.501 230.088C324.357 230.088 325.701 230.824 326.501 232.296L330.341 230.472ZM318.213 241.992C318.213 240.072 320.005 238.536 322.341 238.536C323.525 238.536 324.485 238.888 325.285 239.56C326.085 240.232 326.469 241.096 326.469 242.088C326.469 244.008 324.677 245.512 322.341 245.512C320.005 245.512 318.213 244.008 318.213 241.992ZM333.845 241.416C333.845 243.72 334.677 245.64 336.309 247.176C337.973 248.712 340.053 249.48 342.517 249.48C344.981 249.48 347.061 248.712 348.693 247.176C350.357 245.64 351.189 243.72 351.189 241.416V234.184C351.189 231.88 350.357 229.96 348.693 228.424C347.061 226.888 344.981 226.12 342.517 226.12C340.053 226.12 337.973 226.888 336.309 228.424C334.677 229.96 333.845 231.88 333.845 234.184V241.416ZM338.005 234.12C338.005 233 338.421 232.04 339.285 231.272C340.149 230.472 341.237 230.088 342.517 230.088C343.797 230.088 344.885 230.472 345.749 231.272C346.613 232.04 347.061 233 347.061 234.12V241.48C347.061 242.6 346.613 243.56 345.749 244.36C344.885 245.128 343.797 245.512 342.517 245.512C341.237 245.512 340.149 245.128 339.285 244.36C338.421 243.56 338.005 242.6 338.005 241.48V234.12ZM359.539 247.848C359.539 245.896 358.419 244.488 356.787 244.488C355.347 244.488 354.291 245.544 354.291 246.92C354.291 248.168 355.187 249.224 356.339 249.448C356.339 250.056 355.731 250.952 354.515 252.2L355.795 253.512C358.291 251.848 359.539 249.96 359.539 247.848ZM362.657 241.416C362.657 243.72 363.489 245.64 365.121 247.176C366.785 248.712 368.865 249.48 371.329 249.48C373.793 249.48 375.873 248.712 377.505 247.176C379.169 245.64 380.001 243.72 380.001 241.416V234.184C380.001 231.88 379.169 229.96 377.505 228.424C375.873 226.888 373.793 226.12 371.329 226.12C368.865 226.12 366.785 226.888 365.121 228.424C363.489 229.96 362.657 231.88 362.657 234.184V241.416ZM366.817 234.12C366.817 233 367.233 232.04 368.097 231.272C368.961 230.472 370.049 230.088 371.329 230.088C372.609 230.088 373.697 230.472 374.561 231.272C375.425 232.04 375.873 233 375.873 234.12V241.48C375.873 242.6 375.425 243.56 374.561 244.36C373.697 245.128 372.609 245.512 371.329 245.512C370.049 245.512 368.961 245.128 368.097 244.36C367.233 243.56 366.817 242.6 366.817 241.48V234.12ZM383.39 241.416C383.39 243.72 384.222 245.64 385.854 247.176C387.518 248.712 389.598 249.48 392.062 249.48C394.526 249.48 396.606 248.712 398.238 247.176C399.902 245.64 400.734 243.72 400.734 241.416V234.184C400.734 231.88 399.902 229.96 398.238 228.424C396.606 226.888 394.526 226.12 392.062 226.12C389.598 226.12 387.518 226.888 385.854 228.424C384.222 229.96 383.39 231.88 383.39 234.184V241.416ZM387.55 234.12C387.55 233 387.966 232.04 388.83 231.272C389.694 230.472 390.782 230.088 392.062 230.088C393.342 230.088 394.43 230.472 395.294 231.272C396.158 232.04 396.606 233 396.606 234.12V241.48C396.606 242.6 396.158 243.56 395.294 244.36C394.43 245.128 393.342 245.512 392.062 245.512C390.782 245.512 389.694 245.128 388.83 244.36C387.966 243.56 387.55 242.6 387.55 241.48V234.12ZM404.124 241.416C404.124 243.72 404.956 245.64 406.588 247.176C408.252 248.712 410.332 249.48 412.796 249.48C415.26 249.48 417.34 248.712 418.972 247.176C420.636 245.64 421.468 243.72 421.468 241.416V234.184C421.468 231.88 420.636 229.96 418.972 228.424C417.34 226.888 415.26 226.12 412.796 226.12C410.332 226.12 408.252 226.888 406.588 228.424C404.956 229.96 404.124 231.88 404.124 234.184V241.416ZM408.284 234.12C408.284 233 408.7 232.04 409.564 231.272C410.428 230.472 411.516 230.088 412.796 230.088C414.076 230.088 415.164 230.472 416.028 231.272C416.892 232.04 417.34 233 417.34 234.12V241.48C417.34 242.6 416.892 243.56 416.028 244.36C415.164 245.128 414.076 245.512 412.796 245.512C411.516 245.512 410.428 245.128 409.564 244.36C408.7 243.56 408.284 242.6 408.284 241.48V234.12Z" fill="#101010"/>
</g>
<rect x="231" y="138" width="171" height="171" rx="16" stroke="#D7E9FA" stroke-width="2"/>
<rect x="229" y="355" width="123" height="27" rx="4" fill="#EFF7FF"/>
<rect x="229" y="408.5" width="155" height="27" rx="4" fill="#EFF7FF"/>
<rect x="229" y="462" width="141" height="27" rx="4" fill="#EFF7FF"/>
</g>
<path d="M388 8V4H384H24C12.9543 4 4 12.9543 4 24V544V548H8H384H388V544V8Z" stroke="#FFB6CC" stroke-width="8"/>
<defs>
<clipPath id="clip0_135_1127">
<path d="M8 24C8 15.1634 15.1634 8 24 8H384V544H8V24Z" fill="white"/>
</clipPath>
<clipPath id="clip1_135_1127">
<path d="M211 40C211 35.5817 214.582 32 219 32H384V64H219C214.582 64 211 60.4183 211 56V40Z" fill="white"/>
</clipPath>
<clipPath id="clip2_135_1127">
<rect x="231" y="138" width="171" height="171" rx="16" fill="white"/>
</clipPath>
</defs>
</svg>
