<svg width="156" height="32" viewBox="0 0 156 32" fill="none" xmlns="http://www.w3.org/2000/svg">
<path d="M154.114 9.23936C153.362 9.40558 152.729 9.73802 152.016 10.0289C150.274 10.7353 138.042 15.8466 137.369 15.9713C136.735 15.8466 133.331 14.3507 132.42 13.9767C129.807 12.9378 129.966 12.4807 129.966 9.23936C129.966 6.82916 129.966 4.3774 129.966 1.96719C129.926 -1.27411 132.46 0.304985 134.162 1.01142C135.389 1.51009 153.679 8.86536 154.114 9.23936Z" fill="#29C9EC"/>
<path d="M154.272 22.7032L131.826 31.9285C130.639 32.2609 130.045 31.3883 130.045 30.2663C130.005 27.8145 130.045 25.3627 130.045 22.8694C130.045 19.8775 129.689 19.0879 132.381 18.0075L137.408 16.0128C140.298 17.1348 143.069 18.2984 145.84 19.4203C147.028 19.919 153.481 22.7448 154.272 22.7032Z" fill="#EA348B"/>
<path d="M154.272 22.7032C153.52 22.7448 147.028 19.919 145.84 19.4619C143.03 18.3399 140.298 17.1764 137.408 16.0544V15.9713C138.081 15.805 150.314 10.6938 152.056 10.0289C152.729 9.77954 153.402 9.4471 154.154 9.23932C155.777 9.48865 155.618 10.7353 155.618 11.6911V19.9606C155.618 21.5812 155.698 22.3708 154.272 22.7032Z" fill="#3B2F92"/>
<path d="M10.9657 23.4512C11.2033 23.8252 11.5595 24.033 12.0346 24.033H14.5286C14.8057 24.033 15.0828 23.7837 15.0828 23.4512V5.99804C15.0828 5.74871 14.8057 5.45782 14.5286 5.45782H12.2721C11.995 5.45782 11.7575 5.70715 11.7575 5.99804V18.1322L4.31504 5.91493C4.1171 5.54093 3.83999 5.45782 3.52329 5.45782H0.554225C0.237525 5.45782 0 5.70715 0 5.99804V23.4512C0 23.7837 0.237525 24.033 0.554225 24.033H2.8503C3.167 24.033 3.40452 23.7837 3.40452 23.4512V11.0678L10.9657 23.4512ZM16.2705 17.6751C16.2705 21.4566 19.1603 24.407 22.842 24.407C26.5236 24.407 29.4135 21.4566 29.4135 17.6751C29.4135 13.8104 26.5236 10.9016 22.842 10.9016C19.1603 10.9016 16.2705 13.8104 16.2705 17.6751ZM19.5562 17.6335C19.5562 15.6389 20.9418 14.0598 22.842 14.0598C24.7422 14.0598 26.0882 15.6804 26.0882 17.6335C26.0882 19.6282 24.7026 21.2073 22.842 21.2073C20.9814 21.2073 19.5562 19.6282 19.5562 17.6335ZM32.818 17.6335C32.818 15.6389 34.2036 14.0598 36.1038 14.0598C38.004 14.0598 39.3896 15.6804 39.3896 17.6335C39.3896 19.6697 38.004 21.2488 36.1038 21.2488C34.2036 21.2488 32.818 19.6697 32.818 17.6335ZM29.4927 17.5919C29.4927 21.7475 32.3826 24.3655 35.5892 24.3655C37.331 24.3655 38.6374 23.5759 39.35 22.4539V23.4512C39.35 23.7421 39.5875 23.9915 39.825 23.9915H42.0419C42.319 23.9915 42.5566 23.7421 42.5566 23.4512V5.99804C42.5566 5.70715 42.319 5.45782 42.0419 5.45782H39.825C39.5875 5.45782 39.3104 5.70715 39.3104 5.99804V12.7715C38.677 11.6911 37.2914 10.9016 35.51 10.9016C32.4222 10.86 29.4927 13.5195 29.4927 17.5919ZM45.0506 20.2515C45.0506 23.1188 47.1091 24.2823 49.0885 24.2823C50.5136 24.2823 51.7804 23.8252 52.5326 22.9941C52.7701 22.7448 52.8097 22.4539 52.6118 22.1215L51.8596 20.8333C51.6221 20.4593 51.2658 20.4593 50.8699 20.7086C50.4345 20.9995 49.999 21.0826 49.7219 21.0826C49.1281 21.0826 48.3363 20.7086 48.3363 19.4204V14.0182H51.8596C52.1367 14.0182 52.4138 13.7689 52.4138 13.4364V11.6911C52.4138 11.3587 52.1763 11.1093 51.8596 11.1093H48.3363V7.53558C48.3363 7.2447 48.0988 6.99537 47.8217 6.99537H45.6048C45.2881 6.99537 45.0506 7.2447 45.0506 7.53558V11.234H43.3879C43.1108 11.234 42.8733 11.4833 42.8733 11.8158V13.5611C42.8733 13.852 43.1108 14.1429 43.3879 14.1429H45.0506V20.2515ZM59.1041 11.0678C57.8373 11.0678 56.7685 11.8158 56.0955 12.9378V11.6911C56.0955 11.4002 55.858 11.1924 55.6204 11.1924H53.5223C53.2452 11.1924 53.0076 11.4418 53.0076 11.7742V23.4928C53.0076 23.7837 53.2452 24.033 53.5223 24.033H55.7392C56.0163 24.033 56.2934 23.8252 56.2934 23.5343V17.7997C56.2934 15.5557 57.2435 14.7246 58.827 14.7246H59.4604C59.6583 14.7246 60.0542 14.5584 60.0542 14.0182V11.7327C60.0542 11.1924 59.7375 11.0678 59.5 11.0678H59.1041ZM62.7858 17.6335C62.7858 15.6389 64.2109 14.0598 66.0715 14.0598C67.9717 14.0598 69.3573 15.6804 69.3573 17.6335C69.3573 19.6697 67.9717 21.2488 66.0715 21.2488C64.2109 21.2488 62.7858 19.6697 62.7858 17.6335ZM59.5 17.5919C59.5 21.7475 62.4295 24.3655 65.5569 24.3655C67.2987 24.3655 68.6843 23.5759 69.3177 22.4539V23.4512C69.3177 23.7421 69.5552 23.9915 69.8323 23.9915H72.0492C72.2868 23.9915 72.5243 23.7421 72.5243 23.4512V11.8158C72.5243 11.4833 72.2868 11.234 72.0492 11.234H69.8323C69.5552 11.234 69.3177 11.4833 69.3177 11.8158V12.8131C68.7239 11.6496 67.3383 10.86 65.5965 10.86C62.4295 10.86 59.5 13.5195 59.5 17.5919ZM83.2129 23.5343C83.2129 23.8252 83.4504 24.033 83.7671 24.033H85.9445C86.2216 24.033 86.4987 23.8252 86.4987 23.5343V16.3868C86.4987 13.2287 84.5193 10.86 81.2731 10.86C79.3333 10.86 77.9478 11.6911 77.2352 12.73V11.7327C77.2352 11.4418 76.9977 11.234 76.681 11.234H74.4641C74.2265 11.234 73.989 11.4833 73.989 11.8158V23.5343C73.989 23.8252 74.2265 24.0746 74.4641 24.0746H76.681C76.9581 24.0746 77.2352 23.8668 77.2352 23.5759V17.3426C77.2352 15.348 78.4624 14.0182 80.2834 14.0182C82.1836 14.0182 83.2525 15.348 83.2525 17.3426V23.5343H83.2129ZM92.4764 10.86C89.349 10.86 87.33 12.6053 87.33 14.974C87.33 17.0517 88.6364 18.3399 90.6554 18.7555L92.5951 19.2126C93.8619 19.4619 94.5349 19.7113 94.5349 20.4593C94.5349 21.1241 93.9015 21.7475 92.5951 21.7475C91.3283 21.7475 90.2991 21.1657 89.5073 20.4177C89.1906 20.1684 88.8343 19.919 88.3593 20.3762L87.4092 21.1657C86.8945 21.6228 86.855 22.2046 87.7655 22.9526C88.7552 23.7421 90.2991 24.4486 92.4368 24.4486C95.6434 24.4486 97.8999 22.6617 97.8999 20.2099C97.8999 17.8828 96.3164 16.8024 94.1786 16.3868L92.1993 15.9713C91.0908 15.7635 90.6554 15.3895 90.6554 14.7662C90.6554 14.1429 91.3679 13.6026 92.4764 13.6026C93.5452 13.6026 94.5745 14.1013 95.3663 14.7246C95.8413 15.0155 96.2372 14.974 96.5143 14.6415L97.3061 13.6442C97.5832 13.3118 97.6623 12.9378 97.2665 12.6053C96.4747 11.7742 94.8516 10.86 92.4764 10.86ZM98.177 11.234C97.8999 11.234 97.6623 11.4833 97.6623 11.8158V13.5611C97.6623 13.852 97.8999 14.1429 98.177 14.1429H99.8397V23.4928C99.8397 23.7837 100.077 24.0746 100.394 24.0746H102.611C102.888 24.0746 103.125 23.8252 103.125 23.4928V14.1013H105.501C105.778 14.1013 106.055 13.852 106.055 13.5195V11.7742C106.055 11.4418 105.817 11.1924 105.501 11.1924H103.125V9.48868C103.125 8.32513 103.798 7.82647 104.471 7.82647C104.788 7.82647 105.184 7.90958 105.659 8.24202C105.936 8.40824 106.332 8.61602 106.609 8.20047L107.559 6.82915C107.797 6.45515 107.757 6.16426 107.52 5.91493C106.688 5.08383 105.263 4.66827 104.155 4.66827C102.017 4.66827 99.8397 6.0396 99.8397 9.15624V11.234H98.177ZM111.835 10.86C108.074 10.86 105.382 13.8935 105.382 17.6751C105.382 21.4566 108.074 24.3655 111.874 24.3655C114.566 24.3655 116.15 23.2435 117.139 21.9137C117.298 21.7059 117.298 21.3319 117.06 21.1241L115.477 19.9606C115.2 19.7528 115.002 19.8775 114.804 20.1268C114.052 20.9995 113.22 21.4566 111.914 21.4566C110.291 21.4566 108.905 20.2515 108.707 18.4646H117.417C117.892 18.4646 117.971 18.2153 117.971 17.8828V17.2595C118.05 13.852 115.595 10.86 111.835 10.86ZM108.866 16.3037C109.222 14.6831 110.37 13.6026 111.874 13.6026C113.26 13.6026 114.566 14.5169 114.843 16.3037H108.866ZM124.74 11.0678C123.473 11.0678 122.365 11.8158 121.732 12.9378V11.6911C121.732 11.4002 121.494 11.1924 121.217 11.1924H119.158C118.881 11.1924 118.644 11.4418 118.644 11.7742V23.4928C118.644 23.7837 118.881 24.033 119.158 24.033H121.375C121.613 24.033 121.89 23.8252 121.89 23.5343V17.7997C121.89 15.5557 122.84 14.7246 124.463 14.7246H125.057C125.255 14.7246 125.69 14.5584 125.69 14.0182V11.7327C125.69 11.1924 125.374 11.0678 125.096 11.0678H124.74Z" fill="#3B2F92"/>
</svg>
