<svg width="164" height="30" viewBox="0 0 164 30" fill="none" xmlns="http://www.w3.org/2000/svg">
<path d="M23.5105 2.89648H1.71666C0.984783 2.89648 0.361328 3.51994 0.361328 4.27893V6.74564C0.361328 7.50463 0.984783 8.12809 1.71666 8.12809H23.5105C24.2695 8.12809 24.8658 7.50463 24.8929 6.74564V4.30603C24.8929 3.51994 24.2695 2.89648 23.5105 2.89648ZM23.5105 16.5854H1.71666C1.36428 16.5854 1.01189 16.7209 0.767929 16.992C0.496862 17.2631 0.361328 17.5883 0.361328 17.9678V20.4346C0.361328 21.1935 0.984783 21.817 1.71666 21.817H23.5105C24.2695 21.817 24.8658 21.2206 24.8929 20.4346V17.9678C24.8658 17.1817 24.2695 16.5854 23.5105 16.5854ZM13.996 23.4163H1.71666C1.36428 23.4163 1.01189 23.5518 0.767929 23.8229C0.523968 24.094 0.361328 24.4192 0.361328 24.7987V27.2655C0.361328 28.0244 0.984783 28.6479 1.71666 28.6479H13.9689C14.7279 28.6479 15.3242 28.0244 15.3242 27.2926V24.8258C15.3513 24.0126 14.755 23.3892 13.996 23.4163ZM24.8929 9.72738H1.71666C1.36428 9.72738 1.01189 9.86292 0.767929 10.134C0.523968 10.4051 0.361328 10.7303 0.361328 11.1098V13.5765C0.361328 14.3355 0.984783 14.959 1.71666 14.959H24.8658C25.6248 14.959 26.2211 14.3355 26.2211 13.5765V11.1098C26.2482 10.3508 25.6248 9.75449 24.8929 9.72738Z" fill="#B6B7BE"/>
<path d="M50.2376 8.42674C49.5599 7.72197 48.7738 7.17983 47.8793 6.80034C46.9848 6.42084 46.036 6.23109 45.0602 6.23109C44.1115 6.20399 43.1898 6.42084 42.3224 6.82744C41.7532 7.09851 41.2382 7.478 40.8044 7.93882V7.50511C40.8044 7.28825 40.7231 7.0714 40.5876 6.90876C40.4521 6.74612 40.2352 6.63769 39.9912 6.63769H36.9824C36.7655 6.63769 36.5487 6.71901 36.4132 6.90876C36.2505 7.0714 36.1692 7.28825 36.1963 7.50511V27.7809C36.1963 27.9978 36.2776 28.2147 36.4132 28.3773C36.5758 28.5399 36.7655 28.6213 36.9824 28.6213H40.0726C40.2894 28.6213 40.4792 28.5399 40.6418 28.3773C40.8044 28.2418 40.9129 28.0249 40.8858 27.7809V20.8416C41.3195 21.3295 41.8887 21.6819 42.5122 21.8988C43.3254 22.197 44.1657 22.3596 45.0331 22.3596C46.0089 22.3596 46.9848 22.1698 47.8793 21.7904C48.7738 21.4109 49.587 20.8687 50.2647 20.1639C50.9695 19.4321 51.5116 18.5647 51.8911 17.6159C52.3248 16.5588 52.5146 15.4203 52.4874 14.2818C52.5146 13.1433 52.2977 12.0048 51.8911 10.9206C51.4845 10.026 50.9424 9.15862 50.2376 8.42674ZM47.4727 15.7727C47.3101 16.2064 47.0661 16.5859 46.7408 16.9382C46.1174 17.6159 45.2228 17.9954 44.3012 17.9954C43.8404 17.9954 43.3796 17.9141 42.9459 17.6972C42.5393 17.5075 42.1598 17.2635 41.8345 16.9382C41.5092 16.613 41.2653 16.2064 41.1026 15.7727C40.7502 14.851 40.7502 13.8481 41.1026 12.9265C41.2653 12.4928 41.5363 12.1133 41.8345 11.788C42.1598 11.4627 42.5393 11.1916 42.9459 11.0019C43.3796 10.8121 43.8404 10.7037 44.3012 10.7037C44.7891 10.7037 45.2228 10.785 45.6837 11.0019C46.0903 11.1916 46.4698 11.4356 46.7679 11.7609C47.0932 12.0861 47.3101 12.4656 47.4998 12.8994C47.8251 13.8481 47.798 14.851 47.4727 15.7727ZM69.0497 6.6648H65.9866C65.7698 6.6648 65.5529 6.74612 65.4174 6.90876C65.2547 7.0714 65.1734 7.28826 65.1734 7.53222V7.91171C64.7939 7.4509 64.306 7.09851 63.791 6.85455C62.9507 6.44795 62.029 6.2582 61.1074 6.2582C59.1286 6.2582 57.2582 7.0443 55.8487 8.42674C55.1168 9.15862 54.5476 10.026 54.1681 10.9748C53.7344 12.0319 53.5175 13.1704 53.5446 14.336C53.5175 15.4745 53.7344 16.613 54.1681 17.6972C54.5747 18.646 55.1168 19.5134 55.8487 20.2453C57.2311 21.6548 59.1286 22.4409 61.0803 22.4409C62.0019 22.468 62.9235 22.2512 63.7639 21.8446C64.2789 21.5735 64.7939 21.2211 65.1734 20.7874V21.194C65.1734 21.4109 65.2547 21.6277 65.4174 21.7904C65.58 21.9259 65.7698 22.0343 65.9866 22.0343H69.0497C69.2665 22.0343 69.4834 21.953 69.6189 21.7904C69.7815 21.6277 69.8629 21.4109 69.8629 21.194V7.55932C69.8629 7.34247 69.7815 7.12561 69.646 6.96297C69.4834 6.77323 69.2665 6.6648 69.0497 6.6648ZM64.9023 15.7727C64.7397 16.2064 64.4957 16.5859 64.1705 16.9382C63.8452 17.2635 63.4928 17.5346 63.0862 17.7243C62.2188 18.1309 61.2158 18.1309 60.3484 17.7243C59.9418 17.5346 59.5623 17.2635 59.237 16.9382C58.9117 16.613 58.6678 16.2064 58.5051 15.7727C58.1799 14.851 58.1799 13.8481 58.5051 12.9265C58.6678 12.4928 58.9117 12.1404 59.237 11.788C59.5623 11.4627 59.9147 11.1916 60.3484 11.0019C61.2158 10.5953 62.2188 10.5953 63.0591 11.0019C63.4657 11.1916 63.8452 11.4356 64.1433 11.7609C64.4415 12.0861 64.6855 12.4656 64.8752 12.8994C65.2547 13.8481 65.2547 14.851 64.9023 15.7727ZM99.5719 13.9294C99.1381 13.5499 98.6231 13.2246 98.081 13.0078C97.5117 12.7638 96.8883 12.6012 96.2919 12.4656L93.9608 12.0048C93.3644 11.8964 92.9307 11.7338 92.7138 11.544C92.5241 11.4085 92.3886 11.1916 92.3886 10.9477C92.3886 10.7037 92.5241 10.4868 92.8223 10.2971C93.2289 10.0802 93.6626 9.97182 94.1234 9.99893C94.7197 9.99893 95.3161 10.1345 95.8582 10.3513C96.4004 10.5953 96.9154 10.8392 97.4033 11.1645C98.081 11.5982 98.6773 11.5169 99.0839 11.029L100.195 9.75497C100.412 9.53811 100.521 9.26705 100.548 8.96887C100.521 8.64359 100.358 8.37253 100.114 8.15567C99.6532 7.74907 98.8942 7.31536 97.8912 6.88165C96.8883 6.44795 95.6143 6.23109 94.1234 6.23109C93.2018 6.20399 92.3072 6.33952 91.4398 6.61059C90.708 6.85455 90.0032 7.20694 89.3797 7.66775C88.8105 8.10146 88.3768 8.64359 88.0515 9.29415C87.7533 9.91761 87.5907 10.5953 87.5907 11.2729C87.5907 12.547 87.9702 13.577 88.7292 14.336C89.4881 15.095 90.4911 15.61 91.738 15.854L94.1776 16.3961C94.6926 16.4774 95.2348 16.6401 95.7227 16.884C95.9938 16.9925 96.1564 17.2635 96.1564 17.5617C96.1564 17.8328 96.0209 18.0767 95.7227 18.2936C95.4245 18.5104 94.9366 18.646 94.286 18.646C93.6355 18.646 92.9578 18.5104 92.3615 18.2123C91.7922 17.9412 91.2772 17.5888 90.7893 17.1822C90.5724 17.0196 90.3556 16.884 90.0845 16.7756C89.8134 16.6943 89.461 16.7756 89.1087 17.0738L87.7804 18.0767C87.4009 18.3478 87.2112 18.8086 87.3196 19.2423C87.4009 19.7031 87.7533 20.1368 88.431 20.6519C90.1116 21.7904 92.1175 22.3867 94.1505 22.3325C95.0992 22.3325 96.048 22.2241 96.9425 21.953C97.7286 21.709 98.4605 21.3566 99.111 20.8687C99.7074 20.435 100.195 19.8658 100.521 19.1881C100.846 18.5375 101.009 17.8328 101.009 17.1009C101.036 16.4503 100.9 15.7998 100.629 15.2034C100.358 14.7697 100.006 14.3089 99.5719 13.9294ZM112.963 17.643C112.827 17.3991 112.583 17.2364 112.285 17.1822C112.014 17.1822 111.716 17.2635 111.499 17.4262C111.119 17.6701 110.686 17.8057 110.252 17.8328C110.116 17.8328 109.954 17.8057 109.818 17.7786C109.656 17.7515 109.52 17.6701 109.412 17.5617C109.276 17.4262 109.168 17.2635 109.086 17.1009C108.978 16.8298 108.924 16.5588 108.951 16.2877V10.7308H112.908C113.152 10.7308 113.369 10.6224 113.532 10.4597C113.694 10.2971 113.803 10.1074 113.803 9.86339V7.50511C113.803 7.26115 113.722 7.0443 113.532 6.90876C113.369 6.74612 113.152 6.6648 112.935 6.6648H108.951V2.86986C108.951 2.65301 108.869 2.40904 108.707 2.27351C108.544 2.13798 108.354 2.05666 108.138 2.02955H105.047C104.831 2.02955 104.614 2.11087 104.451 2.27351C104.288 2.43615 104.18 2.65301 104.18 2.86986V6.6648H102.418C102.201 6.6648 101.984 6.74612 101.822 6.93587C101.686 7.09851 101.605 7.31536 101.605 7.53222V9.8905C101.605 10.1074 101.686 10.3242 101.822 10.4869C101.957 10.6766 102.174 10.7579 102.418 10.7579H104.18V17.372C104.153 18.1581 104.316 18.9441 104.641 19.6489C104.939 20.2453 105.318 20.7603 105.834 21.194C106.321 21.6006 106.891 21.8988 107.514 22.0614C108.138 22.2512 108.788 22.3596 109.439 22.3596C110.279 22.3596 111.146 22.2241 111.96 21.953C112.719 21.709 113.396 21.2753 113.938 20.7061C114.291 20.3537 114.318 19.7845 114.047 19.3779L112.963 17.643ZM129.715 6.6648H126.651C126.435 6.6648 126.245 6.74612 126.082 6.90876C125.92 7.0714 125.838 7.28826 125.838 7.53222V7.91171C125.459 7.4509 124.998 7.09851 124.456 6.85455C123.616 6.44795 122.694 6.2582 121.772 6.2582C119.793 6.2582 117.923 7.0443 116.514 8.42674C115.782 9.15862 115.212 10.026 114.833 10.9748C114.399 12.0319 114.182 13.1704 114.209 14.3089C114.182 15.4474 114.399 16.5859 114.833 17.6701C115.212 18.6189 115.809 19.4863 116.514 20.2182C117.896 21.6277 119.766 22.4138 121.745 22.4138C122.667 22.4409 123.588 22.2241 124.429 21.8446C124.971 21.5735 125.459 21.2211 125.838 20.7874V21.194C125.838 21.4109 125.92 21.6277 126.082 21.7632C126.245 21.9259 126.435 22.0072 126.651 22.0072H129.715C130.175 22.0072 130.528 21.6548 130.528 21.194V7.55932C130.528 7.34247 130.446 7.12561 130.311 6.96297C130.175 6.77323 129.959 6.6648 129.715 6.6648ZM125.594 15.7727C125.432 16.2064 125.188 16.5859 124.862 16.9382C124.537 17.2635 124.185 17.5346 123.778 17.7243C123.344 17.9141 122.884 18.0225 122.396 18.0225C121.908 18.0225 121.474 17.9141 121.04 17.7243C120.634 17.5346 120.254 17.2635 119.929 16.9382C119.604 16.613 119.36 16.2064 119.224 15.7727C118.899 14.851 118.899 13.8481 119.224 12.9265C119.387 12.4928 119.631 12.1133 119.929 11.788C120.254 11.4627 120.634 11.1916 121.04 11.0019C121.474 10.8121 121.935 10.7037 122.396 10.7037C122.857 10.7037 123.317 10.785 123.778 11.0019C124.185 11.1916 124.537 11.4356 124.862 11.7609C125.188 12.0861 125.432 12.4656 125.594 12.8994C125.947 13.821 125.947 14.851 125.594 15.7727ZM146.521 17.4262L144.759 16.0708C144.434 15.7998 144.108 15.7184 143.837 15.8269C143.593 15.9353 143.376 16.0979 143.187 16.2877C142.807 16.7485 142.346 17.1551 141.858 17.5075C141.316 17.8057 140.747 17.9683 140.151 17.9141C139.446 17.9141 138.795 17.7243 138.226 17.3177C137.657 16.9111 137.223 16.369 137.006 15.6913C136.844 15.2305 136.762 14.7697 136.762 14.3089C136.762 13.821 136.844 13.3602 137.006 12.8722C137.169 12.4385 137.386 12.059 137.711 11.7338C138.036 11.4085 138.389 11.1374 138.795 10.9748C139.229 10.785 139.69 10.6766 140.178 10.6766C140.774 10.6495 141.37 10.8121 141.885 11.1103C142.4 11.4356 142.834 11.8422 143.214 12.3301C143.376 12.5199 143.593 12.6825 143.837 12.7909C144.108 12.8994 144.434 12.818 144.759 12.547L146.521 11.2187C146.738 11.0832 146.9 10.8663 146.982 10.6224C147.09 10.3513 147.063 10.0531 146.9 9.80919C146.223 8.75202 145.301 7.8846 144.19 7.26115C143.024 6.61059 141.642 6.2582 140.096 6.2582C139.012 6.2582 137.928 6.47505 136.898 6.88165C135.922 7.28825 135.055 7.8575 134.323 8.58938C133.591 9.32126 132.994 10.1887 132.588 11.1645C131.748 13.1975 131.748 15.4745 132.588 17.5075C132.994 18.4562 133.564 19.3507 134.323 20.0555C135.868 21.5735 137.928 22.3867 140.096 22.3867C141.642 22.3867 143.024 22.0343 144.19 21.3838C145.301 20.7603 146.25 19.8929 146.927 18.8086C147.063 18.5647 147.09 18.2665 147.009 18.0225C146.9 17.8057 146.738 17.5888 146.521 17.4262ZM162.839 20.5977L157.987 13.4957L162.134 8.02014C162.324 7.77618 162.405 7.42379 162.297 7.12562C162.216 6.90876 162.026 6.69191 161.511 6.69191H158.231C158.041 6.69191 157.851 6.74612 157.689 6.82744C157.472 6.93587 157.309 7.09851 157.201 7.28825L153.894 11.9235H153.108V0.97239C153.108 0.755536 153.026 0.538679 152.864 0.376039C152.701 0.213399 152.511 0.13208 152.294 0.13208H149.231C149.015 0.13208 148.798 0.213399 148.635 0.376039C148.472 0.538679 148.391 0.72843 148.391 0.97239V21.1669C148.391 21.4109 148.472 21.6006 148.635 21.7632C148.798 21.9259 149.015 22.0072 149.231 22.0072H152.294C152.511 22.0072 152.728 21.9259 152.864 21.7632C153.026 21.6006 153.108 21.3838 153.108 21.1669V15.8269H153.975L157.58 21.3566C157.797 21.7632 158.204 22.0072 158.637 22.0072H162.08C162.595 22.0072 162.812 21.7632 162.92 21.5464C163.056 21.2211 163.029 20.8687 162.839 20.5977ZM86.4522 6.6648H83.0096C82.7386 6.6648 82.4946 6.74612 82.3049 6.93587C82.1422 7.09851 82.0338 7.28825 81.9796 7.50511L79.4315 16.9382H78.8081L76.0974 7.50511C76.0432 7.31536 75.9619 7.12562 75.8264 6.93587C75.6637 6.74612 75.4469 6.63769 75.2029 6.63769H71.7061C71.2453 6.63769 70.9742 6.77323 70.8387 7.09851C70.7574 7.36958 70.7574 7.66775 70.8387 7.93882L75.1758 21.2211C75.2571 21.4109 75.3384 21.6277 75.5011 21.7632C75.6637 21.9259 75.9077 22.0072 76.1516 22.0072H77.9949L77.8322 22.4409L77.4256 23.6607C77.2901 24.0402 77.0733 24.3655 76.748 24.6095C76.4498 24.8263 76.0974 24.9618 75.7179 24.9347C75.3926 24.9347 75.0945 24.8534 74.7963 24.745C74.4981 24.6095 74.2271 24.4468 73.9831 24.2571C73.7662 24.0944 73.4952 24.0131 73.197 24.0131H73.1699C72.8446 24.0402 72.5464 24.2029 72.3838 24.501L71.2995 26.1003C70.8658 26.8051 71.1098 27.2388 71.3808 27.4828C71.9772 28.0249 72.6549 28.4315 73.4139 28.6755C74.2542 28.9736 75.1216 29.1092 75.989 29.1092C77.5612 29.1092 78.8623 28.6755 79.8653 27.8352C80.8953 26.9135 81.6814 25.7208 82.0609 24.3655L87.1028 7.93882C87.2112 7.64064 87.2383 7.34247 87.1299 7.0714C87.1028 6.88166 86.913 6.6648 86.4522 6.6648Z" fill="#B6B7BE"/>
</svg>
