<svg width="131" height="29" viewBox="0 0 131 29" fill="none" xmlns="http://www.w3.org/2000/svg">
<path fill-rule="evenodd" clip-rule="evenodd" d="M124.204 16.0759C123.092 17.6085 121.71 18.9299 120.209 20.1011C114.262 24.8178 106.42 27.3103 99.0012 28.3923C108.162 27.7312 125.616 24.5471 130.691 16.0759H124.204Z" fill="#B6B7BE"/>
<path fill-rule="evenodd" clip-rule="evenodd" d="M118.947 6.04591C118.947 13.2552 112.94 18.8731 107.171 22.2669C101.103 25.8414 93.7745 27.6432 86.8352 28.3347C95.2766 28.1548 104.409 27.0126 112.099 23.3481C118.798 20.164 126.547 14.2166 126.517 6.04517H118.947V6.04591Z" fill="#B6B7BE"/>
<path fill-rule="evenodd" clip-rule="evenodd" d="M115.313 0.849121H100.563C105.219 2.65162 109.636 5.89598 109.636 11.3325C109.636 18.3625 103.417 22.3877 97.7989 25.1509C104.258 22.6873 110.896 19.3538 114.951 13.5559C116.423 11.4529 117.385 9.20056 117.385 6.61653C117.385 4.66382 116.725 2.32146 115.313 0.849121ZM96.6589 19.5932C96.5385 20.1345 96.0864 20.0438 95.606 20.0438C93.924 20.0438 91.972 19.9531 90.2907 19.9531C89.5687 19.9531 88.7931 20.0133 88.0733 20.0133C87.9528 20.0133 87.7134 19.9836 87.7134 19.8334C87.7134 19.7137 87.9223 19.6839 87.9818 19.6839C88.1923 19.6839 88.3997 19.6728 88.6139 19.6229C88.9797 19.5382 89.1061 19.0875 89.179 18.6927C89.2571 18.2733 89.269 17.1653 89.269 16.1986V10.4312C89.269 9.74041 89.269 8.92915 89.24 8.41829C89.2095 7.8472 89.089 7.57801 88.518 7.45754C88.309 7.39657 87.6479 7.45755 87.6479 7.24785C87.6479 7.06641 87.9164 7.09764 88.0368 7.09764C88.8184 7.09764 89.5999 7.12813 90.3807 7.12813C91.1302 7.12813 91.9118 7.09764 92.6926 7.09764C92.7825 7.09764 93.0525 7.06641 93.0525 7.24785C93.0525 7.39731 92.8435 7.39732 92.752 7.39732C92.5126 7.39732 92.3029 7.39732 92.091 7.45829C91.5504 7.54827 91.4909 7.93866 91.4299 8.41903C91.4009 9.0801 91.4009 10.3717 91.4009 11.3325V15.6588C91.4009 17.9707 91.4299 18.3923 91.7608 18.7224C92.1497 19.0526 92.7223 19.1121 93.9842 19.1121C94.6453 19.1121 95.6967 19.1418 96.1451 18.6317C96.4165 18.3625 96.537 17.9409 96.5965 17.581C96.627 17.4903 96.627 17.3408 96.7764 17.3408C96.9564 17.3408 96.9274 17.52 96.9274 17.6405C96.9296 18.1513 96.8091 19.1128 96.6589 19.5932ZM84.7627 20.0141C83.8607 20.0141 82.9907 19.9538 82.0887 19.9538C81.3682 19.9538 80.6469 20.0141 79.9568 20.0141C79.8364 20.0141 79.5954 19.9843 79.5954 19.8341C79.5954 19.7144 79.7769 19.6847 79.8654 19.6847C80.0773 19.6847 80.2862 19.6847 80.4974 19.6237C80.8878 19.5345 80.9473 19.1433 80.9778 18.7827C81.0678 18.1513 81.0678 17.0107 81.0678 15.8395V10.432C81.0678 9.62069 81.0678 8.81017 81.0373 8.41903C81.0068 7.99889 80.9183 7.57876 80.4662 7.45829C80.2572 7.39732 80.0468 7.39732 79.8356 7.39732C79.7152 7.39732 79.5657 7.39731 79.5657 7.21736C79.5657 7.06641 79.8951 7.09764 79.9851 7.09764C80.7056 7.09764 81.4574 7.12813 82.2085 7.12813C82.8985 7.12813 83.5893 7.09764 84.2809 7.09764C84.3709 7.09764 84.6408 7.09764 84.6408 7.21736C84.6408 7.39731 84.4913 7.39732 84.3709 7.39732C84.1909 7.39732 84.011 7.42855 83.8593 7.45829C83.3187 7.54827 83.2592 7.93866 83.2287 8.41903C83.1982 8.86966 83.1982 9.77091 83.1982 11.3325V16.1681C83.1982 17.0397 83.1982 18.3008 83.2592 18.7819C83.3187 19.2623 83.4086 19.5337 83.9507 19.6229C84.2192 19.6839 84.5203 19.6839 84.8207 19.6839C84.9107 19.6839 85.0922 19.7137 85.0922 19.8334C85.0944 19.9843 84.8817 20.0141 84.7627 20.0141ZM78.6354 20.0141C77.674 20.0141 76.1414 19.9843 75.4216 19.9843C75.0312 19.9843 74.4296 20.0141 73.9797 20.0141C73.8288 20.0141 73.6793 19.9843 73.6793 19.8646C73.6793 19.7144 73.8288 19.7144 74.0697 19.7144C74.5196 19.7144 74.7308 19.5939 74.7308 19.2935C74.7308 19.1738 74.6713 18.9634 74.5798 18.6934C74.1604 17.6717 73.4094 15.9295 73.3179 15.6595C73.2889 15.5688 73.2294 15.5391 73.109 15.5391H68.9031C68.8132 15.5391 68.7827 15.5985 68.7232 15.6893L67.7022 18.1216C67.5817 18.3923 67.4323 18.8734 67.4323 19.1731C67.4323 19.7144 67.9126 19.7144 68.3023 19.7144C68.5432 19.7144 68.7827 19.7144 68.7827 19.8646C68.7827 20.0141 68.5737 20.0141 68.4533 20.0141C68.0019 20.0141 67.3408 19.9843 66.8902 19.9843H64.8185C64.3976 19.9843 63.7968 20.0446 63.3462 20.0446C61.2737 20.0446 60.5837 18.6325 59.5025 16.83C59.0221 16.0194 57.9996 14.1262 57.729 13.6756C57.639 13.5261 57.5193 13.4956 57.3393 13.4956L55.4164 13.4659C55.1464 13.4354 55.2067 13.7366 55.2067 13.9165V16.6508C55.2364 17.2516 55.2364 17.8509 55.2966 18.4228C55.3569 18.9939 55.5071 19.4735 56.1384 19.5642C56.4686 19.6237 56.7987 19.6542 57.1296 19.6542C57.2196 19.6542 57.3698 19.6847 57.3698 19.8044C57.3698 20.0141 57.0999 20.0141 56.9794 20.0141C56.0187 20.0141 55.0572 19.9538 54.1262 19.9538C53.3447 19.9538 52.5639 20.0141 51.7839 20.0141C51.6634 20.0141 51.3927 20.0141 51.3927 19.8044C51.3927 19.6542 51.6032 19.6542 51.6931 19.6542C51.9341 19.6542 52.204 19.6237 52.4137 19.5642C52.8955 19.4437 52.9558 18.8429 53.0153 18.4228C53.106 17.7015 53.106 16.3801 53.106 15.3591V8.71945C53.106 7.66799 53.106 6.73625 53.0747 6.10567C53.0153 5.44461 52.8955 5.11444 52.204 4.93449C51.9638 4.875 51.6634 4.875 51.4239 4.875C51.3035 4.875 51.093 4.875 51.093 4.69431C51.093 4.51361 51.3935 4.51361 51.5139 4.51361C52.4144 4.51361 53.2859 4.57458 54.1574 4.57458C55.1487 4.57458 56.1406 4.51361 57.1014 4.51361C58.393 4.51361 59.8349 4.69431 60.9153 5.44461C61.7571 6.04544 62.2672 7.27759 62.2672 8.26882C62.2672 10.281 61.2157 12.0233 59.4437 12.9245C60.4952 14.6066 62.1177 17.2501 63.2882 18.4518C63.8897 19.0533 64.3701 19.5337 65.0312 19.5337C65.7822 19.5337 66.1436 18.7224 66.383 18.1216L71.0395 7.39732C71.1295 7.21736 71.279 6.70651 71.5496 6.70651C71.7906 6.70651 71.94 7.09764 71.9995 7.24785C72.5111 8.29856 72.961 9.38051 73.4414 10.461C74.5233 12.8948 75.5748 15.3584 76.6872 17.761C77.0166 18.4518 77.5267 19.4727 78.3387 19.6229C78.6087 19.6839 78.6986 19.6839 78.9693 19.6839C79.0898 19.6839 79.2088 19.6839 79.2088 19.8334C79.205 19.9843 79.0556 20.0141 78.6354 20.0141ZM50.0803 8.62947V9.32028C50.0498 9.411 50.0498 9.59095 49.93 9.59095C49.6899 9.59095 49.7203 9.20056 49.7203 9.05035C49.6296 8.20859 48.3082 8.11936 47.7067 8.08961L45.5443 8.02864V15.7488C45.5443 17.1601 45.574 18.1513 45.635 18.6934C45.6945 19.1738 45.7554 19.5345 46.296 19.6237C46.5667 19.6847 46.8664 19.6847 47.1668 19.6847C47.2575 19.6847 47.4375 19.7144 47.4375 19.8341C47.4375 19.9843 47.227 20.0141 47.1066 20.0141C46.2351 20.0141 45.3346 19.9538 44.4333 19.9538C43.7128 19.9538 42.9915 20.0141 42.2709 20.0141C42.1802 20.0141 41.9407 19.9843 41.9407 19.8341C41.9407 19.7144 42.1207 19.6847 42.2107 19.6847C42.4211 19.6847 42.6308 19.6847 42.8413 19.6237C43.2316 19.5345 43.2919 19.0236 43.3216 18.6934C43.4123 17.9416 43.4123 16.7407 43.4123 15.7792V8.02864L40.8581 8.11936C40.3175 8.11936 39.5367 8.11936 39.2065 8.59972C39.0938 8.79348 38.9935 8.99416 38.9061 9.20056C38.8756 9.32028 38.8451 9.411 38.7254 9.411C38.5752 9.411 38.5752 9.26079 38.5752 9.14032C38.5752 8.75068 38.8146 7.57875 38.9351 7.15787C38.9648 7.06715 38.9946 6.85745 39.1448 6.85745C39.2058 6.85745 39.6252 7.03741 39.8661 7.06715C40.4067 7.12813 40.948 7.12813 41.4879 7.12813H48.457C48.8169 7.12813 49.1783 7.12813 49.5382 7.06715C49.6586 7.03741 49.8386 6.97718 49.9888 6.97718C50.139 6.97718 50.1093 7.21736 50.1093 7.33783C50.1107 7.75796 50.1107 8.17884 50.0803 8.62947ZM31.0953 20.2543C27.0701 20.2543 24.2764 17.4605 24.2764 13.5559C24.2764 9.53072 27.2203 6.85671 31.2455 6.85671C35.2409 6.85671 38.0948 9.10984 38.0948 13.225C38.0948 17.3408 35.2111 20.2543 31.0953 20.2543ZM22.2947 19.3538C22.1742 19.6839 22.1742 19.7137 21.8738 19.8646C21.2127 20.1643 19.6512 20.2543 18.8994 20.2543C16.8575 20.2543 14.8445 19.8044 13.2829 18.3923C11.8403 17.0404 11.27 15.2676 11.27 13.3454C11.27 11.6039 11.9311 9.86088 13.1625 8.65921C14.6043 7.27834 16.4061 6.85745 18.3588 6.85745C19.7404 6.85745 21.0328 7.06715 22.3839 7.30808C22.5044 7.33857 22.6249 7.36831 22.6249 7.51852C22.6249 7.81894 22.5639 8.14985 22.5341 8.45026C22.5044 9.08084 22.5639 9.68093 22.4739 10.3123C22.4739 10.432 22.4739 10.7026 22.294 10.7026C22.1133 10.7026 22.1437 10.4022 22.1133 10.3123C22.0835 9.71142 21.9028 9.20056 21.4827 8.74994C20.7614 7.93866 19.1693 7.69773 18.1484 7.69773C14.7843 7.69773 13.5819 10.1003 13.5819 13.1655C13.5819 15.4781 14.6043 17.6717 16.7065 18.7529C17.3378 19.0533 18.0279 19.2638 18.7194 19.2638C19.8311 19.2638 21.0031 19.2043 21.7236 18.3023C21.9943 17.9721 22.204 17.5817 22.2947 17.1609C22.3252 17.0411 22.3252 16.8307 22.5051 16.8307C22.6256 16.8307 22.6553 16.9809 22.6553 17.0716C22.6546 17.4903 22.4144 18.9931 22.2947 19.3538ZM3.54989 20.2543C2.52892 20.2543 1.357 20.1345 0.426008 19.7137C0.0356148 19.5337 0.00512695 19.4132 0.00512695 18.9924C0.00512695 18.3618 0.0356147 17.7007 0.0646153 17.0701C0.0958467 16.8292 0.0958473 16.5585 0.125591 16.3488C0.125591 16.1986 0.156079 15.8075 0.365776 15.8075C0.57696 15.8075 0.576959 16.0179 0.576959 16.1377C0.576959 16.4678 0.69668 16.8887 0.786656 17.1884C1.23728 18.6302 2.4092 19.2615 3.85031 19.2615C4.962 19.2615 6.10343 18.8414 6.61429 17.8197C6.7645 17.5505 6.85522 17.2494 6.85522 16.9192C6.85522 13.2837 0.516728 12.5936 0.516728 8.05764C0.516728 5.35389 3.03978 4.18196 5.44311 4.18196C6.37411 4.18196 7.39582 4.27268 8.29633 4.51212C8.41679 4.5731 8.59674 4.60285 8.59674 4.7828C8.59674 5.08321 8.56625 5.38363 8.53651 5.71379C8.50602 6.22465 8.50602 6.73476 8.50602 7.24636C8.50602 7.36608 8.53651 7.84645 8.26584 7.84645C8.08514 7.84645 8.05614 7.60627 8.05614 7.48655C8.05614 7.00618 7.78547 6.46557 7.48505 6.13467C6.91471 5.38363 6.04395 5.11295 5.1427 5.11295C3.8808 5.11295 2.46869 5.77402 2.46869 7.24636C2.46869 10.4595 8.86742 11.3012 8.86742 15.8372C8.86667 18.9626 6.34288 20.2543 3.54989 20.2543ZM71.1548 10.3717C71.1548 10.3115 71.1258 10.2215 71.0663 10.2215C71.0053 10.2215 70.9748 10.3123 70.9458 10.3717C70.8253 10.7019 69.2028 14.5471 69.2028 14.6066C69.2028 14.6676 69.2333 14.6973 69.2928 14.6973H72.7773C72.8078 14.6973 72.8688 14.6676 72.8688 14.6066C72.868 14.5768 71.2752 10.6722 71.1548 10.3717ZM58.2978 5.74577C57.8579 5.53101 57.3753 5.41816 56.8857 5.41561C56.6463 5.41561 55.6253 5.41561 55.4439 5.50633C55.2937 5.56581 55.2037 5.62605 55.2037 5.77625V12.1742C55.2037 12.3839 55.2639 12.4747 55.4439 12.5646C55.8045 12.7148 56.5556 12.7148 56.9467 12.7148C57.4576 12.7148 58.2086 12.6241 58.6592 12.3535C59.7999 11.6924 60.2208 10.4922 60.2208 9.2303C60.2208 7.75796 59.6802 6.37634 58.2978 5.74577ZM30.7651 7.66799C27.6412 7.66799 26.6202 10.2513 26.6202 13.0145C26.6202 16.1689 28.2718 19.3835 31.7868 19.3835C34.82 19.3835 35.722 16.4396 35.722 13.8563C35.7212 10.9123 34.1894 7.66799 30.7651 7.66799Z" fill="#B6B7BE"/>
</svg>
