<svg width="80" height="34" viewBox="0 0 80 34" fill="none" xmlns="http://www.w3.org/2000/svg">
<path d="M6.05772 13.0257C6.05772 12.1604 6.76158 11.8274 7.92758 11.8274C9.59916 11.8274 11.7108 12.3379 13.3825 13.2477V8.03284C11.5569 7.30061 9.75321 7.01212 7.92758 7.01212C3.46218 7.01212 0.492676 9.36437 0.492676 13.2922C0.492676 19.4165 8.85122 18.4402 8.85122 21.081C8.85122 22.1015 7.9715 22.4345 6.73962 22.4345C4.91399 22.4345 2.58231 21.68 0.734567 20.6592V25.9406C2.78028 26.8282 4.84795 27.2053 6.73962 27.2053C11.3148 27.2053 14.4603 24.9198 14.4603 20.9477C14.4384 14.335 6.05772 15.511 6.05772 13.0257ZM20.9272 2.57412L15.5601 3.72793L15.5382 21.5024C15.5382 24.7868 17.9798 27.2053 21.2353 27.2053C23.039 27.2053 24.3587 26.8725 25.0845 26.4731V21.9685C24.3808 22.2569 20.9053 23.2777 20.9053 19.9935V12.1159H25.0845V7.38939H20.9053L20.9272 2.57412ZM31.9255 9.03141L31.5735 7.38939H26.8223V26.8059H32.3215V13.6471C33.6191 11.9385 35.8188 12.2491 36.5007 12.4932V7.38939C35.7969 7.12305 33.2233 6.63485 31.9255 9.03141ZM37.8424 7.38939H43.3635V26.8059H37.8424V7.38939ZM37.8424 5.7029L43.3635 4.50463V0L37.8424 1.17612V5.70275V5.7029ZM54.8456 7.01212C52.69 7.01212 51.3042 8.03284 50.5344 8.74307L50.2483 7.36723H45.4093V33.241L50.9083 32.0651L50.9304 25.7852C51.7222 26.3621 52.8879 27.1832 54.8237 27.1832C58.7611 27.1832 62.3464 23.9877 62.3464 16.9535C62.3245 10.5182 58.695 7.01212 54.8456 7.01212ZM53.5259 22.3013C52.2281 22.3013 51.4581 21.8354 50.9304 21.2584L50.9083 13.0257C51.4802 12.3822 52.2721 11.9385 53.5259 11.9385C55.5275 11.9385 56.9133 14.2018 56.9133 17.1087C56.9133 20.0823 55.5495 22.3013 53.5259 22.3013ZM79.6795 17.1753C79.6795 11.4946 76.9519 7.01212 71.7389 7.01212C66.5036 7.01212 63.3361 11.4947 63.3361 17.131C63.3361 23.8102 67.0757 27.1832 72.4426 27.1832C75.0603 27.1832 77.0399 26.584 78.5357 25.7409V21.3027C77.0401 22.0572 75.3243 22.5233 73.1466 22.5233C71.0129 22.5233 69.1212 21.7687 68.8793 19.1503H79.6356C79.6356 18.8617 79.6795 17.7079 79.6795 17.1753ZM68.8133 15.0673C68.8133 12.5598 70.3312 11.5167 71.7169 11.5167C73.0586 11.5167 74.4885 12.5598 74.4885 15.0673H68.8133Z" fill="#B6B7BE"/>
</svg>
