<svg width="163" height="42" viewBox="0 0 163 42" fill="none" xmlns="http://www.w3.org/2000/svg">
<path d="M72.1645 15.5658V28.7158C76.2199 29.5649 80.3565 29.965 84.4995 29.9088C88.6407 29.9599 92.7753 29.5613 96.8305 28.7198V24.2518C92.7409 24.954 88.5978 25.297 84.4485 25.2768C82.1003 25.2539 79.7563 25.0766 77.4315 24.7458C77.4315 23.6678 77.4315 20.6278 77.4315 19.5458C79.7742 19.2185 82.1352 19.0395 84.5005 19.0098C88.6326 19.0167 92.757 19.3689 96.8305 20.0628V15.5628C92.7769 14.7157 88.6422 14.3179 84.5015 14.3768C80.3582 14.3125 76.2208 14.712 72.1665 15.5678" fill="#32323A"/>
<path d="M102.684 29.609H108.084V14.621H102.684V29.609Z" fill="#32323A"/>
<path d="M30.4301 29.6091H35.8301V14.6211H30.4301V29.6091Z" fill="#32323A"/>
<path d="M60.9569 29.609C57.9335 27.2846 54.7052 25.2395 51.3119 23.499C49.7119 22.674 48.3599 22.123 47.1029 21.615V29.609H41.8759V14.649C45.1596 15.3873 48.3342 16.5466 51.3209 18.098C54.6694 19.8124 57.8909 21.764 60.9609 23.938V14.621H66.2019V29.609H60.9569Z" fill="#32323A"/>
<path d="M26.8229 18.018L13.4289 30.009L0.019928 18.009L4.02893 14.37C4.02893 14.37 12.2219 22.226 13.4289 23.35C14.6379 22.226 22.8289 14.37 22.8289 14.37L26.8229 18.018Z" fill="#32323A"/>
<path d="M120.262 14.63H127.779C128.723 14.6436 129.661 14.4684 130.537 14.1149C131.413 13.7613 132.209 13.2364 132.879 12.571C134.078 11.4565 134.829 9.94351 134.993 8.315V2.088C134.994 1.53361 135.215 1.00222 135.607 0.610673C136 0.219125 136.532 -0.000529878 137.086 9.59917e-07H145.236C145.791 0.000266094 146.323 0.22079 146.715 0.613087C147.107 1.00538 147.327 1.53734 147.327 2.092V10.214C147.327 10.4886 147.272 10.7604 147.166 11.0139C147.061 11.2674 146.906 11.4976 146.712 11.6914C146.517 11.8852 146.287 12.0388 146.033 12.1434C145.779 12.248 145.507 12.3015 145.232 12.301H138.981C137.35 12.4636 135.833 13.2122 134.711 14.408C134.045 15.0738 133.518 15.8664 133.163 16.7392C132.808 17.6119 132.632 18.547 132.645 19.489V26.98H120.262V14.631" fill="#32323A"/>
<path d="M162.929 21.197C162.932 20.258 162.748 19.3278 162.389 18.4602C162.03 17.5925 161.503 16.8046 160.837 16.142C160.172 15.4793 159.382 14.9552 158.513 14.5997C157.644 14.2442 156.713 14.0646 155.774 14.071C153.844 14.0665 151.99 14.8266 150.619 16.1851C149.248 17.5436 148.47 19.3899 148.457 21.32C148.457 22.041 148.771 23.408 148.771 23.992C148.766 25.4847 148.17 26.9146 147.112 27.9677C146.054 29.0208 144.622 29.6112 143.129 29.609H137.087C136.812 29.6082 136.54 29.6617 136.286 29.7662C136.032 29.8708 135.801 30.0245 135.607 30.2185C135.412 30.4124 135.258 30.6429 135.152 30.8966C135.047 31.1503 134.993 31.4223 134.993 31.697V39.819C134.993 40.0939 135.047 40.366 135.153 40.6198C135.258 40.8737 135.413 41.1042 135.607 41.2984C135.802 41.4925 136.033 41.6463 136.287 41.7511C136.541 41.8559 136.813 41.9096 137.088 41.909H145.238C145.513 41.9096 145.785 41.856 146.038 41.7514C146.292 41.6468 146.523 41.4932 146.718 41.2994C146.912 41.1056 147.067 40.8754 147.172 40.6219C147.278 40.3684 147.332 40.0966 147.333 39.822V33.801C147.334 33.0615 147.481 32.3294 147.765 31.6466C148.049 30.9638 148.465 30.3437 148.989 29.8216C149.513 29.2995 150.134 28.8858 150.818 28.6039C151.502 28.3221 152.234 28.1777 152.974 28.179C153.559 28.179 154.93 28.492 155.649 28.492C157.581 28.4852 159.432 27.7132 160.796 26.345C162.16 24.9769 162.927 23.1241 162.928 21.192" fill="#32323A"/>
</svg>
